<?xml version="1.0" encoding="UTF-8"?>
<svg width="32px" height="32px" viewBox="0 0 32 32" version="1.1" xmlns="http://www.w3.org/2000/svg" xmlns:xlink="http://www.w3.org/1999/xlink">
    <!-- Generator: sketchtool 57.1 (101010) - https://sketch.com -->
    <title>179F3870-9745-445E-94D7-400842774265</title>
    <desc>Created with sketchtool.</desc>
    <g id="Page-1" stroke="none" stroke-width="1" fill="none" fill-rule="evenodd">
        <g id="Home" transform="translate(-145.000000, -2863.000000)">
            <g id="arrow-left" transform="translate(161.000000, 2879.000000) scale(-1, 1) translate(-161.000000, -2879.000000) translate(146.000000, 2864.000000)">
                <circle id="Oval" stroke="#979797" cx="15" cy="15" r="15"></circle>
                <path d="M14.7146549,11.7693366 C14.5957495,11.6664703 14.4390611,11.5995 14.2657036,11.5995 C13.8967635,11.5995 13.5995,11.8882758 13.5995,12.2418788 C13.5995,12.4304671 13.6839562,12.5976248 13.8161968,12.7149567 L13.8139742,12.7170998 L15.9453814,14.6008394 L13.8139742,16.4840433 C13.6839562,16.6035182 13.5995,16.7690687 13.5995,16.9571212 C13.5995,17.3128673 13.8967635,17.5995 14.2657036,17.5995 C14.4390611,17.5995 14.5957495,17.5346728 14.7146549,17.4301992 L14.7146549,17.4323422 L17.3822476,15.0739174 C17.5211558,14.9522994 17.5995,14.7808555 17.5995,14.6008394 C17.5995,14.4208233 17.5211558,14.2493795 17.3822476,14.1256184 L14.7146549,11.7693366 Z" id="Path" fill="#979797"></path>
            </g>
        </g>
    </g>
</svg>