<?xml version="1.0" encoding="UTF-8"?>
<svg width="100px" height="100px" viewBox="0 0 100 100" version="1.1" xmlns="http://www.w3.org/2000/svg" xmlns:xlink="http://www.w3.org/1999/xlink">
    <!-- Generator: Sketch 51.2 (57519) - http://www.bohemiancoding.com/sketch -->
    <title>Group 56</title>
    <desc>Created with Sketch.</desc>
    <defs>
        <polygon id="path-1" points="0 0.994157176 8.8853583 0.994157176 8.8853583 9.9672 0 9.9672"></polygon>
        <polygon id="path-3" points="0.619141699 0.993441699 9.504 0.993441699 9.504 9.9672 0.619141699 9.9672"></polygon>
        <polygon id="path-5" points="0.618941699 0.112354301 9.504 0.112354301 9.504 9.0864 0.618941699 9.0864"></polygon>
    </defs>
    <g id="Page-1" stroke="none" stroke-width="1" fill="none" fill-rule="evenodd">
        <g id="Group-56">
            <path d="M94.5811,26.9016 C93.8381,24.7966 52.7451,1.3766 49.2741,0.4526 C49.2561,0.4476 49.2391,0.4626 49.2221,0.4626 C49.2041,0.4626 49.1871,0.4476 49.1691,0.4526 C45.6981,1.3766 4.5741,24.7966 3.8311,26.9016 C3.0871,29.0066 2.5871,42.9666 4.5011,47.7926 C6.4161,52.6186 49.2061,99.0756 49.2061,99.0756 C49.2061,99.0756 91.9961,52.6186 93.9111,47.7926 C95.8251,42.9666 95.3241,29.0066 94.5811,26.9016" id="Fill-1" fill="#B6EAFF"></path>
            <path d="M87.6763,51.6174 C82.3853,53.4024 77.1143,55.3094 71.7303,56.8034 C69.1733,57.5134 66.4953,58.2124 63.9283,57.7464 C58.6903,59.0234 52.8733,58.5424 47.5263,58.5294 C43.1983,58.5194 38.1233,59.1934 33.9273,57.7614 C33.5203,58.0654 32.9893,58.2224 32.3673,58.1054 C22.9813,56.3384 13.2833,53.1794 4.8153,48.3914 C9.1453,55.5814 49.2063,99.0754 49.2063,99.0754 C49.2063,99.0754 84.8443,60.3824 92.5243,49.9564 C90.9073,50.5104 89.2943,51.0714 87.6763,51.6174" id="Fill-3" fill="#6ECCFA"></path>
            <path d="M48.4258,98.5949 C48.2738,98.5949 48.1228,98.5279 48.0218,98.3999 C44.4278,93.8869 32.4118,56.9339 31.9018,55.3629 C31.8138,55.0919 31.9628,54.7999 32.2338,54.7119 C32.5048,54.6239 32.7968,54.7729 32.8838,55.0439 C33.0088,55.4269 45.3508,93.3889 48.8288,97.7569 C49.0068,97.9799 48.9698,98.3049 48.7468,98.4819 C48.6518,98.5579 48.5388,98.5949 48.4258,98.5949" id="Fill-5" fill="#00B1FD"></path>
            <path d="M31.9703,52.9094 C31.7393,52.9094 31.5283,52.7524 31.4703,52.5184 C30.3963,48.2334 31.4113,33.3004 31.4553,32.6664 C31.4753,32.3824 31.7113,32.1594 32.0063,32.1864 C32.2913,32.2064 32.5053,32.4524 32.4863,32.7374 C32.4753,32.8904 31.4373,48.1404 32.4713,52.2674 C32.5413,52.5434 32.3733,52.8244 32.0963,52.8934 C32.0543,52.9044 32.0123,52.9094 31.9703,52.9094" id="Fill-7" fill="#6ECCFA"></path>
            <path d="M31.9707,30.8542 C31.9127,30.8542 31.8537,30.8442 31.7957,30.8232 C31.5277,30.7272 31.3877,30.4312 31.4847,30.1632 C32.1487,28.3142 46.7267,3.4862 47.3467,2.4302 C47.4917,2.1852 47.8067,2.1032 48.0537,2.2472 C48.2997,2.3912 48.3817,2.7082 48.2377,2.9542 C44.0257,10.1242 32.9807,29.0532 32.4567,30.5122 C32.3807,30.7232 32.1827,30.8542 31.9707,30.8542" id="Fill-9" fill="#F8FAFB"></path>
            <path d="M28.1045,31.5036 C21.8835,31.5036 7.3395,30.1036 5.4655,28.7346 C5.2345,28.5666 5.1845,28.2436 5.3535,28.0126 C5.5215,27.7826 5.8445,27.7316 6.0745,27.9006 C7.7535,29.1276 28.1945,31.1736 30.3745,30.3356 C30.6405,30.2326 30.9395,30.3656 31.0425,30.6316 C31.1445,30.8976 31.0115,31.1966 30.7455,31.2986 C30.3785,31.4406 29.4305,31.5036 28.1045,31.5036" id="Fill-11" fill="#F8FAFB"></path>
            <path d="M29.1158,57.4485 C23.2938,57.4485 8.7708,51.6395 7.5308,50.0865 C7.3528,49.8635 7.3898,49.5385 7.6128,49.3605 C7.8358,49.1825 8.1608,49.2195 8.3388,49.4415 C9.7298,51.1845 27.1538,57.6195 30.3578,56.2455 C30.6198,56.1335 30.9238,56.2555 31.0348,56.5175 C31.1468,56.7805 31.0248,57.0835 30.7628,57.1955 C30.3558,57.3695 29.7938,57.4485 29.1158,57.4485" id="Fill-13" fill="#00B1FD"></path>
            <path d="M49.521,98.5949 C49.408,98.5949 49.295,98.5579 49.2,98.4819 C48.977,98.3049 48.94,97.9799 49.118,97.7569 C52.596,93.3889 64.938,55.4269 65.063,55.0439 C65.151,54.7729 65.443,54.6239 65.713,54.7119 C65.985,54.7999 66.133,55.0919 66.045,55.3629 C65.536,56.9339 53.519,93.8869 49.925,98.3999 C49.824,98.5279 49.673,98.5949 49.521,98.5949" id="Fill-15" fill="#00B1FD"></path>
            <path d="M65.9771,52.9094 C65.9351,52.9094 65.8931,52.9044 65.8511,52.8934 C65.5741,52.8244 65.4061,52.5444 65.4761,52.2674 C66.5101,48.1394 65.4721,32.8904 65.4611,32.7374 C65.4421,32.4524 65.6561,32.2064 65.9411,32.1864 C66.2311,32.1574 66.4721,32.3824 66.4921,32.6664 C66.5361,33.3004 67.5511,48.2334 66.4771,52.5184 C66.4191,52.7524 66.2081,52.9094 65.9771,52.9094" id="Fill-17" fill="#6ECCFA"></path>
            <path d="M65.9766,30.8542 C65.7646,30.8542 65.5666,30.7232 65.4906,30.5122 C64.9666,29.0532 53.9206,10.1242 49.7096,2.9542 C49.5646,2.7082 49.6476,2.3912 49.8936,2.2472 C50.1406,2.1032 50.4556,2.1852 50.6006,2.4302 C51.2206,3.4862 65.7986,28.3142 66.4626,30.1632 C66.5596,30.4312 66.4196,30.7272 66.1516,30.8232 C66.0936,30.8442 66.0346,30.8542 65.9766,30.8542" id="Fill-19" fill="#F8FAFB"></path>
            <path d="M69.8423,31.5036 C68.5153,31.5036 67.5683,31.4406 67.2013,31.2986 C66.9353,31.1966 66.8023,30.8976 66.9043,30.6316 C67.0083,30.3656 67.3083,30.2336 67.5723,30.3356 C69.7543,31.1746 90.1933,29.1266 91.8723,27.9006 C92.1023,27.7316 92.4253,27.7826 92.5933,28.0126 C92.7623,28.2436 92.7123,28.5666 92.4813,28.7346 C90.6073,30.1036 76.0643,31.5036 69.8423,31.5036" id="Fill-21" fill="#F8FAFB"></path>
            <path d="M68.8311,57.4485 C68.1521,57.4485 67.5911,57.3695 67.1841,57.1955 C66.9221,57.0835 66.8001,56.7805 66.9121,56.5175 C67.0241,56.2555 67.3281,56.1335 67.5891,56.2455 C70.7941,57.6105 88.2181,51.1845 89.6081,49.4415 C89.7861,49.2195 90.1121,49.1825 90.3341,49.3605 C90.5571,49.5385 90.5941,49.8635 90.4161,50.0865 C89.1761,51.6395 74.6541,57.4485 68.8311,57.4485" id="Fill-23" fill="#00B1FD"></path>
            <path d="M36.4327,31.5681 C35.4727,31.5681 34.7897,31.5531 34.4827,31.5201 C34.1987,31.4891 33.9947,31.2341 34.0257,30.9501 C34.0567,30.6671 34.3077,30.4561 34.5947,30.4931 C36.9247,30.7481 62.9877,29.8311 63.2507,29.8211 C63.5167,29.8181 63.7747,30.0341 63.7847,30.3191 C63.7947,30.6041 63.5717,30.8431 63.2867,30.8541 C62.3477,30.8871 42.9707,31.5681 36.4327,31.5681" id="Fill-25" fill="#F8FAFB"></path>
            <path d="M44.4151,58.4304 C40.3221,58.4304 37.0281,58.3424 36.4631,58.0734 C36.2061,57.9514 36.0961,57.6434 36.2181,57.3854 C36.3391,57.1294 36.6451,57.0194 36.9021,57.1384 C38.0701,57.5974 53.1541,57.3524 62.3941,57.0914 C62.6471,57.0564 62.9161,57.3064 62.9241,57.5924 C62.9331,57.8774 62.7081,58.1154 62.4231,58.1234 C59.8961,58.1954 51.0941,58.4304 44.4151,58.4304" id="Fill-27" fill="#00B1FD"></path>
            <path d="M0.6587,99.9197 C0.6067,99.9197 0.5547,99.9117 0.5027,99.8957 C0.2277,99.8097 0.0757,99.5177 0.1617,99.2427 C0.6267,97.7587 3.8437,94.1697 6.6817,91.0027 C8.4017,89.0837 10.0267,87.2707 10.3627,86.6557 C10.5007,86.4027 10.8187,86.3117 11.0697,86.4477 C11.3217,86.5857 11.4147,86.9017 11.2777,87.1547 C10.9027,87.8407 9.5817,89.3287 7.4577,91.6987 C4.9667,94.4787 1.5537,98.2857 1.1557,99.5547 C1.0857,99.7767 0.8807,99.9197 0.6587,99.9197" id="Fill-29" fill="#B6EAFF"></path>
            <path d="M9.4498,99.4948 C9.4228,99.4948 9.3948,99.4928 9.3668,99.4878 C9.0818,99.4428 8.8888,99.1748 8.9348,98.8908 C9.1828,97.3538 10.8938,94.7508 12.4048,92.4548 C13.3248,91.0548 14.1948,89.7308 14.4388,89.0758 C14.5378,88.8058 14.8398,88.6658 15.1078,88.7688 C15.3778,88.8688 15.5148,89.1688 15.4148,89.4378 C15.1308,90.2048 14.2708,91.5128 13.2748,93.0268 C11.8948,95.1268 10.1768,97.7398 9.9638,99.0568 C9.9228,99.3128 9.7008,99.4948 9.4498,99.4948" id="Fill-31" fill="#B6EAFF"></path>
            <g id="Group-35" transform="translate(0.000000, 81.919700)">
                <mask id="mask-2" fill="white">
                    <use xlink:href="#path-1"></use>
                </mask>
                <g id="Clip-34"></g>
                <path d="M0.5206,9.9672 C0.4486,9.9672 0.3756,9.9522 0.3056,9.9202 C0.0436,9.8012 -0.0724,9.4922 0.0466,9.2302 C0.6906,7.8132 3.0266,5.7542 5.0866,3.9372 C6.3446,2.8272 7.5336,1.7792 7.9406,1.2112 C8.1086,0.9782 8.4346,0.9242 8.6676,1.0912 C8.9016,1.2592 8.9556,1.5842 8.7876,1.8182 C8.3116,2.4832 7.1366,3.5192 5.7766,4.7182 C3.8926,6.3802 1.5476,8.4472 0.9956,9.6622 C0.9086,9.8542 0.7186,9.9672 0.5206,9.9672" id="Fill-33" fill="#B6EAFF" mask="url(#mask-2)"></path>
            </g>
            <path d="M98.8457,99.9197 C98.6237,99.9197 98.4187,99.7767 98.3487,99.5547 C97.9507,98.2867 94.5387,94.4797 92.0477,91.6997 C89.9237,89.3287 88.6017,87.8407 88.2277,87.1547 C88.0897,86.9017 88.1827,86.5857 88.4357,86.4477 C88.6877,86.3117 89.0047,86.4027 89.1427,86.6557 C89.4777,87.2707 91.1027,89.0847 92.8237,91.0037 C95.6607,94.1697 98.8777,97.7587 99.3427,99.2427 C99.4287,99.5177 99.2767,99.8097 99.0017,99.8957 C98.9497,99.9117 98.8967,99.9197 98.8457,99.9197" id="Fill-36" fill="#B6EAFF"></path>
            <path d="M90.0552,99.4948 C89.8042,99.4948 89.5822,99.3128 89.5412,99.0568 C89.3282,97.7398 87.6102,95.1258 86.2292,93.0268 C85.2342,91.5128 84.3742,90.2048 84.0892,89.4388 C83.9892,89.1688 84.1262,88.8688 84.3962,88.7688 C84.6652,88.6678 84.9662,88.8058 85.0662,89.0758 C85.3092,89.7308 86.1792,91.0538 87.1002,92.4538 C88.6102,94.7508 90.3222,97.3528 90.5702,98.8908 C90.6162,99.1748 90.4232,99.4418 90.1382,99.4878 C90.1112,99.4928 90.0822,99.4948 90.0552,99.4948" id="Fill-38" fill="#B6EAFF"></path>
            <g id="Group-42" transform="translate(90.000000, 81.919700)">
                <mask id="mask-4" fill="white">
                    <use xlink:href="#path-3"></use>
                </mask>
                <g id="Clip-41"></g>
                <path d="M8.9839,9.9672 C8.7859,9.9672 8.5959,9.8542 8.5089,9.6612 C7.9579,8.4472 5.6119,6.3802 3.7279,4.7182 C2.3679,3.5192 1.1929,2.4832 0.7169,1.8182 C0.5489,1.5842 0.6029,1.2592 0.8369,1.0912 C1.0699,0.9232 1.3959,0.9772 1.5639,1.2112 C1.9709,1.7792 3.1589,2.8272 4.4179,3.9362 C6.4779,5.7542 8.8139,7.8132 9.4579,9.2312 C9.5769,9.4922 9.4609,9.8012 9.1989,9.9202 C9.1289,9.9522 9.0559,9.9672 8.9839,9.9672" id="Fill-40" fill="#B6EAFF" mask="url(#mask-4)"></path>
            </g>
            <path d="M10.8204,13.5359 C10.6354,13.5359 10.4574,13.4379 10.3624,13.2649 C10.0274,12.6489 8.4024,10.8359 6.6824,8.9169 C3.8434,5.7499 0.6274,2.1609 0.1614,0.6769 C0.0754,0.4029 0.2284,0.1099 0.5034,0.0239 C0.7784,-0.0621 1.0704,0.0909 1.1554,0.3659 C1.5534,1.6339 4.9664,5.4419 7.4584,8.2219 C9.5824,10.5919 10.9034,12.0789 11.2774,12.7649 C11.4154,13.0179 11.3214,13.3339 11.0694,13.4729 C10.9904,13.5149 10.9044,13.5359 10.8204,13.5359" id="Fill-43" fill="#B6EAFF"></path>
            <path d="M14.9268,11.1838 C14.7158,11.1838 14.5158,11.0538 14.4388,10.8438 C14.1948,10.1878 13.3248,8.8648 12.4038,7.4638 C10.8938,5.1678 9.1828,2.5658 8.9348,1.0288 C8.8888,0.7448 9.0818,0.4768 9.3658,0.4318 C9.6558,0.3818 9.9178,0.5788 9.9638,0.8628 C10.1768,2.1798 11.8938,4.7918 13.2748,6.8918 C14.2708,8.4068 15.1308,9.7148 15.4148,10.4818 C15.5148,10.7508 15.3778,11.0508 15.1078,11.1508 C15.0488,11.1738 14.9868,11.1838 14.9268,11.1838" id="Fill-45" fill="#B6EAFF"></path>
            <path d="M8.3648,17.0061 C8.2028,17.0061 8.0428,16.9301 7.9408,16.7891 C7.5328,16.2201 6.3448,15.1731 5.0878,14.0641 C3.0268,12.2471 0.6908,10.1871 0.0468,8.7701 C-0.0722,8.5071 0.0438,8.1991 0.3048,8.0801 C0.5688,7.9591 0.8768,8.0771 0.9948,8.3381 C1.5478,9.5531 3.8928,11.6211 5.7768,13.2821 C7.1368,14.4811 8.3108,15.5171 8.7878,16.1811 C8.9558,16.4151 8.9018,16.7411 8.6678,16.9081 C8.5758,16.9741 8.4698,17.0061 8.3648,17.0061" id="Fill-47" fill="#B6EAFF"></path>
            <path d="M88.6846,13.5359 C88.6006,13.5359 88.5146,13.5149 88.4356,13.4729 C88.1836,13.3349 88.0896,13.0179 88.2276,12.7649 C88.6016,12.0789 89.9236,10.5909 92.0476,8.2209 C94.5386,5.4409 97.9506,1.6339 98.3486,0.3659 C98.4346,0.0909 98.7286,-0.0611 99.0016,0.0239 C99.2766,0.1099 99.4286,0.4029 99.3426,0.6769 C98.8776,2.1609 95.6616,5.7489 92.8236,8.9159 C91.1026,10.8359 89.4776,12.6489 89.1426,13.2649 C89.0476,13.4379 88.8696,13.5359 88.6846,13.5359" id="Fill-49" fill="#B6EAFF"></path>
            <path d="M84.5777,11.1838 C84.5167,11.1838 84.4557,11.1738 84.3957,11.1508 C84.1267,11.0508 83.9897,10.7508 84.0897,10.4808 C84.3737,9.7148 85.2337,8.4068 86.2297,6.8918 C87.6107,4.7928 89.3287,2.1798 89.5417,0.8628 C89.5867,0.5788 89.8537,0.3818 90.1387,0.4318 C90.4227,0.4778 90.6157,0.7448 90.5697,1.0288 C90.3217,2.5658 88.6107,5.1688 87.1007,7.4648 C86.1797,8.8658 85.3097,10.1878 85.0657,10.8448 C84.9887,11.0538 84.7887,11.1838 84.5777,11.1838" id="Fill-51" fill="#B6EAFF"></path>
            <g id="Group-55" transform="translate(90.000000, 7.919700)">
                <mask id="mask-6" fill="white">
                    <use xlink:href="#path-5"></use>
                </mask>
                <g id="Clip-54"></g>
                <path d="M1.1397,9.0864 C1.0347,9.0864 0.9287,9.0544 0.8367,8.9884 C0.6027,8.8214 0.5487,8.4954 0.7167,8.2614 C1.1937,7.5974 2.3677,6.5624 3.7267,5.3624 C5.6117,3.7014 7.9567,1.6334 8.5097,0.4194 C8.6277,0.1574 8.9357,0.0384 9.1987,0.1604 C9.4607,0.2784 9.5767,0.5874 9.4577,0.8494 C8.8137,2.2674 6.4777,4.3274 4.4167,6.1444 C3.1587,7.2534 1.9717,8.3004 1.5637,8.8694 C1.4617,9.0104 1.3017,9.0864 1.1397,9.0864" id="Fill-53" fill="#B6EAFF" mask="url(#mask-6)"></path>
            </g>
        </g>
    </g>
</svg>