<?xml version="1.0" encoding="UTF-8"?>
<svg width="16px" height="16px" viewBox="0 0 16 16" version="1.1" xmlns="http://www.w3.org/2000/svg" xmlns:xlink="http://www.w3.org/1999/xlink">
    <!-- Generator: sketchtool 57.1 (101010) - https://sketch.com -->
    <title>4C3DC495-7187-4512-BD71-D2C9CB729CAA</title>
    <desc>Created with sketchtool.</desc>
    <g id="Page-1" stroke="none" stroke-width="1" fill="none" fill-rule="evenodd">
        <g id="Home" transform="translate(-648.000000, -8672.000000)" fill="#C4A662" fill-rule="nonzero">
            <g id="social" transform="translate(648.000000, 8672.000000)">
                <path d="M14.5347222,0.720839953 L0.631944444,0.720839953 C0.282268519,0.720839953 0,1.00306427 0,1.35080496 L0,15.210035 C0,15.5577757 0.283111111,15.84 0.631944444,15.84 L8.05687037,15.84 L8.05687037,10.170315 L6.16103704,10.170315 L6.16103704,7.80752625 L8.05687037,7.80752625 L8.05687037,5.91763124 C8.05687037,3.96473974 9.29716667,3.00383312 11.0447037,3.00383312 C11.8813981,3.00383312 12.6009722,3.06598967 12.8107778,3.09370813 L12.8107778,5.13479473 L11.5991296,5.13479473 C10.6486852,5.13479473 10.4270833,5.58500972 10.4270833,6.24521304 L10.4270833,7.8066863 L12.7972963,7.8066863 L12.3229167,10.169475 L10.4270833,10.169475 L10.465,15.83916 L14.5347222,15.83916 C14.8835556,15.83916 15.1666667,15.5569357 15.1666667,15.209195 L15.1666667,1.349965 C15.1666667,1.00222432 14.8835556,0.72 14.5347222,0.72" id="facebook-g"></path>
            </g>
        </g>
    </g>
</svg>