<?xml version="1.0" encoding="UTF-8"?>
<svg width="12px" height="20px" viewBox="0 0 12 20" version="1.1" xmlns="http://www.w3.org/2000/svg" xmlns:xlink="http://www.w3.org/1999/xlink">
    <!-- Generator: sketchtool 57.1 (101010) - https://sketch.com -->
    <title>CD0B19BA-1DBF-4231-879B-6E01FDD2BD7F</title>
    <desc>Created with sketchtool.</desc>
    <g id="Page-1" stroke="none" stroke-width="1" fill="none" fill-rule="evenodd">
        <g id="Home" transform="translate(-1225.000000, -38.000000)" fill="#FFFFFF" fill-rule="nonzero">
            <g id="Hero-Area" transform="translate(-1.000000, 0.000000)">
                <g id="Buy-Wine" transform="translate(1148.000000, 38.000000)">
                    <g id="glass-with-wine" transform="translate(78.000000, 0.000000)">
                        <g id="Shape">
                            <path d="M9.66856008,18.75 L6.61123537,18.75 L6.61123537,12.4401953 C7.9464455,12.3010547 9.19681487,11.7407422 10.1737448,10.7763672 C12.4787001,8.49914063 12.6339357,2.67089844 10.4555919,0.206289063 L10.2728785,0 L1.72547763,0 L1.54333751,0.206289062 C-0.634394876,2.67089844 -0.477936284,8.49972656 1.82701903,10.7763672 C2.80272599,11.7407422 4.05313358,12.3010156 5.38834371,12.4401953 L5.38834371,18.75 L2.331019,18.75 C1.99303176,18.75 1.71955406,19.0295313 1.71955406,19.375 C1.71955406,19.7204687 1.99303176,20 2.331019,20 L5.38834371,20 L6.61127359,20 L9.66859829,20 C10.0065855,20 10.2800632,19.7204687 10.2800632,19.375 C10.2800632,19.0295313 10.0065473,18.75 9.66856008,18.75 Z M2.28382163,1.25 L9.71514634,1.25 C11.2844329,3.35023442 11.1064584,8.11707046 9.3234266,9.87730487 C7.53321007,11.645508 4.46812733,11.647969 2.67733755,9.87792987 C0.89426752,8.11707046 0.714535039,3.35023442 2.28382163,1.25 Z M3.10249686,9.42871076 C2.21155419,8.54859361 1.78043317,6.74011712 1.82938859,5 L10.1701529,5 C10.220293,6.74074212 9.78917196,8.54859361 8.89826751,9.42808576 C7.41856052,10.8910935 4.5827771,10.8910935 3.10249686,9.42871076 Z"></path>
                        </g>
                    </g>
                </g>
            </g>
        </g>
    </g>
</svg>