<?xml version="1.0" encoding="UTF-8"?>
<svg width="53px" height="40px" viewBox="0 0 53 40" version="1.1" xmlns="http://www.w3.org/2000/svg" xmlns:xlink="http://www.w3.org/1999/xlink">
    <!-- Generator: sketchtool 57.1 (101010) - https://sketch.com -->
    <title>CA5AFFA9-D6BA-48B9-9E54-AD1D854B897C</title>
    <desc>Created with sketchtool.</desc>
    <g id="Page-1" stroke="none" stroke-width="1" fill="none" fill-rule="evenodd">
        <g id="Home" transform="translate(-674.000000, -989.000000)" fill="#CDA94D">
            <g id="Icon" transform="translate(674.000000, 989.000000)">
                <path d="M16.5299,14.56 C18.7449,16.66 19.8369,17.737 21.3059,20.413 L21.3179,20.434 C22.0469,20.262 22.6489,20.243 23.3939,20.149 C24.4869,20.01 25.1189,19.979 26.2199,20.01 C27.3209,19.979 27.9529,20.01 29.0459,20.149 C29.7939,20.244 30.2159,20.32 30.9499,20.494 L31.0729,20.524 L31.1339,20.413 C32.6029,17.737 33.6949,16.66 35.9099,14.56 C38.5149,12.088 40.3069,10.923 43.6219,9.544 L43.7239,9.502 L43.7239,8.89 L43.5719,8.877 C41.9349,8.738 38.4499,8.477 35.7579,10.013 C35.1659,10.352 34.7689,10.615 34.3369,10.974 C34.6739,10.158 34.8689,9.505 35.0939,8.5 C35.5269,6.575 35.6019,5.41 35.4219,3.445 L35.4019,3.242 L35.2069,3.302 C34.3239,3.576 33.8299,3.802 33.0439,4.291 C31.5209,5.239 30.6849,6.095 29.8699,7.586 C29.5909,6.6 29.3599,5.945 28.9289,4.907 C28.1269,2.976 27.5479,1.915 26.3569,0.196 L26.2199,0 L26.0839,0.196 C24.8919,1.915 24.3129,2.976 23.5109,4.907 C23.0799,5.945 22.8479,6.6 22.5709,7.586 C21.7539,6.095 20.9189,5.239 19.3949,4.291 C18.6099,3.802 18.1159,3.576 17.2319,3.302 L17.0459,3.244 L17.0199,3.438 C16.7429,5.408 17.0989,7.263 17.6199,9.156 C17.8759,10.087 17.9489,10.34 18.2489,10.883 C17.7549,10.553 17.3169,10.315 16.6709,10.008 C13.8809,8.687 10.5169,8.736 8.8669,8.877 L8.7159,8.89 L8.7159,9.502 L8.8169,9.544 C12.1329,10.923 13.9249,12.088 16.5299,14.56 M36.7199,10.755 C37.6229,10.329 38.3449,10.065 39.1169,9.908 C37.5779,10.786 35.9859,11.616 34.4159,13.042 C33.5689,13.814 33.3009,14.554 32.6919,15.237 L32.7929,15.036 C33.2319,14.157 33.4659,13.637 33.8199,12.746 C34.7989,11.802 35.4689,11.344 36.7199,10.755 M29.5999,16.724 C30.5069,13.973 30.7549,12.233 30.6389,9.361 C31.0819,8.185 31.4909,7.54 32.3729,6.613 C32.9389,6.02 33.3569,5.665 33.9509,5.308 C33.8969,5.949 33.7069,6.892 33.5239,7.584 C32.4719,11.53 31.4009,14.318 29.2519,17.713 C29.3659,17.416 29.4729,17.108 29.5999,16.724 M26.2239,2.77 C28.6959,7.078 29.1289,11.429 27.9399,16.145 C27.8459,14.809 27.4169,13.471 26.7059,11.637 L26.6029,11.372 C26.1479,10.453 25.8369,11.372 25.8369,11.372 L25.7339,11.637 C25.0219,13.471 24.5929,14.808 24.4999,16.143 C23.3129,11.429 23.7519,7.078 26.2239,2.77 M20.0669,6.613 C20.9489,7.54 21.3569,8.185 21.8009,9.361 C21.6859,12.233 21.9339,13.973 22.8389,16.724 C22.9659,17.108 23.0739,17.415 23.1879,17.712 C21.0399,14.318 19.9669,11.53 18.9159,7.584 C18.7299,6.892 18.5429,5.949 18.4899,5.308 C19.0829,5.665 19.5009,6.02 20.0669,6.613 M15.7199,10.755 C16.9699,11.344 17.6409,11.802 18.6199,12.746 C18.9739,13.637 19.2069,14.157 19.6469,15.036 L19.7489,15.237 C19.1399,14.554 18.0279,13.223 17.1789,12.45 C15.6099,11.024 14.8609,10.786 13.3239,9.908 C14.0949,10.065 14.8169,10.329 15.7199,10.755" id="Fill-1"></path>
                <path d="M15.9566,20.4159 C16.2636,20.7439 16.5586,21.0849 16.8416,21.4399 L16.9736,21.6009 C18.0256,21.2779 18.8966,20.9539 20.0286,20.7399 C16.7936,17.0359 11.5326,14.0549 4.3636,14.1149 C3.4266,14.2229 1.5816,14.3419 0.6556,15.5919 C0.2966,16.0769 0.0586,16.3949 0.0076,16.9949 C-0.1004,18.2819 0.9496,19.5089 2.2416,19.4439 C4.3636,19.3349 4.8036,17.0979 3.8586,15.9159 C4.0226,15.7149 4.1406,15.6149 4.3636,15.4849 C4.8066,15.2269 5.1466,15.2679 5.6586,15.2679 C8.6466,15.2679 12.8866,17.1409 15.9566,20.4159" id="Fill-3"></path>
                <path d="M52.4923,16.9953 C52.4423,16.3943 52.2033,16.0763 51.8443,15.5923 C50.9173,14.3413 49.0723,14.2233 48.1353,14.1153 C40.9683,14.0543 35.7063,17.0363 32.4703,20.7403 C33.6023,20.9533 34.4753,21.2773 35.5273,21.6013 L35.6583,21.4403 C35.9403,21.0853 36.2363,20.7433 36.5433,20.4163 C39.6143,17.1413 43.8533,15.2683 46.8403,15.2683 C47.3523,15.2683 47.6933,15.2273 48.1353,15.4853 C48.3593,15.6143 48.4773,15.7153 48.6413,15.9163 C47.6963,17.0983 48.1353,19.3353 50.2593,19.4433 C51.5503,19.5083 52.6003,18.2823 52.4923,16.9953" id="Fill-6"></path>
                <path d="M26.4489,21.7803 L26.4489,21.7783 C26.3799,21.7783 26.3139,21.7793 26.2499,21.7803 C26.1859,21.7793 26.1199,21.7783 26.0499,21.7783 L26.0499,21.7803 C18.0389,21.6603 9.6379,25.9083 9.5729,33.4213 C9.6159,37.6033 13.1199,40.1223 16.8009,39.8613 C21.7129,39.4353 24.0109,34.6983 23.6619,30.3803 C23.6809,29.6753 23.5629,29.1603 23.4609,28.3413 C23.3689,27.6053 23.2089,26.8373 22.9669,26.0613 C21.9289,26.1403 20.6489,26.2763 19.6799,26.4673 C21.2109,29.0793 22.3829,34.3983 19.7449,37.0043 C18.3569,38.7183 15.6489,39.0753 14.3379,38.6653 C11.9829,37.9293 10.5299,36.1583 10.7659,33.3003 C11.3989,27.8723 17.3319,24.4873 26.0499,24.3823 L26.0499,24.3903 C26.1119,24.3903 26.1799,24.3883 26.2499,24.3793 C26.3209,24.3883 26.3869,24.3903 26.4489,24.3903 L26.4489,24.3823 C35.1669,24.4873 41.1009,27.8723 41.7349,33.3003 C41.9689,36.1583 40.5169,37.9293 38.1619,38.6653 C36.8499,39.0753 34.1429,38.7183 32.7549,37.0043 C30.1169,34.3983 31.2889,29.0793 32.8209,26.4673 C31.8509,26.2763 30.5709,26.1403 29.5329,26.0613 C29.2909,26.8373 29.1309,27.6053 29.0399,28.3413 C28.9379,29.1603 28.8189,29.6753 28.8369,30.3803 C28.4889,34.6983 30.7869,39.4353 35.6999,39.8613 C39.3799,40.1223 42.8839,37.6033 42.9269,33.4213 C42.8619,25.9073 34.4609,21.6593 26.4489,21.7803" id="Fill-8"></path>
            </g>
        </g>
    </g>
</svg>