<?xml version="1.0" encoding="UTF-8"?>
<svg width="18px" height="18px" viewBox="0 0 18 18" version="1.1" xmlns="http://www.w3.org/2000/svg" xmlns:xlink="http://www.w3.org/1999/xlink">
    <!-- Generator: sketchtool 57.1 (101010) - https://sketch.com -->
    <title>8F999532-ED63-4E04-9744-99D032E0203D</title>
    <desc>Created with sketchtool.</desc>
    <g id="Page-1" stroke="none" stroke-width="1" fill="none" fill-rule="evenodd">
        <g id="Home" transform="translate(-734.000000, -8672.000000)" fill="#C4A662" fill-rule="nonzero">
            <g id="social" transform="translate(648.000000, 8672.000000)">
                <g id="instagram-g" transform="translate(86.666667, 0.000000)">
                    <path d="M8.66666667,1.55664 C10.9806667,1.55664 11.2551111,1.56528 12.1694444,1.60704 C13.0144444,1.6452 13.4723333,1.78704 13.7778333,1.9044 C14.1822778,2.06136 14.4711667,2.24856 14.7745,2.55096 C15.0778333,2.85336 15.2656111,3.14136 15.4230556,3.54456 C15.5415,3.84912 15.6830556,4.30632 15.7213333,5.14872 C15.7632222,6.06312 15.7718889,6.33672 15.7718889,8.64072 C15.7718889,10.94472 15.7632222,11.22336 15.7213333,12.13272 C15.6830556,12.97512 15.5407778,13.43376 15.4230556,13.73832 C15.2656111,14.14152 15.0778333,14.42952 14.7745,14.73192 C14.4711667,15.03432 14.1822778,15.22152 13.7778333,15.37848 C13.4723333,15.49656 13.0137222,15.63768 12.1687222,15.67584 C11.2515,15.7176 10.9770556,15.72624 8.66594444,15.72624 C6.35483333,15.72624 6.07533333,15.7176 5.16316667,15.67584 C4.31816667,15.63768 3.85811111,15.49584 3.55261111,15.37848 C3.17616153,15.2397913 2.83561729,15.0188726 2.55594444,14.73192 C2.25261111,14.42952 2.06483333,14.14152 1.90738889,13.73832 C1.78894444,13.43304 1.64738889,12.97512 1.60911111,12.13272 C1.56722222,11.22192 1.55855556,10.94832 1.55855556,8.64072 C1.55855556,6.33312 1.56722222,6.06096 1.60911111,5.14872 C1.64738889,4.30632 1.78966667,3.85056 1.90738889,3.546 C2.06483333,3.1428 2.25261111,2.8548 2.55594444,2.5524 C2.85927778,2.25 3.14816667,2.0628 3.55261111,1.90584 C3.85883333,1.78776 4.31816667,1.64664 5.16316667,1.60848 C6.07677778,1.56672 6.35122222,1.55808 8.66594444,1.55808 L8.66666667,1.55664 Z M8.66666667,0 C6.31222222,0 6.01755556,0.01008 5.09311111,0.05184 C4.17083333,0.0936 3.54033333,0.23904 2.98927778,0.4536 C2.41872222,0.67464 1.93483333,0.96984 1.45094444,1.45008 C0.967055556,1.93032 0.677444444,2.412 0.455,2.9808 C0.2405,3.52944 0.0938888889,4.158 0.052,5.07744 C0.0101111111,5.99904 0,6.29424 0,8.64 C0,10.98576 0.0101111111,11.28096 0.052,12.20256 C0.0938888889,13.122 0.239777778,13.75056 0.455,14.29992 C0.672953419,14.8771992 1.01398811,15.4004426 1.45455556,15.83352 C1.88764255,16.2724657 2.41132311,16.6122407 2.98927778,16.82928 C3.53816667,17.04384 4.16794444,17.18928 5.09094444,17.23248 C6.01538889,17.27352 6.3115,17.28288 8.66594444,17.28288 C11.0203889,17.28288 11.3128889,17.27352 12.2373333,17.23248 C13.1596111,17.18928 13.7901111,17.04528 14.3411667,16.82928 C14.91966,16.6133028 15.4435579,16.2733868 15.8758889,15.83352 C16.3165015,15.4015985 16.6575749,14.8792784 16.8754444,14.3028 C17.0892222,13.75416 17.2365556,13.1256 17.2777222,12.20616 C17.3196111,11.28456 17.3297222,10.98936 17.3297222,8.6436 C17.3297222,6.29784 17.3188889,6.00264 17.277,5.08104 C17.2351111,4.1616 17.0892222,3.53304 16.874,2.98368 C16.6562624,2.4071732 16.3148866,1.8850132 15.8737222,1.45368 C15.4408535,1.01429499 14.9171254,0.674243522 14.339,0.4572 C13.7901111,0.24408 13.1588889,0.0972 12.2373333,0.05616 C11.3150556,0.00936 11.0189444,0 8.66666667,0 Z" id="Shape"></path>
                    <path d="M8.66666667,4.20336 C6.24006607,4.24694446 4.29579079,6.22047328 4.29579079,8.64 C4.29579079,11.0595267 6.24006607,13.0330555 8.66666667,13.07664 C11.1236667,13.07664 13.117,11.08944 13.117,8.64 C13.117,6.19056 11.1236667,4.20336 8.66666667,4.20336 Z M8.66666667,11.52 C7.07055556,11.52 5.77777778,10.2312 5.77777778,8.64 C5.77777778,7.0488 7.07055556,5.76 8.66666667,5.76 C10.2627778,5.76 11.5555556,7.0488 11.5555556,8.64 C11.5555556,10.2312 10.2627778,11.52 8.66666667,11.52 Z" id="Shape"></path>
                    <ellipse id="Oval" cx="13.2932222" cy="4.02768" rx="1.04" ry="1.0368"></ellipse>
                </g>
            </g>
        </g>
    </g>
</svg>