<?xml version="1.0" encoding="UTF-8"?>
<svg width="223px" height="116px" viewBox="0 0 223 116" version="1.1" xmlns="http://www.w3.org/2000/svg" xmlns:xlink="http://www.w3.org/1999/xlink">
    <!-- Generator: sketchtool 57.1 (101010) - https://sketch.com -->
    <title>66EEC083-1619-4A25-920B-5A4BF4C5E5CC</title>
    <desc>Created with sketchtool.</desc>
    <g id="Page-1" stroke="none" stroke-width="1" fill="none" fill-rule="evenodd">
        <g id="Home" transform="translate(-589.000000, -37.000000)">
            <g id="Hero-Area" transform="translate(-1.000000, 0.000000)">
                <g id="Logo" transform="translate(590.000000, 37.000000)">
                    <g id="Group-83" transform="translate(0.000000, 0.662857)">
                        <path d="M75.8517268,114.752506 L75.6214262,114.752506 L73.4996077,109.504666 L71.6432654,114.752506 L71.3976999,114.752506 L69.7105987,109.796986 C69.559941,109.346243 69.4517594,109.045969 69.3853904,108.897489 C69.3183576,108.749009 69.2314142,108.638975 69.1232326,108.568712 C69.0163785,108.497786 68.8378457,108.458015 68.5882981,108.448735 L68.5882981,108.233306 L71.204566,108.233306 L71.204566,108.448735 C70.8886493,108.467957 70.6868874,108.509055 70.5979529,108.572689 C70.5083547,108.636986 70.4645511,108.727797 70.4645511,108.842472 C70.4645511,108.94654 70.535566,109.21102 70.6802505,109.636575 L71.9266612,113.344597 L73.7445095,108.233306 L74.0338785,108.233306 L76.0793726,113.344597 L77.1459232,109.964689 C77.2866256,109.50798 77.3563131,109.209032 77.3563131,109.068506 C77.3563131,108.655546 77.1147298,108.448735 76.6315631,108.448735 L76.6315631,108.233306 L78.5330363,108.233306 L78.5330363,108.448735 C78.2522953,108.467957 78.0425691,108.562083 77.9051851,108.732437 C77.7684649,108.903455 77.5952417,109.312437 77.3855155,109.960049 L75.8517268,114.752506 Z" id="Fill-1" fill="#FFFFFF"></path>
                        <path d="M75.8517268,114.752506 L75.6214262,114.752506 L73.4996077,109.504666 L71.6432654,114.752506 L71.3976999,114.752506 L69.7105987,109.796986 C69.559941,109.346243 69.4517594,109.045969 69.3853904,108.897489 C69.3183576,108.749009 69.2314142,108.638975 69.1232326,108.568712 C69.0163785,108.497786 68.8378457,108.458015 68.5882981,108.448735 L68.5882981,108.233306 L71.204566,108.233306 L71.204566,108.448735 C70.8886493,108.467957 70.6868874,108.509055 70.5979529,108.572689 C70.5083547,108.636986 70.4645511,108.727797 70.4645511,108.842472 C70.4645511,108.94654 70.535566,109.21102 70.6802505,109.636575 L71.9266612,113.344597 L73.7445095,108.233306 L74.0338785,108.233306 L76.0793726,113.344597 L77.1459232,109.964689 C77.2866256,109.50798 77.3563131,109.209032 77.3563131,109.068506 C77.3563131,108.655546 77.1147298,108.448735 76.6315631,108.448735 L76.6315631,108.233306 L78.5330363,108.233306 L78.5330363,108.448735 C78.2522953,108.467957 78.0425691,108.562083 77.9051851,108.732437 C77.7684649,108.903455 77.5952417,109.312437 77.3855155,109.960049 L75.8517268,114.752506 Z" id="Stroke-3" stroke="#FFFFFF" stroke-width="0.072"></path>
                        <path d="M79.7651775,108.448664 L79.7651775,108.233235 L83.0258889,108.233235 L83.0258889,108.448664 L82.87324,108.448664 C82.5228115,108.448664 82.2931746,108.474515 82.1843293,108.526218 C82.0754841,108.577921 82.0031418,108.674035 81.9659751,108.815224 C81.9294722,108.955749 81.9108888,109.291155 81.9108888,109.820115 L81.9108888,112.942172 C81.9108888,113.443292 81.9241626,113.772069 81.9500466,113.926515 C81.9765942,114.081624 82.0462817,114.196961 82.1611001,114.271863 C82.2745912,114.346766 82.4929454,114.383886 82.8161627,114.383886 L83.0258889,114.383886 L83.0258889,114.599978 L79.7651775,114.599978 L79.7651775,114.383886 L79.9749037,114.383886 C80.2802013,114.383886 80.4919186,114.349418 80.6093918,114.281143 C80.726865,114.211543 80.8005346,114.104824 80.8323918,113.958995 C80.8642489,113.813829 80.8795138,113.474446 80.8795138,112.942172 L80.8795138,109.820115 C80.8795138,109.312367 80.8642489,108.985578 80.8323918,108.838424 C80.8005346,108.691932 80.7308471,108.589189 80.6226656,108.532847 C80.5131567,108.476504 80.2782102,108.448664 79.9178263,108.448664 L79.7651775,108.448664 Z" id="Fill-5" fill="#FFFFFF"></path>
                        <path d="M79.7651775,108.448664 L79.7651775,108.233235 L83.0258889,108.233235 L83.0258889,108.448664 L82.87324,108.448664 C82.5228115,108.448664 82.2931746,108.474515 82.1843293,108.526218 C82.0754841,108.577921 82.0031418,108.674035 81.9659751,108.815224 C81.9294722,108.955749 81.9108888,109.291155 81.9108888,109.820115 L81.9108888,112.942172 C81.9108888,113.443292 81.9241626,113.772069 81.9500466,113.926515 C81.9765942,114.081624 82.0462817,114.196961 82.1611001,114.271863 C82.2745912,114.346766 82.4929454,114.383886 82.8161627,114.383886 L83.0258889,114.383886 L83.0258889,114.599978 L79.7651775,114.599978 L79.7651775,114.383886 L79.9749037,114.383886 C80.2802013,114.383886 80.4919186,114.349418 80.6093918,114.281143 C80.726865,114.211543 80.8005346,114.104824 80.8323918,113.958995 C80.8642489,113.813829 80.8795138,113.474446 80.8795138,112.942172 L80.8795138,109.820115 C80.8795138,109.312367 80.8642489,108.985578 80.8323918,108.838424 C80.8005346,108.691932 80.7308471,108.589189 80.6226656,108.532847 C80.5131567,108.476504 80.2782102,108.448664 79.9178263,108.448664 L79.7651775,108.448664 Z" id="Stroke-7" stroke="#FFFFFF" stroke-width="0.072"></path>
                        <path d="M90.7221718,114.743287 L85.7763503,108.777572 L85.7763503,113.19419 C85.7763503,113.56075 85.796261,113.801367 85.8354187,113.917367 C85.8745764,114.033367 85.9874038,114.139424 86.1725735,114.236201 C86.3590705,114.332978 86.6378205,114.38203 87.0088235,114.38203 L87.0088235,114.598121 L84.3991925,114.598121 L84.3991925,114.38203 C84.7330288,114.360155 84.9872223,114.304475 85.1624365,114.215652 C85.3376508,114.125504 85.4418502,114.02939 85.4743711,113.926647 C85.5068919,113.823241 85.5234842,113.57931 85.5234842,113.19419 L85.5234842,109.819584 C85.5234842,109.331058 85.4989276,109.003607 85.4484871,108.837892 C85.3987104,108.672841 85.3197312,108.566121 85.2108859,108.519058 C85.1033681,108.471995 84.8617847,108.448795 84.4867996,108.448795 L84.4867996,108.233367 L86.5495497,108.233367 L90.6909784,113.21275 L90.6909784,109.405961 C90.6909784,109.12491 90.6584576,108.927378 90.595407,108.815355 C90.531029,108.702007 90.4016093,108.612521 90.2058206,108.546898 C90.0100319,108.481938 89.7744218,108.448795 89.4996539,108.448795 L89.4996539,108.233367 L92.0369427,108.233367 L92.0369427,108.448795 C91.7416004,108.47067 91.5079814,108.522372 91.3380766,108.603241 C91.1675082,108.685435 91.0593266,108.782875 91.0128683,108.896887 C90.9664099,109.010898 90.9438445,109.205115 90.9438445,109.476887 L90.9438445,114.743287 L90.7221718,114.743287 Z" id="Fill-9" fill="#FFFFFF"></path>
                        <path d="M90.7221718,114.743287 L85.7763503,108.777572 L85.7763503,113.19419 C85.7763503,113.56075 85.796261,113.801367 85.8354187,113.917367 C85.8745764,114.033367 85.9874038,114.139424 86.1725735,114.236201 C86.3590705,114.332978 86.6378205,114.38203 87.0088235,114.38203 L87.0088235,114.598121 L84.3991925,114.598121 L84.3991925,114.38203 C84.7330288,114.360155 84.9872223,114.304475 85.1624365,114.215652 C85.3376508,114.125504 85.4418502,114.02939 85.4743711,113.926647 C85.5068919,113.823241 85.5234842,113.57931 85.5234842,113.19419 L85.5234842,109.819584 C85.5234842,109.331058 85.4989276,109.003607 85.4484871,108.837892 C85.3987104,108.672841 85.3197312,108.566121 85.2108859,108.519058 C85.1033681,108.471995 84.8617847,108.448795 84.4867996,108.448795 L84.4867996,108.233367 L86.5495497,108.233367 L90.6909784,113.21275 L90.6909784,109.405961 C90.6909784,109.12491 90.6584576,108.927378 90.595407,108.815355 C90.531029,108.702007 90.4016093,108.612521 90.2058206,108.546898 C90.0100319,108.481938 89.7744218,108.448795 89.4996539,108.448795 L89.4996539,108.233367 L92.0369427,108.233367 L92.0369427,108.448795 C91.7416004,108.47067 91.5079814,108.522372 91.3380766,108.603241 C91.1675082,108.685435 91.0593266,108.782875 91.0128683,108.896887 C90.9664099,109.010898 90.9438445,109.205115 90.9438445,109.476887 L90.9438445,114.743287 L90.7221718,114.743287 Z" id="Stroke-11" stroke="#FFFFFF" stroke-width="0.072"></path>
                        <path d="M99.1209089,112.618637 L99.3697928,112.618637 L99.2164803,114.60058 L93.4005604,114.60058 L93.4005604,114.383826 L93.5459086,114.383826 C93.8943461,114.383826 94.1200009,114.341403 94.2215455,114.257883 C94.3230902,114.173037 94.3881319,114.065654 94.4153432,113.935734 C94.4432182,113.805814 94.4571557,113.474386 94.4571557,112.942112 L94.4571557,109.820055 C94.4571557,109.334843 94.4425545,109.015346 94.4133521,108.861563 C94.3841497,108.708443 94.3164533,108.601723 94.2109265,108.54074 C94.1060634,108.479095 93.8843908,108.448603 93.5459086,108.448603 L93.5459086,108.233175 L98.5720368,108.233175 L98.7326499,109.820055 L98.494385,109.820055 C98.3835487,109.375277 98.2481559,109.06042 98.0868791,108.874157 C97.926266,108.687895 97.7357868,108.570569 97.5147778,108.521517 C97.2931052,108.473129 96.9373671,108.448603 96.4475635,108.448603 L95.4732658,108.448603 L95.4732658,111.12058 L96.2219087,111.12058 C96.5637093,111.12058 96.804629,111.094066 96.9413492,111.040375 C97.0780695,110.987346 97.1683314,110.90714 97.2114713,110.799757 C97.2546112,110.691049 97.2758493,110.480923 97.2758493,110.167392 L97.5147778,110.167392 L97.5147778,112.346203 L97.2758493,112.346203 C97.2758493,111.9929 97.2433284,111.755597 97.1776231,111.634957 C97.1119177,111.514317 97.0150189,111.4361 96.8889177,111.400306 C96.7628165,111.364512 96.5491082,111.345952 96.2464653,111.345952 L95.4732658,111.345952 L95.4732658,112.853289 C95.4732658,113.608283 95.5263611,114.051734 95.6332152,114.184969 C95.7407331,114.318203 96.0287748,114.383826 96.4973403,114.383826 L97.0203284,114.383826 C97.3893403,114.383826 97.6933106,114.341403 97.9309118,114.256557 C98.1691767,114.171049 98.3954951,113.994066 98.6111946,113.726934 C98.826894,113.459803 98.9967987,113.089929 99.1209089,112.618637" id="Fill-13" fill="#FFFFFF"></path>
                        <path d="M99.1209089,112.618637 L99.3697928,112.618637 L99.2164803,114.60058 L93.4005604,114.60058 L93.4005604,114.383826 L93.5459086,114.383826 C93.8943461,114.383826 94.1200009,114.341403 94.2215455,114.257883 C94.3230902,114.173037 94.3881319,114.065654 94.4153432,113.935734 C94.4432182,113.805814 94.4571557,113.474386 94.4571557,112.942112 L94.4571557,109.820055 C94.4571557,109.334843 94.4425545,109.015346 94.4133521,108.861563 C94.3841497,108.708443 94.3164533,108.601723 94.2109265,108.54074 C94.1060634,108.479095 93.8843908,108.448603 93.5459086,108.448603 L93.5459086,108.233175 L98.5720368,108.233175 L98.7326499,109.820055 L98.494385,109.820055 C98.3835487,109.375277 98.2481559,109.06042 98.0868791,108.874157 C97.926266,108.687895 97.7357868,108.570569 97.5147778,108.521517 C97.2931052,108.473129 96.9373671,108.448603 96.4475635,108.448603 L95.4732658,108.448603 L95.4732658,111.12058 L96.2219087,111.12058 C96.5637093,111.12058 96.804629,111.094066 96.9413492,111.040375 C97.0780695,110.987346 97.1683314,110.90714 97.2114713,110.799757 C97.2546112,110.691049 97.2758493,110.480923 97.2758493,110.167392 L97.5147778,110.167392 L97.5147778,112.346203 L97.2758493,112.346203 C97.2758493,111.9929 97.2433284,111.755597 97.1776231,111.634957 C97.1119177,111.514317 97.0150189,111.4361 96.8889177,111.400306 C96.7628165,111.364512 96.5491082,111.345952 96.2464653,111.345952 L95.4732658,111.345952 L95.4732658,112.853289 C95.4732658,113.608283 95.5263611,114.051734 95.6332152,114.184969 C95.7407331,114.318203 96.0287748,114.383826 96.4973403,114.383826 L97.0203284,114.383826 C97.3893403,114.383826 97.6933106,114.341403 97.9309118,114.256557 C98.1691767,114.171049 98.3954951,113.994066 98.6111946,113.726934 C98.826894,113.459803 98.9967987,113.089929 99.1209089,112.618637 Z" id="Stroke-15" stroke="#FFFFFF" stroke-width="0.072"></path>
                        <path d="M110.311794,112.618637 L110.560014,112.618637 L110.407365,114.60058 L104.591446,114.60058 L104.591446,114.383826 L104.73613,114.383826 C105.085231,114.383826 105.310886,114.341403 105.412431,114.257883 C105.513975,114.173037 105.579017,114.065654 105.606228,113.935734 C105.634103,113.805814 105.648041,113.474386 105.648041,112.942112 L105.648041,109.820055 C105.648041,109.334843 105.632776,109.015346 105.603574,108.861563 C105.574371,108.708443 105.507338,108.601723 105.401812,108.54074 C105.296285,108.479095 105.074612,108.448603 104.73613,108.448603 L104.73613,108.233175 L109.762258,108.233175 L109.923535,109.820055 L109.684606,109.820055 C109.57377,109.375277 109.438377,109.06042 109.277764,108.874157 C109.117151,108.687895 108.926008,108.570569 108.704999,108.521517 C108.48399,108.473129 108.128252,108.448603 107.637785,108.448603 L106.663487,108.448603 L106.663487,111.12058 L107.41213,111.12058 C107.754594,111.12058 107.99485,111.094066 108.132234,111.040375 C108.268955,110.987346 108.359216,110.90714 108.401693,110.799757 C108.445496,110.691049 108.466734,110.480923 108.466734,110.167392 L108.704999,110.167392 L108.704999,112.346203 L108.466734,112.346203 C108.466734,111.9929 108.434213,111.755597 108.367844,111.634957 C108.302803,111.514317 108.205904,111.4361 108.079139,111.400306 C107.953038,111.364512 107.739329,111.345952 107.43735,111.345952 L106.663487,111.345952 L106.663487,112.853289 C106.663487,113.608283 106.717246,114.051734 106.823437,114.184969 C106.930954,114.318203 107.218996,114.383826 107.688225,114.383826 L108.211213,114.383826 C108.579562,114.383826 108.883532,114.341403 109.121133,114.256557 C109.359398,114.171049 109.58638,113.994066 109.801416,113.726934 C110.017115,113.459803 110.187684,113.089929 110.311794,112.618637" id="Fill-17" fill="#FFFFFF"></path>
                        <path d="M110.311794,112.618637 L110.560014,112.618637 L110.407365,114.60058 L104.591446,114.60058 L104.591446,114.383826 L104.73613,114.383826 C105.085231,114.383826 105.310886,114.341403 105.412431,114.257883 C105.513975,114.173037 105.579017,114.065654 105.606228,113.935734 C105.634103,113.805814 105.648041,113.474386 105.648041,112.942112 L105.648041,109.820055 C105.648041,109.334843 105.632776,109.015346 105.603574,108.861563 C105.574371,108.708443 105.507338,108.601723 105.401812,108.54074 C105.296285,108.479095 105.074612,108.448603 104.73613,108.448603 L104.73613,108.233175 L109.762258,108.233175 L109.923535,109.820055 L109.684606,109.820055 C109.57377,109.375277 109.438377,109.06042 109.277764,108.874157 C109.117151,108.687895 108.926008,108.570569 108.704999,108.521517 C108.48399,108.473129 108.128252,108.448603 107.637785,108.448603 L106.663487,108.448603 L106.663487,111.12058 L107.41213,111.12058 C107.754594,111.12058 107.99485,111.094066 108.132234,111.040375 C108.268955,110.987346 108.359216,110.90714 108.401693,110.799757 C108.445496,110.691049 108.466734,110.480923 108.466734,110.167392 L108.704999,110.167392 L108.704999,112.346203 L108.466734,112.346203 C108.466734,111.9929 108.434213,111.755597 108.367844,111.634957 C108.302803,111.514317 108.205904,111.4361 108.079139,111.400306 C107.953038,111.364512 107.739329,111.345952 107.43735,111.345952 L106.663487,111.345952 L106.663487,112.853289 C106.663487,113.608283 106.717246,114.051734 106.823437,114.184969 C106.930954,114.318203 107.218996,114.383826 107.688225,114.383826 L108.211213,114.383826 C108.579562,114.383826 108.883532,114.341403 109.121133,114.256557 C109.359398,114.171049 109.58638,113.994066 109.801416,113.726934 C110.017115,113.459803 110.187684,113.089929 110.311794,112.618637 Z" id="Stroke-19" stroke="#FFFFFF" stroke-width="0.072"></path>
                        <path d="M112.406994,114.532769 L112.406994,112.486529 L112.667825,112.486529 C112.962503,113.822849 113.662033,114.490347 114.765087,114.490347 C115.261527,114.490347 115.645804,114.362415 115.918581,114.107878 C116.190694,113.851352 116.326087,113.565661 116.326087,113.248815 C116.326087,112.928655 116.206622,112.661524 115.967694,112.444769 C115.728101,112.231992 115.291393,112.003307 114.655578,111.758712 C114.090113,111.540632 113.66336,111.347741 113.375319,111.184678 C113.087277,111.019626 112.86295,110.806186 112.701673,110.543695 C112.540396,110.280541 112.46009,110.000815 112.46009,109.703192 C112.46009,109.250461 112.633313,108.871969 112.982414,108.570369 C113.330851,108.268769 113.772869,108.117638 114.30714,108.117638 C114.605137,108.117638 114.886542,108.161386 115.150691,108.248883 C115.414176,108.336381 115.684962,108.518003 115.962384,108.793089 C116.122334,108.620746 116.212595,108.435146 116.23317,108.234963 L116.462143,108.234963 L116.462143,109.900724 L116.23317,109.900724 C116.101095,109.417501 115.86814,109.037021 115.532976,108.759284 C115.198476,108.480883 114.810218,108.342346 114.369527,108.342346 C113.950075,108.342346 113.642122,108.445089 113.44567,108.649912 C113.249218,108.854735 113.151655,109.079444 113.151655,109.322712 C113.151655,109.617684 113.274438,109.865592 113.520003,110.069089 C113.762914,110.275238 114.20095,110.506575 114.836765,110.761112 C115.445369,111.003718 115.886723,111.199924 116.162819,111.347741 C116.43825,111.497546 116.659923,111.702369 116.826509,111.965524 C116.993095,112.228015 117.07672,112.531604 117.07672,112.876289 C117.07672,113.420495 116.875622,113.862621 116.472762,114.203992 C116.069238,114.545364 115.531649,114.715718 114.858667,114.715718 C114.085468,114.715718 113.439697,114.448587 112.922682,113.912998 C112.808527,114.060152 112.722911,114.266964 112.667825,114.532769 L112.406994,114.532769 Z" id="Fill-21" fill="#FFFFFF"></path>
                        <path d="M112.406994,114.532769 L112.406994,112.486529 L112.667825,112.486529 C112.962503,113.822849 113.662033,114.490347 114.765087,114.490347 C115.261527,114.490347 115.645804,114.362415 115.918581,114.107878 C116.190694,113.851352 116.326087,113.565661 116.326087,113.248815 C116.326087,112.928655 116.206622,112.661524 115.967694,112.444769 C115.728101,112.231992 115.291393,112.003307 114.655578,111.758712 C114.090113,111.540632 113.66336,111.347741 113.375319,111.184678 C113.087277,111.019626 112.86295,110.806186 112.701673,110.543695 C112.540396,110.280541 112.46009,110.000815 112.46009,109.703192 C112.46009,109.250461 112.633313,108.871969 112.982414,108.570369 C113.330851,108.268769 113.772869,108.117638 114.30714,108.117638 C114.605137,108.117638 114.886542,108.161386 115.150691,108.248883 C115.414176,108.336381 115.684962,108.518003 115.962384,108.793089 C116.122334,108.620746 116.212595,108.435146 116.23317,108.234963 L116.462143,108.234963 L116.462143,109.900724 L116.23317,109.900724 C116.101095,109.417501 115.86814,109.037021 115.532976,108.759284 C115.198476,108.480883 114.810218,108.342346 114.369527,108.342346 C113.950075,108.342346 113.642122,108.445089 113.44567,108.649912 C113.249218,108.854735 113.151655,109.079444 113.151655,109.322712 C113.151655,109.617684 113.274438,109.865592 113.520003,110.069089 C113.762914,110.275238 114.20095,110.506575 114.836765,110.761112 C115.445369,111.003718 115.886723,111.199924 116.162819,111.347741 C116.43825,111.497546 116.659923,111.702369 116.826509,111.965524 C116.993095,112.228015 117.07672,112.531604 117.07672,112.876289 C117.07672,113.420495 116.875622,113.862621 116.472762,114.203992 C116.069238,114.545364 115.531649,114.715718 114.858667,114.715718 C114.085468,114.715718 113.439697,114.448587 112.922682,113.912998 C112.808527,114.060152 112.722911,114.266964 112.667825,114.532769 L112.406994,114.532769 Z" id="Stroke-23" stroke="#FFFFFF" stroke-width="0.072"></path>
                        <path d="M118.986163,109.763712 L118.748562,109.763712 L118.785065,108.233175 L125.589884,108.233175 L125.626386,109.763712 L125.40405,109.763712 C125.324407,109.344123 125.216226,109.04186 125.078178,108.855597 C124.940794,108.669335 124.792791,108.553997 124.634169,108.511575 C124.475547,108.469815 124.205425,108.448603 123.823139,108.448603 L122.696193,108.448603 L122.696193,112.942112 C122.696193,113.44058 122.709467,113.767369 122.735351,113.924466 C122.760571,114.080237 122.830922,114.1969 122.944413,114.271803 C123.058568,114.346706 123.272276,114.383826 123.584875,114.383826 L123.926675,114.383826 L123.926675,114.60058 L120.427699,114.60058 L120.427699,114.383826 L120.790074,114.383826 C121.089398,114.383826 121.297134,114.35002 121.411952,114.281083 C121.528098,114.211483 121.602431,114.104763 121.634952,113.959597 C121.667473,113.813769 121.683401,113.474386 121.683401,112.942112 L121.683401,108.448603 L120.644726,108.448603 C120.193416,108.448603 119.890773,108.467826 119.73547,108.507597 C119.580166,108.546706 119.434818,108.664695 119.298762,108.861563 C119.162705,109.059095 119.058506,109.360032 118.986163,109.763712" id="Fill-25" fill="#FFFFFF"></path>
                        <path d="M118.986163,109.763712 L118.748562,109.763712 L118.785065,108.233175 L125.589884,108.233175 L125.626386,109.763712 L125.40405,109.763712 C125.324407,109.344123 125.216226,109.04186 125.078178,108.855597 C124.940794,108.669335 124.792791,108.553997 124.634169,108.511575 C124.475547,108.469815 124.205425,108.448603 123.823139,108.448603 L122.696193,108.448603 L122.696193,112.942112 C122.696193,113.44058 122.709467,113.767369 122.735351,113.924466 C122.760571,114.080237 122.830922,114.1969 122.944413,114.271803 C123.058568,114.346706 123.272276,114.383826 123.584875,114.383826 L123.926675,114.383826 L123.926675,114.60058 L120.427699,114.60058 L120.427699,114.383826 L120.790074,114.383826 C121.089398,114.383826 121.297134,114.35002 121.411952,114.281083 C121.528098,114.211483 121.602431,114.104763 121.634952,113.959597 C121.667473,113.813769 121.683401,113.474386 121.683401,112.942112 L121.683401,108.448603 L120.644726,108.448603 C120.193416,108.448603 119.890773,108.467826 119.73547,108.507597 C119.580166,108.546706 119.434818,108.664695 119.298762,108.861563 C119.162705,109.059095 119.058506,109.360032 118.986163,109.763712 Z" id="Stroke-27" stroke="#FFFFFF" stroke-width="0.072"></path>
                        <path d="M130.484732,112.253133 L127.823997,112.253133 L127.639491,112.656813 C127.37136,113.242116 127.237294,113.623259 127.237294,113.80223 C127.237294,113.993133 127.308973,114.138299 127.451666,114.236402 C127.59436,114.335167 127.777538,114.384219 128.001866,114.384219 L128.001866,114.60031 L125.92186,114.60031 L125.92186,114.384219 C126.231139,114.34047 126.460776,114.241705 126.612761,114.086596 C126.764083,113.93215 126.946598,113.606025 127.160306,113.109545 C127.18088,113.062482 127.263842,112.880196 127.409854,112.56335 L129.443401,108.144744 L129.642508,108.144744 L131.985336,113.201019 L132.305898,113.867853 C132.378241,114.018322 132.474476,114.13631 132.595931,114.222482 C132.716723,114.308653 132.899238,114.362345 133.141485,114.384219 L133.141485,114.60031 L130.395797,114.60031 L130.395797,114.384219 C130.732952,114.384219 130.961925,114.361682 131.080062,114.315945 C131.198863,114.270207 131.257267,114.180722 131.257267,114.046162 C131.257267,113.977887 131.178952,113.772402 131.02033,113.43103 L130.484732,112.253133 Z M130.388496,112.042344 L129.15536,109.327944 L127.919568,112.042344 L130.388496,112.042344 Z" id="Fill-29" fill="#FFFFFF"></path>
                        <path d="M130.484732,112.253133 L127.823997,112.253133 L127.639491,112.656813 C127.37136,113.242116 127.237294,113.623259 127.237294,113.80223 C127.237294,113.993133 127.308973,114.138299 127.451666,114.236402 C127.59436,114.335167 127.777538,114.384219 128.001866,114.384219 L128.001866,114.60031 L125.92186,114.60031 L125.92186,114.384219 C126.231139,114.34047 126.460776,114.241705 126.612761,114.086596 C126.764083,113.93215 126.946598,113.606025 127.160306,113.109545 C127.18088,113.062482 127.263842,112.880196 127.409854,112.56335 L129.443401,108.144744 L129.642508,108.144744 L131.985336,113.201019 L132.305898,113.867853 C132.378241,114.018322 132.474476,114.13631 132.595931,114.222482 C132.716723,114.308653 132.899238,114.362345 133.141485,114.384219 L133.141485,114.60031 L130.395797,114.60031 L130.395797,114.384219 C130.732952,114.384219 130.961925,114.361682 131.080062,114.315945 C131.198863,114.270207 131.257267,114.180722 131.257267,114.046162 C131.257267,113.977887 131.178952,113.772402 131.02033,113.43103 L130.484732,112.253133 Z M130.388496,112.042344 L129.15536,109.327944 L127.919568,112.042344 L130.388496,112.042344 Z" id="Stroke-31" stroke="#FFFFFF" stroke-width="0.072"></path>
                        <path d="M133.735225,109.763712 L133.49696,109.763712 L133.533463,108.233175 L140.338282,108.233175 L140.374785,109.763712 L140.152448,109.763712 C140.073469,109.344123 139.964624,109.04186 139.82724,108.855597 C139.689192,108.669335 139.541189,108.553997 139.382567,108.511575 C139.223945,108.469815 138.953823,108.448603 138.570874,108.448603 L137.444591,108.448603 L137.444591,112.942112 C137.444591,113.44058 137.457201,113.767369 137.483749,113.924466 C137.509633,114.080237 137.57932,114.1969 137.692811,114.271803 C137.806303,114.346706 138.020011,114.383826 138.333273,114.383826 L138.675073,114.383826 L138.675073,114.60058 L135.176097,114.60058 L135.176097,114.383826 L135.538472,114.383826 C135.837797,114.383826 136.044868,114.35002 136.161014,114.281083 C136.276496,114.211483 136.350166,114.104763 136.38335,113.959597 C136.415871,113.813769 136.432463,113.474386 136.432463,112.942112 L136.432463,108.448603 L135.393788,108.448603 C134.941814,108.448603 134.639172,108.467826 134.483868,108.507597 C134.329228,108.546706 134.183216,108.664695 134.047823,108.861563 C133.911767,109.059095 133.806904,109.360032 133.735225,109.763712" id="Fill-33" fill="#FFFFFF"></path>
                        <path d="M133.735225,109.763712 L133.49696,109.763712 L133.533463,108.233175 L140.338282,108.233175 L140.374785,109.763712 L140.152448,109.763712 C140.073469,109.344123 139.964624,109.04186 139.82724,108.855597 C139.689192,108.669335 139.541189,108.553997 139.382567,108.511575 C139.223945,108.469815 138.953823,108.448603 138.570874,108.448603 L137.444591,108.448603 L137.444591,112.942112 C137.444591,113.44058 137.457201,113.767369 137.483749,113.924466 C137.509633,114.080237 137.57932,114.1969 137.692811,114.271803 C137.806303,114.346706 138.020011,114.383826 138.333273,114.383826 L138.675073,114.383826 L138.675073,114.60058 L135.176097,114.60058 L135.176097,114.383826 L135.538472,114.383826 C135.837797,114.383826 136.044868,114.35002 136.161014,114.281083 C136.276496,114.211483 136.350166,114.104763 136.38335,113.959597 C136.415871,113.813769 136.432463,113.474386 136.432463,112.942112 L136.432463,108.448603 L135.393788,108.448603 C134.941814,108.448603 134.639172,108.467826 134.483868,108.507597 C134.329228,108.546706 134.183216,108.664695 134.047823,108.861563 C133.911767,109.059095 133.806904,109.360032 133.735225,109.763712 Z" id="Stroke-35" stroke="#FFFFFF" stroke-width="0.072"></path>
                        <path d="M147.590092,112.618637 L147.838312,112.618637 L147.685663,114.60058 L141.869743,114.60058 L141.869743,114.383826 L142.014428,114.383826 C142.363529,114.383826 142.589184,114.341403 142.690729,114.257883 C142.792273,114.173037 142.857315,114.065654 142.884526,113.935734 C142.912401,113.805814 142.926339,113.474386 142.926339,112.942112 L142.926339,109.820055 C142.926339,109.334843 142.911074,109.015346 142.881871,108.861563 C142.852669,108.708443 142.785636,108.601723 142.680109,108.54074 C142.574583,108.479095 142.35291,108.448603 142.014428,108.448603 L142.014428,108.233175 L147.040556,108.233175 L147.201833,109.820055 L146.962904,109.820055 C146.852068,109.375277 146.716675,109.06042 146.556062,108.874157 C146.395449,108.687895 146.204306,108.570569 145.983297,108.521517 C145.762288,108.473129 145.40655,108.448603 144.916083,108.448603 L143.941785,108.448603 L143.941785,111.12058 L144.690428,111.12058 C145.032892,111.12058 145.273148,111.094066 145.410532,111.040375 C145.547252,110.987346 145.637514,110.90714 145.67999,110.799757 C145.723794,110.691049 145.745032,110.480923 145.745032,110.167392 L145.983297,110.167392 L145.983297,112.346203 L145.745032,112.346203 C145.745032,111.9929 145.712511,111.755597 145.646142,111.634957 C145.581101,111.514317 145.484202,111.4361 145.357437,111.400306 C145.231336,111.364512 145.017627,111.345952 144.715648,111.345952 L143.941785,111.345952 L143.941785,112.853289 C143.941785,113.608283 143.995544,114.051734 144.101734,114.184969 C144.209252,114.318203 144.497294,114.383826 144.966523,114.383826 L145.489511,114.383826 C145.857859,114.383826 146.16183,114.341403 146.399431,114.256557 C146.637696,114.171049 146.864678,113.994066 147.079714,113.726934 C147.295413,113.459803 147.465982,113.089929 147.590092,112.618637" id="Fill-37" fill="#FFFFFF"></path>
                        <path d="M147.590092,112.618637 L147.838312,112.618637 L147.685663,114.60058 L141.869743,114.60058 L141.869743,114.383826 L142.014428,114.383826 C142.363529,114.383826 142.589184,114.341403 142.690729,114.257883 C142.792273,114.173037 142.857315,114.065654 142.884526,113.935734 C142.912401,113.805814 142.926339,113.474386 142.926339,112.942112 L142.926339,109.820055 C142.926339,109.334843 142.911074,109.015346 142.881871,108.861563 C142.852669,108.708443 142.785636,108.601723 142.680109,108.54074 C142.574583,108.479095 142.35291,108.448603 142.014428,108.448603 L142.014428,108.233175 L147.040556,108.233175 L147.201833,109.820055 L146.962904,109.820055 C146.852068,109.375277 146.716675,109.06042 146.556062,108.874157 C146.395449,108.687895 146.204306,108.570569 145.983297,108.521517 C145.762288,108.473129 145.40655,108.448603 144.916083,108.448603 L143.941785,108.448603 L143.941785,111.12058 L144.690428,111.12058 C145.032892,111.12058 145.273148,111.094066 145.410532,111.040375 C145.547252,110.987346 145.637514,110.90714 145.67999,110.799757 C145.723794,110.691049 145.745032,110.480923 145.745032,110.167392 L145.983297,110.167392 L145.983297,112.346203 L145.745032,112.346203 C145.745032,111.9929 145.712511,111.755597 145.646142,111.634957 C145.581101,111.514317 145.484202,111.4361 145.357437,111.400306 C145.231336,111.364512 145.017627,111.345952 144.715648,111.345952 L143.941785,111.345952 L143.941785,112.853289 C143.941785,113.608283 143.995544,114.051734 144.101734,114.184969 C144.209252,114.318203 144.497294,114.383826 144.966523,114.383826 L145.489511,114.383826 C145.857859,114.383826 146.16183,114.341403 146.399431,114.256557 C146.637696,114.171049 146.864678,113.994066 147.079714,113.726934 C147.295413,113.459803 147.465982,113.089929 147.590092,112.618637 Z" id="Stroke-39" stroke="#FFFFFF" stroke-width="0.072"></path>
                        <path d="M83.6448447,13.5771039 C83.7974935,13.7196181 83.9295679,13.901241 84.0417316,14.1226353 C84.1532316,14.3446924 84.2275649,14.5912753 84.2653953,14.8637095 C84.3025619,15.1361438 84.2806601,15.413881 84.1976988,15.6989095 C84.1160649,15.9826124 83.9554518,16.2530581 83.7185143,16.5056067 C83.4842316,16.7574924 83.1935351,16.9536981 82.8490797,17.0955495 C82.503297,17.2374009 82.1382672,17.2904295 81.7519993,17.2526466 C81.8615083,17.4939266 81.9822999,17.6960981 82.1157017,17.8591609 L81.8157136,18.1799838 L80.1319308,16.6116638 L80.4319189,16.2901781 C80.7279249,16.4578809 81.0305678,16.5891267 81.3391839,16.6852409 C81.6477999,16.7813552 81.9663714,16.8065438 82.2948982,16.7621324 C82.6240887,16.7183838 82.9154488,16.5606238 83.1689786,16.2875267 C83.3913149,16.0502238 83.5008238,15.7970124 83.4994964,15.5278924 C83.4975054,15.2581095 83.3939696,15.0280981 83.1882256,14.8358695 C83.0720797,14.7278238 82.949297,14.6549095 82.8212047,14.6184524 C82.6931125,14.5813324 82.5550649,14.5727153 82.4077256,14.592601 C82.2603863,14.6118238 82.0805261,14.657561 81.8654904,14.7304753 C81.6511184,14.8027267 81.4135172,14.8908867 81.1520231,14.9956181 C80.7445172,15.1513895 80.3834695,15.2547953 80.0688802,15.3058352 C79.7542909,15.3562124 79.48616,15.3661552 79.2638237,15.3356638 C79.0414873,15.3045095 78.8529992,15.2508181 78.6976957,15.1745895 C78.5437195,15.0970353 78.4043445,15.0015838 78.280898,14.8875724 C78.0612165,14.6814238 77.8972849,14.4222467 77.7897671,14.1093781 C77.6815855,13.7958467 77.6630022,13.465081 77.7313623,13.1177439 C77.7997224,12.7704067 77.9696272,12.4522353 78.2384218,12.1638925 C78.4454933,11.9424982 78.6937135,11.7800982 78.9830826,11.6753668 C79.2731153,11.5712982 79.5757582,11.5288753 79.8916749,11.5494239 C79.8299517,11.4128753 79.7230975,11.2418582 79.5717761,11.0350468 L79.8784011,10.7075953 L81.2495856,11.9855839 L80.9429606,12.3136982 C79.9786183,11.8490353 79.226657,11.906041 78.6870766,12.4827267 C78.4912879,12.6928524 78.3917343,12.9149096 78.3884159,13.1482353 C78.3844338,13.3822239 78.4733683,13.5837324 78.6552195,13.752761 C78.7972492,13.8859953 78.958526,13.961561 79.1377225,13.9807838 C79.3169189,13.9993438 79.5047433,13.980121 79.6998683,13.9204638 C79.895657,13.8608067 80.1982999,13.752761 80.6084606,13.5943381 C81.1062285,13.4060867 81.5097523,13.2715267 81.8190321,13.191321 C82.1289755,13.1131039 82.4429012,13.0932182 82.7608089,13.135641 C83.0793803,13.1780639 83.3740589,13.3245553 83.6448447,13.5771039" id="Fill-41" fill="#FFFFFF"></path>
                        <path d="M88.8179772,11.9892961 L86.4227183,13.7776847 L86.1744981,13.4455933 C86.3742689,13.2971133 86.5103255,13.1645419 86.5820041,13.0485418 C86.65501,12.9325418 86.6769118,12.8231704 86.6483731,12.7204275 C86.6211618,12.6176847 86.5514743,12.4930675 86.4419654,12.3459132 L84.1396232,9.27158167 C83.9810012,9.06013023 83.8276887,8.94280451 83.6776946,8.91894166 C83.5283643,8.89574165 83.3047006,8.99517023 83.008031,9.21656453 L82.759147,8.88513594 L85.1537422,7.09674728 L85.4026261,7.42883873 C85.2028553,7.57731874 85.0674624,7.71055303 84.9957839,7.82787875 C84.924769,7.94520447 84.9022035,8.05523876 84.9294148,8.15533019 C84.9566261,8.2574102 85.0256499,8.38136449 85.1351589,8.52785592 L87.437501,11.6028504 C87.5417005,11.7427132 87.6385993,11.8408161 87.7281975,11.8971589 C87.8177957,11.9535018 87.9279683,11.9674218 88.059379,11.9362675 C88.190126,11.9064389 88.3600308,11.8136389 88.5690933,11.6578675 L88.8179772,11.9892961 Z" id="Fill-43" fill="#FFFFFF"></path>
                        <path d="M93.1728532,3.17873132 C92.9206508,3.30268561 92.7534008,3.41802274 92.6697758,3.52474274 C92.5868145,3.63079988 92.5582758,3.74149702 92.5828323,3.85683416 C92.6073889,3.9721713 92.6770764,4.14517701 92.7912311,4.377177 L94.9376061,8.72021687 L94.579877,8.89719972 L89.0181508,6.34321123 L90.510127,9.3611997 C90.6229544,9.58988541 90.7191895,9.74963398 90.797505,9.83978255 C90.8758204,9.92993111 90.9846657,9.97566826 91.1240407,9.97566826 C91.262752,9.97566826 91.4572133,9.91402254 91.7067609,9.79139398 L91.8906032,10.1632568 L89.9260794,11.1316911 L89.7429008,10.7598282 C89.9765199,10.6438282 90.1324871,10.5331311 90.2094752,10.4264111 C90.2877907,10.3183654 90.3136746,10.2076682 90.287127,10.0923311 C90.2599157,9.97633111 90.1908919,9.8033254 90.0774008,9.5746397 L88.6955972,6.7780455 C88.5834336,6.55201122 88.4931717,6.38563408 88.4261389,6.27825123 C88.3584425,6.17086837 88.2821181,6.0853598 88.1958383,6.02305124 C88.1095586,5.95875409 88.0033681,5.92693695 87.8772669,5.92295981 C87.7511657,5.91964552 87.5958621,5.95278838 87.4093651,6.02039981 L87.2255229,5.6478741 L88.7652847,4.88956556 L93.5942966,7.09157692 L92.3591686,4.59061699 C92.257624,4.38579414 92.1660347,4.23598843 92.0850645,4.14053701 C92.0034305,4.04442273 91.8945853,3.99271987 91.7578651,3.98675416 C91.6204811,3.98078844 91.4353115,4.03580558 91.2010288,4.15114272 L91.0178502,3.77927988 L92.9896746,2.80753134 L93.1728532,3.17873132 Z" id="Fill-45" fill="#FFFFFF"></path>
                        <path d="M102.583456,6.4389942 L102.185906,6.53444563 C102.066441,6.29714277 101.91512,6.09563421 101.731278,5.92991992 C101.573319,6.2116342 101.376203,6.46948563 101.140593,6.70214848 C100.904319,6.93481133 100.551236,7.1084799 100.080679,7.22116562 C99.5649918,7.34445704 99.0559412,7.32987418 98.5528638,7.17609133 C98.0484591,7.02230848 97.6104233,6.74324562 97.2361019,6.34089134 C96.8617805,5.93787421 96.6042685,5.44404565 96.4635662,4.86006851 C96.3633489,4.44511995 96.339456,4.03215996 96.3912239,3.62118853 C96.4423281,3.21087997 96.5657745,2.83039998 96.7595721,2.48107427 C96.9540334,2.1310857 97.2142001,1.83081142 97.5394084,1.58025143 C97.8646168,1.32836572 98.2442477,1.15072001 98.6783013,1.04598858 C99.3937597,0.874971439 100.043513,0.974400009 100.628224,1.34758857 C100.660081,1.2064 100.676673,1.00953144 100.678001,0.756320012 L101.057632,0.664845728 L101.652962,2.83437712 L101.246784,2.93181712 C101.084179,2.57851427 100.871798,2.28022856 100.611632,2.03762285 C100.350138,1.79369142 100.068733,1.62797714 99.7687448,1.53782857 C99.4687567,1.44768 99.1747418,1.43707429 98.8873638,1.50601143 C98.5661376,1.58356571 98.2993341,1.74464 98.0869531,1.98857142 C97.8745721,2.23183999 97.7411704,2.55862855 97.686084,2.9676114 C97.6309977,3.37659425 97.6701555,3.85915424 97.8048846,4.41661709 C97.9356317,4.9608228 98.1048727,5.39764565 98.3132716,5.72907421 C98.5210067,6.06050278 98.7367061,6.29714277 98.9603698,6.43833134 C99.1833698,6.57885705 99.393096,6.66105134 99.5888847,6.68358848 C99.7860007,6.70546277 99.9618787,6.69817134 100.120501,6.65972562 C100.466283,6.57620563 100.754989,6.40585134 100.986617,6.14601135 C101.216917,5.88617135 101.386159,5.58921136 101.493013,5.25247993 C101.599867,4.91641137 101.647653,4.59691423 101.637034,4.29398852 L102.042548,4.19588567 L102.583456,6.4389942 Z" id="Fill-47" fill="#FFFFFF"></path>
                        <path d="M109.601385,4.08498968 L109.619968,6.09477252 L104.372831,6.26711538 L104.359557,5.85349252 C104.720605,5.84089824 104.952896,5.77925252 105.053114,5.66789253 C105.153995,5.55586967 105.200453,5.3682811 105.191161,5.10446396 L105.064396,1.26652113 C105.059087,1.09351542 105.037849,0.957629707 105.001346,0.861515422 C104.964843,0.76473828 104.883873,0.691161137 104.759099,0.639458281 C104.634325,0.587755424 104.443182,0.566543995 104.18567,0.575161138 L104.171069,0.16021257 L109.057822,-0.000198857152 L109.188569,1.58270399 L108.789027,1.59596113 C108.688147,1.24729828 108.575983,0.999389706 108.453864,0.851572565 C108.331081,0.70441828 108.196352,0.614932566 108.049013,0.585103995 C107.901673,0.555938281 107.681328,0.545332567 107.389304,0.555275424 L106.285587,0.591732567 L106.357266,2.74866969 L106.956578,2.72944684 C107.162986,2.72215541 107.314971,2.69895541 107.415188,2.65719541 C107.515405,2.61609826 107.583766,2.54252112 107.620932,2.43646398 C107.658099,2.33040684 107.680001,2.16469255 107.687301,1.93865827 L108.104763,1.92473827 L108.171132,3.95573254 L107.77159,3.96898968 C107.752343,3.74428111 107.717831,3.57922969 107.668718,3.4738354 C107.618277,3.36910397 107.542617,3.30016683 107.441736,3.26702397 C107.340855,3.23454397 107.187542,3.22194969 106.981798,3.22857826 L106.373194,3.24846397 L106.42098,4.68553825 C106.429608,4.92482967 106.440227,5.10048682 106.455492,5.21118396 C106.47142,5.32254396 106.505269,5.41335538 106.558364,5.48560681 C106.611459,5.55719538 106.695748,5.60757253 106.811894,5.6374011 C106.926712,5.66656681 107.08998,5.67783538 107.301697,5.67054395 L107.774908,5.65529824 C107.974679,5.64800681 108.163831,5.61618967 108.343691,5.55719538 C108.522224,5.4982011 108.696111,5.35767539 108.862697,5.13429253 C109.029283,4.91157253 109.138792,4.56489825 109.193215,4.09758397 L109.601385,4.08498968 Z" id="Fill-49" fill="#FFFFFF"></path>
                        <path d="M118.691682,7.67429478 L115.717021,6.90339193 L115.841131,6.42149479 L116.068777,6.48048908 C116.271203,6.53351765 116.423188,6.54677479 116.524732,6.52092336 C116.625613,6.49639765 116.697956,6.44204336 116.742423,6.35918622 C116.786226,6.27566622 116.833348,6.13779194 116.883125,5.94423765 L117.896581,2.0479634 C117.947685,1.85109483 117.968923,1.70128912 117.959631,1.59987198 C117.949676,1.49712912 117.895253,1.41294627 117.797027,1.34931198 C117.699464,1.28368912 117.530887,1.2207177 117.293286,1.15907198 L117.123381,1.11466055 L117.243509,0.654637702 C117.810964,0.719597701 118.213825,0.747437701 118.454081,0.738820558 C118.693009,0.729540558 118.921982,0.681814845 119.139673,0.595643417 L119.594301,0.71296913 L118.128872,6.34659193 C118.068476,6.5805805 118.064494,6.75358622 118.118253,6.86494622 C118.171348,6.97763193 118.312051,7.0631405 118.541024,7.12213478 L118.817119,7.19372336 L118.691682,7.67429478 Z" id="Fill-52" fill="#FFFFFF"></path>
                        <path d="M128.094849,4.23114967 L123.821346,8.90230394 C123.693917,9.04084108 123.57578,9.15684108 123.467599,9.25096679 C123.358754,9.34575537 123.243271,9.41071537 123.121152,9.44849822 C122.99837,9.48694394 122.869614,9.47368679 122.733557,9.41071537 C122.592191,9.34442965 122.493301,9.23505822 122.436224,9.08127537 C122.379146,8.9308068 122.388438,8.77370965 122.463435,8.61462394 C122.495292,8.54634965 122.547724,8.47409823 122.621393,8.39985823 C122.695063,8.32628108 122.772051,8.25866966 122.851694,8.1976868 C122.932001,8.13604108 122.991733,8.09030394 123.030227,8.06378966 L126.849102,4.88671538 L124.942983,3.99318396 C124.749849,3.90303538 124.611801,3.84669253 124.526185,3.82415538 C124.441233,3.80161824 124.359599,3.81023538 124.28062,3.8486811 C124.20164,3.88778967 124.099432,3.9739611 123.975322,4.10586967 L123.863822,4.22518395 L123.407867,4.0110811 L124.950283,2.33405253 L125.380355,2.5355611 C125.303367,2.6283611 125.256908,2.69133253 125.242307,2.72182396 C125.224387,2.76026967 125.22306,2.79341253 125.234343,2.82125253 C125.252926,2.87560682 125.36509,2.95117253 125.57017,3.04728682 L128.094849,4.23114967 Z" id="Fill-54" fill="#FFFFFF"></path>
                        <path d="M132.373925,11.2586945 C132.081901,11.660386 131.813106,11.9805459 131.56555,12.2211631 C131.31932,12.4617802 131.081055,12.6447288 130.852082,12.7700088 C130.623109,12.8966145 130.38949,12.9874259 130.150561,13.0444316 C129.51541,13.195563 128.961228,13.1007745 128.491999,12.7580773 C128.290901,12.6122488 128.115686,12.4167059 127.968347,12.1727745 C127.821008,11.9288431 127.732073,11.637186 127.70088,11.2958145 C127.669023,10.955106 127.727428,10.5646831 127.875431,10.1238832 C128.02277,9.68440889 128.282273,9.2098032 128.650621,8.70205465 C128.983794,8.2453461 129.2871,7.88077468 129.560541,7.60767755 C129.834645,7.33590613 130.060963,7.14765471 130.239496,7.04292329 C130.418029,6.93885472 130.613817,6.84671758 130.828189,6.76783758 C131.519091,6.52390617 132.136987,6.60079759 132.681877,6.997849 C133.241368,7.40418042 133.504189,7.96827182 133.471669,8.69078608 C133.466359,9.00763178 133.39468,9.36027176 133.255305,9.74936889 C133.11593,10.138466 132.822579,10.6422374 132.373925,11.2586945 L132.373925,11.2586945 Z M131.327285,10.4195176 L131.728818,9.86735762 C132.028806,9.45506048 132.259106,9.10639761 132.419056,8.82136904 C132.578341,8.53634047 132.667276,8.26788332 132.684532,8.01599761 C132.701124,7.76411189 132.602234,7.55928903 132.387199,7.40285474 C132.158889,7.23714046 131.923943,7.2086376 131.681696,7.31800903 C131.439448,7.42804332 131.184591,7.63949475 130.915797,7.95170046 C130.647666,8.26390618 130.2906,8.72658047 129.843937,9.33972333 C129.411874,9.93430619 129.087993,10.4075862 128.872294,10.7608891 C128.657258,11.1135291 128.53182,11.4257348 128.496645,11.6968434 C128.462797,11.9679519 128.558368,12.1866948 128.787341,12.3524091 C128.955919,12.4757005 129.133788,12.5187862 129.320948,12.4816662 C129.508109,12.4452091 129.69527,12.3457805 129.883094,12.1840434 C130.070919,12.0223062 130.250115,11.8367062 130.42002,11.6279062 C130.590588,11.4197691 130.814252,11.1247976 131.089684,10.7456433 L131.327285,10.4195176 Z" id="Fill-56" fill="#FFFFFF"></path>
                        <path d="M135.367374,17.7502537 L134.261666,18.4608366 L133.97827,18.1519451 C134.045967,18.1128366 134.095743,18.078368 134.128928,18.0478766 C134.233127,17.9524251 134.229145,17.8430537 134.116318,17.7204251 L131.888309,15.2976823 L132.247365,14.9689051 C132.857297,15.0053623 133.499086,15.0007223 134.174059,14.9569737 C134.849032,14.913888 135.490157,14.8051794 136.097434,14.6315108 C136.704711,14.4571794 137.19385,14.2006537 137.564853,13.860608 C137.778562,13.6644022 137.92391,13.461568 138.002225,13.252768 C138.079877,13.043968 138.098461,12.849088 138.059303,12.6661394 C138.020145,12.4831908 137.939175,12.324768 137.815065,12.1895451 C137.698255,12.0622765 137.560208,11.9747794 137.401586,11.9263908 C137.2423,11.8786651 137.083678,11.8726994 136.925056,11.9098194 C136.766434,11.9462765 136.630377,12.0178651 136.516222,12.1225965 C136.38083,12.2465508 136.253401,12.4566765 136.131946,12.7529737 C136.122654,12.7741851 136.113362,12.7894308 136.104071,12.7987108 C136.083496,12.816608 136.004517,12.7953965 135.86647,12.7324251 L135.54458,12.5879222 C135.434407,12.5401965 135.37202,12.5090422 135.358746,12.4937965 C135.322907,12.454688 135.350118,12.3466422 135.44038,12.1683337 C135.529978,11.9920137 135.656743,11.828288 135.820011,11.6784822 C136.04633,11.471008 136.300523,11.3404251 136.583255,11.285408 C136.866651,11.2317165 137.164648,11.2688365 137.478574,11.3987565 C137.791836,11.5286765 138.097797,11.7547108 138.39513,12.0775222 C138.758833,12.4745737 138.966568,12.8596937 139.018999,13.234208 C139.070103,13.6087222 139.030946,13.9288822 138.90219,14.1933622 C138.77277,14.4585051 138.620785,14.6719451 138.444907,14.8323565 C138.089169,15.1591451 137.63985,15.3659565 137.098279,15.452128 C136.556708,15.5389623 135.906955,15.572768 135.149684,15.5555337 C135.11119,15.554208 134.963187,15.5469165 134.706339,15.5316708 C134.448827,15.517088 134.156803,15.4998537 133.830267,15.4786423 C133.504395,15.4574308 133.30927,15.4454994 133.244892,15.4408594 L135.367374,17.7502537 Z" id="Fill-58" fill="#FFFFFF"></path>
                        <path d="M96.9136086,28.7754244 C99.6433674,31.3605673 100.989332,32.6862816 102.799879,35.9800189 L102.813817,36.0058703 C103.712454,35.7930931 104.454459,35.7712189 105.37168,35.6552189 C106.718971,35.4835389 107.49748,35.445756 108.855391,35.4842017 C110.21131,35.445756 110.989819,35.4835389 112.337111,35.6552189 C113.258977,35.7718817 113.779974,35.8653446 114.68392,36.0801103 L114.835242,36.1159046 L114.910239,35.9800189 C116.72145,32.6862816 118.067414,31.3605673 120.795846,28.7754244 C124.006117,25.73291 126.214878,24.2998128 130.300557,22.6022356 L130.425994,22.5498699 L130.425994,21.7968641 L130.23817,21.7809556 C128.221215,21.6106013 123.927137,21.2891156 120.609349,23.180247 C119.879953,23.5958585 119.390149,23.9206585 118.85787,24.3621214 C119.272676,23.3578928 119.513596,22.5531842 119.791018,21.3182813 C120.323962,18.9479041 120.416879,17.514144 120.194542,15.0960411 L120.170649,14.8454811 L119.930393,14.9203839 C118.841941,15.2571154 118.233337,15.5341897 117.265013,16.136064 C115.387432,17.3026926 114.357385,18.3572983 113.352557,20.192087 C113.009429,18.9790583 112.724043,18.1723612 112.19309,16.8950354 C111.205519,14.5180296 110.490724,13.2128639 109.023305,11.0970238 L108.855391,10.855081 L108.687477,11.0970238 C107.218067,13.2128639 106.504599,14.5180296 105.517028,16.8950354 C104.986076,18.1723612 104.699361,18.9790583 104.357561,20.192087 C103.35207,18.3572983 102.322022,17.3026926 100.444442,16.136064 C99.4767811,15.5341897 98.8681769,15.2571154 97.7790609,14.9203839 L97.549424,14.8481325 L97.5175669,15.0860982 C97.17643,17.5114926 97.6151294,19.7956984 98.2562543,22.1243156 C98.572171,23.2703956 98.6624329,23.5812756 99.0314448,24.2500985 C98.4228406,23.8437671 97.8832603,23.5507842 97.0868318,23.1736185 C93.6495789,21.5476299 89.5041683,21.6086127 87.4706208,21.7809556 L87.2834601,21.7968641 L87.2834601,22.5498699 L87.4088976,22.6022356 C91.494576,24.2998128 93.7026741,25.73291 96.9136086,28.7754244 M121.794038,24.0923377 C122.907711,23.5686806 123.796392,23.2432177 124.748788,23.0496634 C122.851961,24.1301206 120.889428,25.1515835 118.95477,26.9074921 C117.910785,27.8567035 117.581595,28.7681321 116.830297,29.6099607 L116.955071,29.3620522 C117.496642,28.2796064 117.78402,27.6392864 118.220729,26.5429206 C119.427318,25.3822578 120.252949,24.8181663 121.794038,24.0923377 M113.020049,31.4401095 C114.137704,28.0542353 114.443002,25.911881 114.300308,22.3775268 C114.846525,20.929184 115.350267,20.1364069 116.438055,18.9949669 C117.134267,18.2638355 117.649954,17.8276755 118.382668,17.388864 C118.315636,18.1770012 118.082016,19.337664 117.856362,20.1894354 C116.559511,25.0461896 115.240094,28.4771381 112.591305,32.6557895 C112.732008,32.2912181 112.864082,31.9114009 113.020049,31.4401095 M108.860038,14.2648181 C111.906377,19.5676751 112.439984,24.9228977 110.973892,30.7268747 C110.859074,29.0823262 110.330776,27.4357891 109.454041,25.1787606 L109.327276,24.851972 C108.765794,23.7204749 108.382181,24.851972 108.382181,24.851972 L108.25608,25.1787606 C107.379345,27.4351262 106.850383,29.0810004 106.735565,30.7248861 C105.272791,24.9228977 105.813035,19.5676751 108.860038,14.2648181 M101.272064,18.9949669 C102.359189,20.1364069 102.862267,20.9291841 103.409811,22.3775269 C103.267118,25.9118812 103.572415,28.0542355 104.688743,31.4401098 C104.845374,31.9114013 104.978775,32.2905556 105.11815,32.655127 C102.470689,28.4771384 101.149282,25.0461898 99.8544215,20.1894355 C99.6254483,19.3376641 99.3938203,18.1770012 99.3287786,17.388864 C100.059502,17.8276755 100.575189,18.2638355 101.272064,18.9949669 M95.9154186,24.0923377 C97.4565079,24.8181663 98.2828026,25.3822578 99.4893919,26.5429206 C99.9254365,27.6392864 100.212815,28.2796064 100.754386,29.3620522 L100.880487,29.6099607 C100.129853,28.7681321 98.7593324,27.1302121 97.7133561,26.1796749 C95.7800257,24.4237663 94.8568323,24.1301206 92.9626596,23.0496634 C93.9130644,23.2432177 94.8024096,23.5686806 95.9154186,24.0923377" id="Fill-60" fill="#FFFFFF"></path>
                        <path d="M102.874211,36.1161031 L102.813816,36.005406 C102.80917,36.0067317 102.804524,36.0067317 102.799878,36.0080574 L102.874211,36.1161031 Z" id="Fill-62" fill="#FFFFFF"></path>
                        <path d="M96.2072424,35.9835326 C96.5862096,36.3865497 96.9492483,36.807464 97.2976858,37.243624 L97.46029,37.4424811 C98.7564774,37.044104 99.8303286,36.645064 101.225406,36.3825726 C97.2379537,31.8234411 90.7550254,28.153864 81.9213055,28.228104 C80.7658204,28.3613383 78.4926806,28.506504 77.3511331,30.0463211 C76.9084515,30.6415669 76.6151003,31.0333154 76.5533771,31.773064 C76.4199754,33.3572926 77.713508,34.8659554 79.3050377,34.7864126 C81.9213055,34.6525154 82.4628769,31.8996697 81.2981002,30.4446983 C81.5005257,30.1974526 81.6465376,30.0734983 81.9213055,29.9137497 C82.4661953,29.596904 82.8856477,29.647944 83.5168173,29.647944 C87.1989719,29.647944 92.4235431,31.9520354 96.2072424,35.9835326" id="Fill-64" fill="#FFFFFF"></path>
                        <path d="M141.231474,31.7728641 C141.169087,31.0337784 140.875736,30.6420298 140.432391,30.0461212 C139.290843,28.5063041 137.01704,28.3618012 135.862219,28.2285669 C127.03049,28.1543269 120.54557,31.8232413 116.558118,36.3823728 C117.952532,36.6455271 119.02771,37.0439042 120.325225,37.4422814 L120.485838,37.2434242 C120.834276,36.8072642 121.198642,36.3863499 121.576945,35.9833328 C125.361972,31.9518356 130.585216,29.6477441 134.266043,29.6477441 C134.897876,29.6477441 135.316665,29.5967041 135.862219,29.9135498 C136.138314,30.0732984 136.283662,30.1972527 136.485424,30.4451613 C135.321311,31.8994698 135.862219,34.6523156 138.479814,34.7862128 C140.070016,34.8664185 141.364212,33.3577556 141.231474,31.7728641" id="Fill-66" fill="#FFFFFF"></path>
                        <path d="M109.137259,37.6621511 L109.137259,37.6601625 C109.051643,37.6601625 108.970672,37.6608254 108.891693,37.6621511 C108.812714,37.6608254 108.731744,37.6601625 108.646128,37.6601625 L108.646128,37.6621511 C98.7737321,37.5136711 88.4208245,42.7422882 88.340518,51.989808 C88.3936132,57.1362308 92.7115834,60.2377394 97.2472441,59.9162537 C103.300765,59.3919337 106.132732,53.5621052 105.703324,48.2473167 C105.72589,47.3789738 105.580542,46.7452824 105.455104,45.7370767 C105.340949,44.830951 105.144497,43.8870424 104.8465,42.9312024 C103.567568,43.0293053 101.989312,43.1963453 100.795333,43.4309967 C102.681542,46.6458538 104.126396,53.1928937 100.874976,56.3997966 C99.1646458,58.5103337 95.8282739,58.9484822 94.2115239,58.444048 C91.3098692,57.539248 89.519896,55.358448 89.8099287,51.8419909 C90.5910924,45.1610538 97.9023066,40.993671 108.646128,40.8644139 L108.646128,40.8756825 C108.722452,40.8756825 108.805414,40.8717053 108.891693,40.8610996 C108.9793,40.8717053 109.060934,40.8756825 109.137259,40.8756825 L109.137259,40.8644139 C119.880416,40.993671 127.192958,45.160391 127.974785,51.8419909 C128.263491,55.358448 126.473518,57.539248 123.571863,58.444048 C121.955113,58.9484822 118.619405,58.5103337 116.909074,56.3997966 C113.657655,53.1928937 115.101845,46.6458538 116.989381,43.4309967 C115.794074,43.1963453 114.217146,43.0293053 112.93755,42.9312024 C112.640217,43.8870424 112.442437,44.830951 112.32961,45.7370767 C112.204172,46.7452824 112.058161,47.3789738 112.080062,48.2473167 C111.651318,53.5621052 114.483286,59.3919337 120.53747,59.9162537 C125.072467,60.2377394 129.390437,57.1362308 129.444196,51.989808 C129.363889,42.7416253 119.010982,37.5136711 109.137259,37.6621511" id="Fill-68" fill="#FFFFFF"></path>
                        <path d="M28.3740952,92.8033137 L28.8692083,92.8033137 L28.8692083,79.4885024 L28.3740952,79.4885024 L28.3740952,92.8033137 Z M40.0331446,97.6832685 L23.7096779,97.6832685 L23.7096779,98.1777599 L40.5289213,98.1777599 L40.5289213,93.2997941 L40.0331446,93.2997941 L40.0331446,97.6832685 Z M13.1789016,84.1470623 L4.66375294,84.1470623 L4.66375294,85.8028794 L5.16152079,85.8028794 L5.16152079,84.6415537 L13.6746783,84.6415537 C13.8717944,84.6415537 14.0450176,84.658788 14.1897021,84.6886166 C14.1691277,84.5487537 14.1286426,84.4141937 14.0436902,84.338628 C13.9049789,84.2173251 13.5890623,84.1470623 13.1789016,84.1470623 L13.1789016,84.1470623 Z M83.3289941,84.1470622 L70.5907828,84.1470622 L70.5907828,85.5569593 L71.0872233,85.5569593 L71.0872233,84.6415536 L83.8254346,84.6415536 L83.8254346,79.4885024 L83.3289941,79.4885024 L83.3289941,84.1470622 Z M19.7892591,85.2520453 C19.7892591,83.5405482 19.20853,82.1333025 18.0623365,81.0647767 C18.0331341,81.0389253 18.001277,81.0163882 17.9727383,80.9898739 C18.8494734,81.9987425 19.2934823,83.2621482 19.2934823,84.7568911 C19.2934823,86.0176454 18.8919496,87.1458282 18.123396,88.0784682 C19.294146,89.1542854 19.907396,90.6026283 19.907396,92.3287083 C19.907396,94.1893483 19.2496788,95.5906283 17.9528276,96.4914512 C16.7993335,97.2928455 15.140771,97.6832684 12.8842233,97.6832684 L0,97.6832684 L0,98.1777598 L13.3813275,98.1777598 C15.6372115,98.1777598 17.295774,97.7886626 18.449268,96.9859426 C19.7454556,96.0844569 20.4011818,94.6845026 20.4011818,92.8238626 C20.4011818,91.0971197 19.7912502,89.6487768 18.6178454,88.5742854 C19.3870627,87.6416454 19.7892591,86.5121368 19.7892591,85.2520453 L19.7892591,85.2520453 Z M5.1615208,91.4510847 L13.6255655,91.4510847 C14.1147054,91.4510847 14.4531875,91.5047761 14.688134,91.5916104 C14.6011905,91.254879 14.2859375,90.9559304 13.1297887,90.9559304 L4.66375294,90.9559304 L4.66375294,92.8033133 L5.1615208,92.8033133 L5.1615208,91.4510847 Z M46.8492465,91.9137595 C46.8611929,91.9243652 46.8751304,91.9343081 46.8864132,91.9435881 C46.1802465,91.1302623 45.8298179,90.1353138 45.8298179,88.9149938 C45.8298179,87.5256452 46.3388685,86.4040909 47.384181,85.4873595 C48.4560412,84.5461023 49.8862941,84.0701709 51.6337912,84.0701709 C53.3487674,84.0701709 54.7571186,84.5361595 55.817696,85.4542166 C55.6743388,85.2904909 55.5223537,85.1314052 55.3497942,84.9796109 C54.2845709,84.0482966 52.8675918,83.5750166 51.1360233,83.5750166 C49.3905174,83.5750166 47.9609281,84.0516109 46.8884042,84.9922052 C45.8430917,85.9102623 45.3347048,87.0304909 45.3347048,88.4205023 C45.3347048,89.8821023 45.8298179,91.0255309 46.8492465,91.9137595 L46.8492465,91.9137595 Z M165.189901,84.5746053 L171.127939,84.5746053 C172.271478,84.5746053 173.213918,84.8762053 173.940659,85.4681367 C173.882255,85.3985367 173.826505,85.3282739 173.763454,85.2639767 C173.003529,84.478491 171.949588,84.079451 170.632163,84.079451 L164.694788,84.079451 L164.694788,92.7370281 L165.189901,92.7370281 L165.189901,84.5746053 Z M79.9474908,91.2058286 L79.9474908,86.0521141 L79.4517141,86.0521141 L79.4517141,90.7106743 L70.5907828,90.7106743 L70.5907828,92.8033144 L71.0872232,92.8033144 L71.0872232,91.2058286 L79.9474908,91.2058286 Z M190.413462,89.2066508 L191.151486,89.2066508 L192.620896,86.1873366 L192.254539,85.429028 L190.413462,89.2066508 Z M128.791124,91.2058286 L128.791124,86.0521141 L128.295347,86.0521141 L128.295347,90.7106743 L119.435079,90.7106743 L119.435079,92.8033144 L119.930192,92.8033144 L119.930192,91.2058286 L128.791124,91.2058286 Z M132.173954,84.1470622 L119.435079,84.1470622 L119.435079,85.5569593 L119.930192,85.5569593 L119.930192,84.6415536 L132.669068,84.6415536 L132.669068,79.4885024 L132.173954,79.4885024 L132.173954,84.1470622 Z M210.470856,92.8033137 L210.965305,92.8033137 L210.965305,79.4885024 L210.470856,79.4885024 L210.470856,92.8033137 Z M180.681769,87.2147652 C180.381781,85.2268566 179.473188,83.503428 178.046254,82.1664452 C179.189792,83.4238852 179.921843,84.969668 180.185992,86.7202737 C180.54173,89.071428 180.073828,91.4265594 178.834718,93.5324565 C177.527248,95.7490508 175.665596,97.0429479 173.140917,97.4857365 C172.165292,97.6574165 171.111352,97.7329822 169.722248,97.7329822 C169.141519,97.7329822 168.559462,97.7210508 167.995989,97.7084565 C167.45309,97.6965251 166.894263,97.6832679 166.362647,97.6832679 L160.031039,97.6832679 L160.031039,98.1777594 L166.858423,98.1777594 C167.389376,98.1777594 167.948203,98.1923422 168.490438,98.2022851 C169.054575,98.2148794 169.637959,98.2294622 170.218688,98.2294622 C171.606465,98.2294622 172.661733,98.1538965 173.637358,97.9815536 C176.160709,97.5367765 178.023025,96.2435422 179.329167,94.0256222 C180.570269,91.920388 181.037507,89.5652566 180.681769,87.2147652 L180.681769,87.2147652 Z M59.672411,81.9549938 C61.3316372,83.731451 62.1738604,85.902971 62.1738604,88.4337597 C62.1738604,91.5114055 60.9705895,94.0527998 58.6005509,95.9909942 C56.7515093,97.4996571 54.4531492,98.1744457 51.1486344,98.1744457 C47.8441195,98.1744457 45.5397862,97.5016456 43.6768071,95.9929827 C43.4730541,95.8285942 43.2805839,95.6569142 43.0927595,95.4819199 C43.42195,95.833897 43.7803428,96.1699656 44.1732476,96.488137 C46.035563,97.9967999 48.3392326,98.6682742 51.6450748,98.6682742 C54.9495896,98.6682742 57.247286,97.9967999 59.095664,96.4854856 C61.4650389,94.5479541 62.6676461,92.0065598 62.6676461,88.928914 C62.6676461,86.1575082 61.6588366,83.8162967 59.672411,81.9549938 L59.672411,81.9549938 Z M196.645521,94.3610283 L187.842331,94.3610283 L186.105453,97.6832682 L181.145694,97.6832682 L180.899465,98.1777596 L186.602557,98.1777596 L188.338771,94.8548568 L196.903697,94.8548568 L196.645521,94.3610283 Z M195.004872,79.4885024 L204.084158,97.6832679 L198.618667,97.6832679 L198.876842,98.1777593 L204.846075,98.1777593 L195.52056,79.4885024 L195.004872,79.4885024 Z M222.129234,93.2997941 L222.129234,97.6832685 L205.806431,97.6832685 L205.806431,98.1777599 L222.625011,98.1777599 L222.625011,93.2997941 L222.129234,93.2997941 Z M140.713667,86.2019197 L140.713667,97.6832679 L136.051241,97.6832679 L136.051241,98.1777593 L141.211435,98.1777593 L141.211435,86.8661025 L140.713667,86.2019197 Z M155.367946,97.6832679 L149.438535,97.6832679 L149.808874,98.1777593 L155.864386,98.1777593 L155.864386,79.4885024 L155.367946,79.4885024 L155.367946,97.6832679 Z M91.8706926,86.5512451 L91.8706926,97.6832685 L87.2069396,97.6832685 L87.2069396,98.1777599 L92.3671331,98.1777599 L92.3671331,87.3082279 L91.8706926,86.5512451 Z M83.8937946,97.6832685 L65.9270295,97.6832685 L65.9270295,98.1777599 L84.390235,98.1777599 L84.390235,93.2997941 L83.8937946,93.2997941 L83.8937946,97.6832685 Z M104.894288,86.7056906 L98.4777277,96.3602046 L98.8878884,96.9839532 L104.900924,87.9352906 L104.894288,86.7056906 Z M132.73876,97.6832685 L114.771331,97.6832685 L114.771331,98.1777599 L133.233873,98.1777599 L133.233873,93.2997941 L132.73876,93.2997941 L132.73876,97.6832685 Z M110.108908,97.6832679 L105.447146,97.6832679 L105.449801,98.1777593 L110.604685,98.1777593 L110.604685,79.4885024 L110.108908,79.4885024 L110.108908,97.6832679 Z" id="Fill-70" fill="#FFFFFF"></path>
                        <path d="M0.813684492,96.3767101 L0.813684492,80.3010981 L13.0322266,80.3010981 C14.5746433,80.3010981 15.8004796,80.7127324 16.6738963,81.5273839 C17.5433309,82.3360696 17.9840214,83.4244811 17.9840214,84.7574868 C17.9840214,86.1183326 17.425194,87.1881841 16.275682,88.0280241 L16.0228159,88.2096469 L16.2955927,88.3640927 C17.8446464,89.2410527 18.5985988,90.538927 18.5985988,92.3293042 C18.5985988,95.1278872 16.8365005,96.3767101 12.8842236,96.3767101 L0.813684492,96.3767101 Z M3.35561896,94.109738 L12.8842229,94.109738 C13.8545384,94.109738 14.6237556,93.9228122 15.1699729,93.5509494 C15.740083,93.163178 16.0307794,92.6335551 16.0307794,91.9766636 C16.0307794,90.9154293 15.527702,89.6493722 13.1297884,89.6493722 L3.35561896,89.6493722 L3.35561896,94.109738 Z M3.35561896,87.1099667 L13.0806758,87.1099667 C13.8153812,87.1099667 14.4087205,86.9130982 14.8474199,86.5233382 C15.2907651,86.1309267 15.5157562,85.5933496 15.5157562,84.9344696 C15.5157562,83.9792925 15.1102413,82.8405039 13.178902,82.8405039 L3.35561896,82.8405039 L3.35561896,87.1099667 Z" id="Fill-72" fill="#FFFFFF"></path>
                        <polygon id="Fill-73" fill="#FFFFFF" points="24.5233636 96.3767101 24.5233636 80.3010981 27.0659617 80.3010981 27.0659617 94.1097386 38.7243483 94.1097386 38.7243483 96.3767101"></polygon>
                        <path d="M51.1487005,96.8666275 C48.1647481,96.8666275 46.1152719,96.2846389 44.5018403,94.9788103 C42.4497094,93.3203418 41.4103701,91.1176676 41.4103701,88.4344219 C41.4103701,85.7863077 42.4583373,83.604182 44.5257332,81.9450506 C46.3449088,80.4735077 48.5749088,79.7284563 51.1487005,79.7284563 C53.707891,79.7284563 55.9279357,80.4735077 57.7471113,81.9443877 C59.8151708,83.6220791 60.8644655,85.8055305 60.8644655,88.4344219 C60.8644655,91.0997704 59.8231351,93.3024447 57.7716678,94.9794732 C56.1728375,96.2846389 54.1306619,96.8666275 51.1487005,96.8666275 M51.1360901,82.2671991 C49.0647122,82.2671991 47.3430992,82.8551534 46.0256736,84.0098505 C44.6982927,85.1731648 44.0259742,86.656639 44.0259742,88.4205018 C44.0259742,90.2566161 44.6863462,91.7632903 45.9891706,92.8994275 C47.2813759,94.0282731 49.013608,94.599656 51.1360901,94.599656 C53.243971,94.599656 54.9642567,94.0282731 56.2491615,92.8994275 C57.5433579,91.7632903 58.199084,90.2566161 58.199084,88.4205018 C58.199084,86.6394047 57.5307477,85.1506276 56.2126585,83.9972562 C54.9005424,82.8498506 53.1941943,82.2671991 51.1360901,82.2671991" id="Fill-74" fill="#FFFFFF"></path>
                        <polygon id="Fill-75" fill="#FFFFFF" points="66.7393202 96.3767101 66.7393202 80.3010981 82.0214576 80.3010981 82.0214576 82.8405039 69.2819185 82.8405039 69.2819185 86.8647098 78.143514 86.8647098 78.143514 89.4041156 69.2819185 89.4041156 69.2819185 94.1097386 82.5862582 94.1097386 82.5862582 96.3767101"></polygon>
                        <polygon id="Fill-76" fill="#FFFFFF" points="106.255914 96.3767101 106.178926 82.4076582 98.3991464 94.1157043 90.8397119 82.5965725 90.5622893 83.0075439 90.5622893 96.3767101 88.0196911 96.3767101 88.0196911 80.3010981 92.1312536 80.3010981 98.395828 89.9423556 104.678986 80.3010981 108.799176 80.3010981 108.799176 96.3767101"></polygon>
                        <polygon id="Fill-77" fill="#FFFFFF" points="115.584153 96.3767101 115.584153 80.3010981 130.865627 80.3010981 130.865627 82.8405039 118.126752 82.8405039 118.126752 86.8647098 126.98702 86.8647098 126.98702 89.4041156 118.126752 89.4041156 118.126752 94.1097386 131.4291 94.1097386 131.4291 96.3767101"></polygon>
                        <polygon id="Fill-78" fill="#FFFFFF" points="149.968825 96.3767101 139.406855 82.273761 139.406855 96.3767101 136.862929 96.3767101 136.862929 80.3010981 140.948608 80.3010981 151.515888 94.6937157 151.515888 80.3010981 154.060477 80.3010981 154.060477 96.3767101"></polygon>
                        <path d="M169.722581,96.4282821 C169.155789,96.4282821 168.577715,96.4136993 168.021542,96.4017678 C167.475325,96.3904993 166.909197,96.3765793 166.36298,96.3765793 L160.84373,96.3765793 L160.84373,80.3016306 C160.995715,80.2989791 161.268492,80.2989791 161.752986,80.2989791 L162.881924,80.2989791 L170.410164,80.3009677 C172.471587,80.3009677 174.438766,80.9154363 175.951316,82.0316877 C177.573376,83.2268192 178.590149,84.916442 178.892792,86.9142935 C179.202736,88.9658364 178.791911,91.0246707 177.70545,92.8694021 C176.589786,94.763185 175.06728,95.8204421 172.914269,96.1989335 C172.016959,96.3573564 171.032706,96.4282821 169.722581,96.4282821 L169.722581,96.4282821 Z M163.385665,94.0433219 L171.098411,94.0433219 C172.591051,94.0433219 173.834143,93.5156876 174.793176,92.4743391 C175.749554,91.4363048 176.234048,90.1019734 176.234048,88.5044876 C176.234048,86.7976305 175.718361,85.4009905 174.703578,84.3536762 C173.686804,83.3063619 172.318274,82.7747505 170.632501,82.7747505 L163.385665,82.7747505 L163.385665,94.0433219 Z" id="Fill-79" fill="#FFFFFF"></path>
                        <path d="M199.173313,96.3767101 L197.437099,93.0538071 L187.049679,93.0538071 L185.314128,96.3767101 L182.518,96.3767101 L190.540691,80.3010981 L193.948741,80.3010981 L201.969441,96.3767101 L199.173313,96.3767101 Z M188.322637,90.5144008 L196.16414,90.5144008 L192.258322,82.4321838 L188.322637,90.5144008 Z" id="Fill-80" fill="#FFFFFF"></path>
                        <polygon id="Fill-81" fill="#FFFFFF" points="206.620387 96.3767101 206.620387 80.3010981 209.161658 80.3010981 209.161658 94.1097386 220.821372 94.1097386 220.821372 96.3767101"></polygon>
                        <path d="M194.025137,83.4051257 L194.128672,83.4051257 L194.025137,83.4051257 Z" id="Fill-82" fill="#4C3F30"></path>
                    </g>
                </g>
            </g>
        </g>
    </g>
</svg>