<?xml version="1.0" encoding="UTF-8"?>
<svg width="223px" height="116px" viewBox="0 0 223 116" version="1.1" xmlns="http://www.w3.org/2000/svg" xmlns:xlink="http://www.w3.org/1999/xlink">
    <!-- Generator: sketchtool 57.1 (101010) - https://sketch.com -->
    <title>2E764222-A78B-406E-9516-77EBA2C70648</title>
    <desc>Created with sketchtool.</desc>
    <g id="Page-1" stroke="none" stroke-width="1" fill="none" fill-rule="evenodd">
        <g id="Home" transform="translate(-589.000000, -7637.000000)">
            <g id="Logo-fc" transform="translate(589.000000, 7637.000000)">
                <g id="Group-83" transform="translate(0.000000, 0.662857)">
                    <path d="M75.8517244,114.752503 L75.6214238,114.752503 L73.4996054,109.504663 L71.6432631,114.752503 L71.3976976,114.752503 L69.7105964,109.796983 C69.5599387,109.34624 69.4517571,109.045966 69.3853881,108.897486 C69.3183554,108.749006 69.2314119,108.638971 69.1232304,108.568709 C69.0163762,108.497783 68.8378435,108.458011 68.5882958,108.448731 L68.5882958,108.233303 L71.2045637,108.233303 L71.2045637,108.448731 C70.888647,108.467954 70.6868851,108.509051 70.5979506,108.572686 C70.5083524,108.636983 70.4645488,108.727794 70.4645488,108.842469 C70.4645488,108.946537 70.5355637,109.211017 70.6802482,109.636571 L71.9266589,113.344594 L73.7445071,108.233303 L74.0338762,108.233303 L76.0793702,113.344594 L77.1459208,109.964686 C77.2866232,109.507977 77.3563107,109.209029 77.3563107,109.068503 C77.3563107,108.655543 77.1147274,108.448731 76.6315607,108.448731 L76.6315607,108.233303 L78.5330339,108.233303 L78.5330339,108.448731 C78.2522929,108.467954 78.0425667,108.56208 77.9051827,108.732434 C77.7684625,108.903451 77.5952393,109.312434 77.3855131,109.960046 L75.8517244,114.752503 Z" id="Fill-1" fill="#C4A662"></path>
                    <path d="M75.8517244,114.752503 L75.6214238,114.752503 L73.4996054,109.504663 L71.6432631,114.752503 L71.3976976,114.752503 L69.7105964,109.796983 C69.5599387,109.34624 69.4517571,109.045966 69.3853881,108.897486 C69.3183554,108.749006 69.2314119,108.638971 69.1232304,108.568709 C69.0163762,108.497783 68.8378435,108.458011 68.5882958,108.448731 L68.5882958,108.233303 L71.2045637,108.233303 L71.2045637,108.448731 C70.888647,108.467954 70.6868851,108.509051 70.5979506,108.572686 C70.5083524,108.636983 70.4645488,108.727794 70.4645488,108.842469 C70.4645488,108.946537 70.5355637,109.211017 70.6802482,109.636571 L71.9266589,113.344594 L73.7445071,108.233303 L74.0338762,108.233303 L76.0793702,113.344594 L77.1459208,109.964686 C77.2866232,109.507977 77.3563107,109.209029 77.3563107,109.068503 C77.3563107,108.655543 77.1147274,108.448731 76.6315607,108.448731 L76.6315607,108.233303 L78.5330339,108.233303 L78.5330339,108.448731 C78.2522929,108.467954 78.0425667,108.56208 77.9051827,108.732434 C77.7684625,108.903451 77.5952393,109.312434 77.3855131,109.960046 L75.8517244,114.752503 Z" id="Stroke-3" stroke="#FFFFFF" stroke-width="0.072"></path>
                    <path d="M79.7651753,108.448665 L79.7651753,108.233237 L83.0258866,108.233237 L83.0258866,108.448665 L82.8732378,108.448665 C82.5228092,108.448665 82.2931723,108.474517 82.1843271,108.526219 C82.0754818,108.577922 82.0031396,108.674037 81.9659729,108.815225 C81.9294699,108.955751 81.9108866,109.291157 81.9108866,109.820117 L81.9108866,112.942174 C81.9108866,113.443294 81.9241604,113.772071 81.9500443,113.926517 C81.976592,114.081625 82.0462795,114.196962 82.1610979,114.271865 C82.274589,114.346768 82.4929432,114.383888 82.8161604,114.383888 L83.0258866,114.383888 L83.0258866,114.599979 L79.7651753,114.599979 L79.7651753,114.383888 L79.9749015,114.383888 C80.2801991,114.383888 80.4919164,114.349419 80.6093896,114.281145 C80.7268628,114.211545 80.8005324,114.104825 80.8323896,113.958997 C80.8642467,113.813831 80.8795116,113.474448 80.8795116,112.942174 L80.8795116,109.820117 C80.8795116,109.312368 80.8642467,108.985579 80.8323896,108.838425 C80.8005324,108.691934 80.7308449,108.589191 80.6226634,108.532848 C80.5131545,108.476505 80.278208,108.448665 79.9178241,108.448665 L79.7651753,108.448665 Z" id="Fill-5" fill="#C4A662"></path>
                    <path d="M79.7651753,108.448665 L79.7651753,108.233237 L83.0258866,108.233237 L83.0258866,108.448665 L82.8732378,108.448665 C82.5228092,108.448665 82.2931723,108.474517 82.1843271,108.526219 C82.0754818,108.577922 82.0031396,108.674037 81.9659729,108.815225 C81.9294699,108.955751 81.9108866,109.291157 81.9108866,109.820117 L81.9108866,112.942174 C81.9108866,113.443294 81.9241604,113.772071 81.9500443,113.926517 C81.976592,114.081625 82.0462795,114.196962 82.1610979,114.271865 C82.274589,114.346768 82.4929432,114.383888 82.8161604,114.383888 L83.0258866,114.383888 L83.0258866,114.599979 L79.7651753,114.599979 L79.7651753,114.383888 L79.9749015,114.383888 C80.2801991,114.383888 80.4919164,114.349419 80.6093896,114.281145 C80.7268628,114.211545 80.8005324,114.104825 80.8323896,113.958997 C80.8642467,113.813831 80.8795116,113.474448 80.8795116,112.942174 L80.8795116,109.820117 C80.8795116,109.312368 80.8642467,108.985579 80.8323896,108.838425 C80.8005324,108.691934 80.7308449,108.589191 80.6226634,108.532848 C80.5131545,108.476505 80.278208,108.448665 79.9178241,108.448665 L79.7651753,108.448665 Z" id="Stroke-7" stroke="#FFFFFF" stroke-width="0.072"></path>
                    <path d="M90.7221741,114.743289 L85.7763527,108.777575 L85.7763527,113.194192 C85.7763527,113.560752 85.7962634,113.801369 85.8354211,113.917369 C85.8745789,114.033369 85.9874062,114.139426 86.1725759,114.236203 C86.3590729,114.332981 86.6378229,114.382032 87.0088259,114.382032 L87.0088259,114.598123 L84.3991949,114.598123 L84.3991949,114.382032 C84.7330312,114.360158 84.9872247,114.304478 85.162439,114.215655 C85.3376533,114.125506 85.4418527,114.029392 85.4743735,113.926649 C85.5068943,113.823243 85.5234866,113.579312 85.5234866,113.194192 L85.5234866,109.819586 C85.5234866,109.331061 85.4989301,109.003609 85.4484896,108.837895 C85.3987128,108.672843 85.3197336,108.566123 85.2108884,108.519061 C85.1033705,108.471998 84.8617872,108.448798 84.4868021,108.448798 L84.4868021,108.233369 L86.5495521,108.233369 L90.6909807,113.212752 L90.6909807,109.405963 C90.6909807,109.124912 90.6584598,108.927381 90.5954092,108.815358 C90.5310312,108.702009 90.4016116,108.612523 90.2058229,108.546901 C90.0100342,108.481941 89.7744241,108.448798 89.4996562,108.448798 L89.4996562,108.233369 L92.0369449,108.233369 L92.0369449,108.448798 C91.7416027,108.470672 91.5079836,108.522375 91.3380789,108.603243 C91.1675104,108.685438 91.0593289,108.782878 91.0128705,108.896889 C90.9664122,109.010901 90.9438467,109.205118 90.9438467,109.476889 L90.9438467,114.743289 L90.7221741,114.743289 Z" id="Fill-9" fill="#C4A662"></path>
                    <path d="M90.7221741,114.743289 L85.7763527,108.777575 L85.7763527,113.194192 C85.7763527,113.560752 85.7962634,113.801369 85.8354211,113.917369 C85.8745789,114.033369 85.9874062,114.139426 86.1725759,114.236203 C86.3590729,114.332981 86.6378229,114.382032 87.0088259,114.382032 L87.0088259,114.598123 L84.3991949,114.598123 L84.3991949,114.382032 C84.7330312,114.360158 84.9872247,114.304478 85.162439,114.215655 C85.3376533,114.125506 85.4418527,114.029392 85.4743735,113.926649 C85.5068943,113.823243 85.5234866,113.579312 85.5234866,113.194192 L85.5234866,109.819586 C85.5234866,109.331061 85.4989301,109.003609 85.4484896,108.837895 C85.3987128,108.672843 85.3197336,108.566123 85.2108884,108.519061 C85.1033705,108.471998 84.8617872,108.448798 84.4868021,108.448798 L84.4868021,108.233369 L86.5495521,108.233369 L90.6909807,113.212752 L90.6909807,109.405963 C90.6909807,109.124912 90.6584598,108.927381 90.5954092,108.815358 C90.5310312,108.702009 90.4016116,108.612523 90.2058229,108.546901 C90.0100342,108.481941 89.7744241,108.448798 89.4996562,108.448798 L89.4996562,108.233369 L92.0369449,108.233369 L92.0369449,108.448798 C91.7416027,108.470672 91.5079836,108.522375 91.3380789,108.603243 C91.1675104,108.685438 91.0593289,108.782878 91.0128705,108.896889 C90.9664122,109.010901 90.9438467,109.205118 90.9438467,109.476889 L90.9438467,114.743289 L90.7221741,114.743289 Z" id="Stroke-11" stroke="#FFFFFF" stroke-width="0.072"></path>
                    <path d="M99.1209116,112.618633 L99.3697955,112.618633 L99.216483,114.600576 L93.4005634,114.600576 L93.4005634,114.383822 L93.5459116,114.383822 C93.8943491,114.383822 94.1200039,114.341399 94.2215485,114.257879 C94.3230932,114.173033 94.3881348,114.06565 94.4153461,113.93573 C94.4432211,113.80581 94.4571586,113.474382 94.4571586,112.942107 L94.4571586,109.82005 C94.4571586,109.334839 94.4425574,109.015342 94.4133551,108.861559 C94.3841527,108.708439 94.3164563,108.601719 94.2109295,108.540736 C94.1060664,108.47909 93.8843938,108.448599 93.5459116,108.448599 L93.5459116,108.23317 L98.5720396,108.23317 L98.7326527,109.82005 L98.4943878,109.82005 C98.3835515,109.375273 98.2481586,109.060416 98.0868818,108.874153 C97.9262687,108.68789 97.7357896,108.570565 97.5147807,108.521513 C97.293108,108.473125 96.9373699,108.448599 96.4475664,108.448599 L95.4732688,108.448599 L95.4732688,111.120576 L96.2219116,111.120576 C96.5637122,111.120576 96.8046318,111.094062 96.9413521,111.04037 C97.0780723,110.987342 97.1683342,110.907136 97.2114741,110.799753 C97.254614,110.691045 97.2758521,110.480919 97.2758521,110.167387 L97.5147807,110.167387 L97.5147807,112.346199 L97.2758521,112.346199 C97.2758521,111.992896 97.2433312,111.755593 97.1776259,111.634953 C97.1119205,111.514313 97.0150217,111.436096 96.8889205,111.400302 C96.7628193,111.364507 96.549111,111.345947 96.2464682,111.345947 L95.4732688,111.345947 L95.4732688,112.853285 C95.4732688,113.608279 95.526364,114.05173 95.6332182,114.184965 C95.740736,114.318199 96.0287777,114.383822 96.4973432,114.383822 L97.0203313,114.383822 C97.3893432,114.383822 97.6933134,114.341399 97.9309146,114.256553 C98.1691795,114.171045 98.3954979,113.994062 98.6111973,113.72693 C98.8268967,113.459799 98.9968015,113.089925 99.1209116,112.618633" id="Fill-13" fill="#C4A662"></path>
                    <path d="M99.1209116,112.618633 L99.3697955,112.618633 L99.216483,114.600576 L93.4005634,114.600576 L93.4005634,114.383822 L93.5459116,114.383822 C93.8943491,114.383822 94.1200039,114.341399 94.2215485,114.257879 C94.3230932,114.173033 94.3881348,114.06565 94.4153461,113.93573 C94.4432211,113.80581 94.4571586,113.474382 94.4571586,112.942107 L94.4571586,109.82005 C94.4571586,109.334839 94.4425574,109.015342 94.4133551,108.861559 C94.3841527,108.708439 94.3164563,108.601719 94.2109295,108.540736 C94.1060664,108.47909 93.8843938,108.448599 93.5459116,108.448599 L93.5459116,108.23317 L98.5720396,108.23317 L98.7326527,109.82005 L98.4943878,109.82005 C98.3835515,109.375273 98.2481586,109.060416 98.0868818,108.874153 C97.9262687,108.68789 97.7357896,108.570565 97.5147807,108.521513 C97.293108,108.473125 96.9373699,108.448599 96.4475664,108.448599 L95.4732688,108.448599 L95.4732688,111.120576 L96.2219116,111.120576 C96.5637122,111.120576 96.8046318,111.094062 96.9413521,111.04037 C97.0780723,110.987342 97.1683342,110.907136 97.2114741,110.799753 C97.254614,110.691045 97.2758521,110.480919 97.2758521,110.167387 L97.5147807,110.167387 L97.5147807,112.346199 L97.2758521,112.346199 C97.2758521,111.992896 97.2433312,111.755593 97.1776259,111.634953 C97.1119205,111.514313 97.0150217,111.436096 96.8889205,111.400302 C96.7628193,111.364507 96.549111,111.345947 96.2464682,111.345947 L95.4732688,111.345947 L95.4732688,112.853285 C95.4732688,113.608279 95.526364,114.05173 95.6332182,114.184965 C95.740736,114.318199 96.0287777,114.383822 96.4973432,114.383822 L97.0203313,114.383822 C97.3893432,114.383822 97.6933134,114.341399 97.9309146,114.256553 C98.1691795,114.171045 98.3954979,113.994062 98.6111973,113.72693 C98.8268967,113.459799 98.9968015,113.089925 99.1209116,112.618633 Z" id="Stroke-15" stroke="#FFFFFF" stroke-width="0.072"></path>
                    <path d="M110.311795,112.618633 L110.560015,112.618633 L110.407366,114.600576 L104.591447,114.600576 L104.591447,114.383822 L104.736131,114.383822 C105.085232,114.383822 105.310887,114.341399 105.412432,114.257879 C105.513976,114.173033 105.579018,114.06565 105.606229,113.93573 C105.634104,113.80581 105.648042,113.474382 105.648042,112.942107 L105.648042,109.82005 C105.648042,109.334839 105.632777,109.015342 105.603575,108.861559 C105.574372,108.708439 105.50734,108.601719 105.401813,108.540736 C105.296286,108.47909 105.074613,108.448599 104.736131,108.448599 L104.736131,108.23317 L109.762259,108.23317 L109.923536,109.82005 L109.684607,109.82005 C109.573771,109.375273 109.438378,109.060416 109.277765,108.874153 C109.117152,108.68789 108.926009,108.570565 108.705,108.521513 C108.483991,108.473125 108.128253,108.448599 107.637786,108.448599 L106.663488,108.448599 L106.663488,111.120576 L107.412131,111.120576 C107.754596,111.120576 107.994851,111.094062 108.132235,111.04037 C108.268956,110.987342 108.359218,110.907136 108.401694,110.799753 C108.445497,110.691045 108.466735,110.480919 108.466735,110.167387 L108.705,110.167387 L108.705,112.346199 L108.466735,112.346199 C108.466735,111.992896 108.434215,111.755593 108.367846,111.634953 C108.302804,111.514313 108.205905,111.436096 108.07914,111.400302 C107.953039,111.364507 107.739331,111.345947 107.437351,111.345947 L106.663488,111.345947 L106.663488,112.853285 C106.663488,113.608279 106.717247,114.05173 106.823438,114.184965 C106.930956,114.318199 107.218997,114.383822 107.688226,114.383822 L108.211215,114.383822 C108.579563,114.383822 108.883533,114.341399 109.121134,114.256553 C109.359399,114.171045 109.586381,113.994062 109.801417,113.72693 C110.017116,113.459799 110.187685,113.089925 110.311795,112.618633" id="Fill-17" fill="#C4A662"></path>
                    <path d="M110.311795,112.618633 L110.560015,112.618633 L110.407366,114.600576 L104.591447,114.600576 L104.591447,114.383822 L104.736131,114.383822 C105.085232,114.383822 105.310887,114.341399 105.412432,114.257879 C105.513976,114.173033 105.579018,114.06565 105.606229,113.93573 C105.634104,113.80581 105.648042,113.474382 105.648042,112.942107 L105.648042,109.82005 C105.648042,109.334839 105.632777,109.015342 105.603575,108.861559 C105.574372,108.708439 105.50734,108.601719 105.401813,108.540736 C105.296286,108.47909 105.074613,108.448599 104.736131,108.448599 L104.736131,108.23317 L109.762259,108.23317 L109.923536,109.82005 L109.684607,109.82005 C109.573771,109.375273 109.438378,109.060416 109.277765,108.874153 C109.117152,108.68789 108.926009,108.570565 108.705,108.521513 C108.483991,108.473125 108.128253,108.448599 107.637786,108.448599 L106.663488,108.448599 L106.663488,111.120576 L107.412131,111.120576 C107.754596,111.120576 107.994851,111.094062 108.132235,111.04037 C108.268956,110.987342 108.359218,110.907136 108.401694,110.799753 C108.445497,110.691045 108.466735,110.480919 108.466735,110.167387 L108.705,110.167387 L108.705,112.346199 L108.466735,112.346199 C108.466735,111.992896 108.434215,111.755593 108.367846,111.634953 C108.302804,111.514313 108.205905,111.436096 108.07914,111.400302 C107.953039,111.364507 107.739331,111.345947 107.437351,111.345947 L106.663488,111.345947 L106.663488,112.853285 C106.663488,113.608279 106.717247,114.05173 106.823438,114.184965 C106.930956,114.318199 107.218997,114.383822 107.688226,114.383822 L108.211215,114.383822 C108.579563,114.383822 108.883533,114.341399 109.121134,114.256553 C109.359399,114.171045 109.586381,113.994062 109.801417,113.72693 C110.017116,113.459799 110.187685,113.089925 110.311795,112.618633 Z" id="Stroke-19" stroke="#FFFFFF" stroke-width="0.072"></path>
                    <path d="M112.406999,114.532766 L112.406999,112.486526 L112.66783,112.486526 C112.962508,113.822846 113.662038,114.490343 114.765092,114.490343 C115.261532,114.490343 115.645809,114.362411 115.918586,114.107874 C116.190699,113.851349 116.326092,113.565657 116.326092,113.248811 C116.326092,112.928651 116.206627,112.66152 115.967699,112.444766 C115.728107,112.231989 115.291398,112.003303 114.655583,111.758709 C114.090118,111.540629 113.663365,111.347737 113.375324,111.184674 C113.087282,111.019623 112.862955,110.806183 112.701678,110.543691 C112.540401,110.280537 112.460095,110.000811 112.460095,109.703189 C112.460095,109.250457 112.633318,108.871966 112.982419,108.570366 C113.330857,108.268766 113.772874,108.117634 114.307145,108.117634 C114.605142,108.117634 114.886547,108.161383 115.150696,108.24888 C115.414181,108.336377 115.684967,108.518 115.962389,108.793086 C116.122339,108.620743 116.212601,108.435143 116.233175,108.23496 L116.462148,108.23496 L116.462148,109.90072 L116.233175,109.90072 C116.101101,109.417497 115.868145,109.037017 115.532982,108.75928 C115.198482,108.48088 114.810223,108.342343 114.369532,108.342343 C113.95008,108.342343 113.642127,108.445086 113.445675,108.649909 C113.249223,108.854731 113.15166,109.07944 113.15166,109.322709 C113.15166,109.61768 113.274443,109.865589 113.520008,110.069086 C113.762919,110.275234 114.200955,110.506571 114.83677,110.761109 C115.445374,111.003714 115.886729,111.19992 116.162824,111.347737 C116.438255,111.497543 116.659928,111.702366 116.826514,111.96552 C116.993101,112.228011 117.076726,112.5316 117.076726,112.876286 C117.076726,113.420491 116.875627,113.862617 116.472767,114.203989 C116.069243,114.54536 115.531654,114.715714 114.858672,114.715714 C114.085473,114.715714 113.439702,114.448583 112.922687,113.912994 C112.808532,114.060149 112.722916,114.26696 112.66783,114.532766 L112.406999,114.532766 Z" id="Fill-21" fill="#C4A662"></path>
                    <path d="M112.406999,114.532766 L112.406999,112.486526 L112.66783,112.486526 C112.962508,113.822846 113.662038,114.490343 114.765092,114.490343 C115.261532,114.490343 115.645809,114.362411 115.918586,114.107874 C116.190699,113.851349 116.326092,113.565657 116.326092,113.248811 C116.326092,112.928651 116.206627,112.66152 115.967699,112.444766 C115.728107,112.231989 115.291398,112.003303 114.655583,111.758709 C114.090118,111.540629 113.663365,111.347737 113.375324,111.184674 C113.087282,111.019623 112.862955,110.806183 112.701678,110.543691 C112.540401,110.280537 112.460095,110.000811 112.460095,109.703189 C112.460095,109.250457 112.633318,108.871966 112.982419,108.570366 C113.330857,108.268766 113.772874,108.117634 114.307145,108.117634 C114.605142,108.117634 114.886547,108.161383 115.150696,108.24888 C115.414181,108.336377 115.684967,108.518 115.962389,108.793086 C116.122339,108.620743 116.212601,108.435143 116.233175,108.23496 L116.462148,108.23496 L116.462148,109.90072 L116.233175,109.90072 C116.101101,109.417497 115.868145,109.037017 115.532982,108.75928 C115.198482,108.48088 114.810223,108.342343 114.369532,108.342343 C113.95008,108.342343 113.642127,108.445086 113.445675,108.649909 C113.249223,108.854731 113.15166,109.07944 113.15166,109.322709 C113.15166,109.61768 113.274443,109.865589 113.520008,110.069086 C113.762919,110.275234 114.200955,110.506571 114.83677,110.761109 C115.445374,111.003714 115.886729,111.19992 116.162824,111.347737 C116.438255,111.497543 116.659928,111.702366 116.826514,111.96552 C116.993101,112.228011 117.076726,112.5316 117.076726,112.876286 C117.076726,113.420491 116.875627,113.862617 116.472767,114.203989 C116.069243,114.54536 115.531654,114.715714 114.858672,114.715714 C114.085473,114.715714 113.439702,114.448583 112.922687,113.912994 C112.808532,114.060149 112.722916,114.26696 112.66783,114.532766 L112.406999,114.532766 Z" id="Stroke-23" stroke="#FFFFFF" stroke-width="0.072"></path>
                    <path d="M118.986163,109.763707 L118.748562,109.763707 L118.785065,108.23317 L125.589883,108.23317 L125.626386,109.763707 L125.40405,109.763707 C125.324407,109.344119 125.216226,109.041856 125.078178,108.855593 C124.940794,108.66933 124.792791,108.553993 124.634169,108.51157 C124.475547,108.46981 124.205425,108.448599 123.823139,108.448599 L122.696193,108.448599 L122.696193,112.942107 C122.696193,113.440576 122.709467,113.767365 122.735351,113.924462 C122.760571,114.080233 122.830922,114.196896 122.944413,114.271799 C123.058568,114.346702 123.272276,114.383822 123.584874,114.383822 L123.926675,114.383822 L123.926675,114.600576 L120.427699,114.600576 L120.427699,114.383822 L120.790074,114.383822 C121.089398,114.383822 121.297133,114.350016 121.411952,114.281079 C121.528098,114.211479 121.602431,114.104759 121.634952,113.959593 C121.667473,113.813765 121.683401,113.474382 121.683401,112.942107 L121.683401,108.448599 L120.644726,108.448599 C120.193416,108.448599 119.890773,108.467822 119.73547,108.507593 C119.580166,108.546702 119.434818,108.66469 119.298761,108.861559 C119.162705,109.05909 119.058505,109.360027 118.986163,109.763707" id="Fill-25" fill="#C4A662"></path>
                    <path d="M118.986163,109.763707 L118.748562,109.763707 L118.785065,108.23317 L125.589883,108.23317 L125.626386,109.763707 L125.40405,109.763707 C125.324407,109.344119 125.216226,109.041856 125.078178,108.855593 C124.940794,108.66933 124.792791,108.553993 124.634169,108.51157 C124.475547,108.46981 124.205425,108.448599 123.823139,108.448599 L122.696193,108.448599 L122.696193,112.942107 C122.696193,113.440576 122.709467,113.767365 122.735351,113.924462 C122.760571,114.080233 122.830922,114.196896 122.944413,114.271799 C123.058568,114.346702 123.272276,114.383822 123.584874,114.383822 L123.926675,114.383822 L123.926675,114.600576 L120.427699,114.600576 L120.427699,114.383822 L120.790074,114.383822 C121.089398,114.383822 121.297133,114.350016 121.411952,114.281079 C121.528098,114.211479 121.602431,114.104759 121.634952,113.959593 C121.667473,113.813765 121.683401,113.474382 121.683401,112.942107 L121.683401,108.448599 L120.644726,108.448599 C120.193416,108.448599 119.890773,108.467822 119.73547,108.507593 C119.580166,108.546702 119.434818,108.66469 119.298761,108.861559 C119.162705,109.05909 119.058505,109.360027 118.986163,109.763707 Z" id="Stroke-27" stroke="#FFFFFF" stroke-width="0.072"></path>
                    <path d="M130.484733,112.253134 L127.823998,112.253134 L127.639492,112.656814 C127.371361,113.242117 127.237296,113.623259 127.237296,113.802231 C127.237296,113.993134 127.308974,114.138299 127.451668,114.236402 C127.594361,114.335168 127.77754,114.384219 128.001867,114.384219 L128.001867,114.600311 L125.921861,114.600311 L125.921861,114.384219 C126.231141,114.340471 126.460778,114.241705 126.612763,114.086597 C126.764085,113.932151 126.946599,113.606025 127.160308,113.109545 C127.180882,113.062482 127.263843,112.880197 127.409855,112.563351 L129.443403,108.144745 L129.64251,108.144745 L131.985337,113.201019 L132.3059,113.867854 C132.378242,114.018322 132.474477,114.136311 132.595933,114.222482 C132.716724,114.308654 132.899239,114.362345 133.141486,114.384219 L133.141486,114.600311 L130.395799,114.600311 L130.395799,114.384219 C130.732954,114.384219 130.961927,114.361682 131.080064,114.315945 C131.198864,114.270208 131.257269,114.180722 131.257269,114.046162 C131.257269,113.977888 131.178954,113.772402 131.020332,113.431031 L130.484733,112.253134 Z M130.388498,112.042345 L129.155361,109.327945 L127.91957,112.042345 L130.388498,112.042345 Z" id="Fill-29" fill="#C4A662"></path>
                    <path d="M130.484733,112.253134 L127.823998,112.253134 L127.639492,112.656814 C127.371361,113.242117 127.237296,113.623259 127.237296,113.802231 C127.237296,113.993134 127.308974,114.138299 127.451668,114.236402 C127.594361,114.335168 127.77754,114.384219 128.001867,114.384219 L128.001867,114.600311 L125.921861,114.600311 L125.921861,114.384219 C126.231141,114.340471 126.460778,114.241705 126.612763,114.086597 C126.764085,113.932151 126.946599,113.606025 127.160308,113.109545 C127.180882,113.062482 127.263843,112.880197 127.409855,112.563351 L129.443403,108.144745 L129.64251,108.144745 L131.985337,113.201019 L132.3059,113.867854 C132.378242,114.018322 132.474477,114.136311 132.595933,114.222482 C132.716724,114.308654 132.899239,114.362345 133.141486,114.384219 L133.141486,114.600311 L130.395799,114.600311 L130.395799,114.384219 C130.732954,114.384219 130.961927,114.361682 131.080064,114.315945 C131.198864,114.270208 131.257269,114.180722 131.257269,114.046162 C131.257269,113.977888 131.178954,113.772402 131.020332,113.431031 L130.484733,112.253134 Z M130.388498,112.042345 L129.155361,109.327945 L127.91957,112.042345 L130.388498,112.042345 Z" id="Stroke-31" stroke="#FFFFFF" stroke-width="0.072"></path>
                    <path d="M133.735224,109.763707 L133.496959,109.763707 L133.533462,108.23317 L140.33828,108.23317 L140.374783,109.763707 L140.152447,109.763707 C140.073468,109.344119 139.964623,109.041856 139.827239,108.855593 C139.689191,108.66933 139.541188,108.553993 139.382566,108.51157 C139.223944,108.46981 138.953822,108.448599 138.570873,108.448599 L137.44459,108.448599 L137.44459,112.942107 C137.44459,113.440576 137.4572,113.767365 137.483748,113.924462 C137.509632,114.080233 137.579319,114.196896 137.69281,114.271799 C137.806301,114.346702 138.02001,114.383822 138.333271,114.383822 L138.675072,114.383822 L138.675072,114.600576 L135.176096,114.600576 L135.176096,114.383822 L135.538471,114.383822 C135.837795,114.383822 136.044867,114.350016 136.161012,114.281079 C136.276495,114.211479 136.350164,114.104759 136.383349,113.959593 C136.41587,113.813765 136.432462,113.474382 136.432462,112.942107 L136.432462,108.448599 L135.393786,108.448599 C134.941813,108.448599 134.63917,108.467822 134.483867,108.507593 C134.329227,108.546702 134.183215,108.66469 134.047822,108.861559 C133.911765,109.05909 133.806902,109.360027 133.735224,109.763707" id="Fill-33" fill="#C4A662"></path>
                    <path d="M133.735224,109.763707 L133.496959,109.763707 L133.533462,108.23317 L140.33828,108.23317 L140.374783,109.763707 L140.152447,109.763707 C140.073468,109.344119 139.964623,109.041856 139.827239,108.855593 C139.689191,108.66933 139.541188,108.553993 139.382566,108.51157 C139.223944,108.46981 138.953822,108.448599 138.570873,108.448599 L137.44459,108.448599 L137.44459,112.942107 C137.44459,113.440576 137.4572,113.767365 137.483748,113.924462 C137.509632,114.080233 137.579319,114.196896 137.69281,114.271799 C137.806301,114.346702 138.02001,114.383822 138.333271,114.383822 L138.675072,114.383822 L138.675072,114.600576 L135.176096,114.600576 L135.176096,114.383822 L135.538471,114.383822 C135.837795,114.383822 136.044867,114.350016 136.161012,114.281079 C136.276495,114.211479 136.350164,114.104759 136.383349,113.959593 C136.41587,113.813765 136.432462,113.474382 136.432462,112.942107 L136.432462,108.448599 L135.393786,108.448599 C134.941813,108.448599 134.63917,108.467822 134.483867,108.507593 C134.329227,108.546702 134.183215,108.66469 134.047822,108.861559 C133.911765,109.05909 133.806902,109.360027 133.735224,109.763707 Z" id="Stroke-35" stroke="#FFFFFF" stroke-width="0.072"></path>
                    <path d="M147.590094,112.618633 L147.838315,112.618633 L147.685666,114.600576 L141.869746,114.600576 L141.869746,114.383822 L142.014431,114.383822 C142.363532,114.383822 142.589187,114.341399 142.690731,114.257879 C142.792276,114.173033 142.857318,114.06565 142.884529,113.93573 C142.912404,113.80581 142.926341,113.474382 142.926341,112.942107 L142.926341,109.82005 C142.926341,109.334839 142.911076,109.015342 142.881874,108.861559 C142.852672,108.708439 142.785639,108.601719 142.680112,108.540736 C142.574585,108.47909 142.352913,108.448599 142.014431,108.448599 L142.014431,108.23317 L147.040559,108.23317 L147.201835,109.82005 L146.962907,109.82005 C146.852071,109.375273 146.716678,109.060416 146.556065,108.874153 C146.395451,108.68789 146.204309,108.570565 145.9833,108.521513 C145.762291,108.473125 145.406553,108.448599 144.916085,108.448599 L143.941788,108.448599 L143.941788,111.120576 L144.690431,111.120576 C145.032895,111.120576 145.273151,111.094062 145.410535,111.04037 C145.547255,110.987342 145.637517,110.907136 145.679993,110.799753 C145.723797,110.691045 145.745035,110.480919 145.745035,110.167387 L145.9833,110.167387 L145.9833,112.346199 L145.745035,112.346199 C145.745035,111.992896 145.712514,111.755593 145.646145,111.634953 C145.581103,111.514313 145.484204,111.436096 145.35744,111.400302 C145.231338,111.364507 145.01763,111.345947 144.715651,111.345947 L143.941788,111.345947 L143.941788,112.853285 C143.941788,113.608279 143.995547,114.05173 144.101737,114.184965 C144.209255,114.318199 144.497297,114.383822 144.966526,114.383822 L145.489514,114.383822 C145.857862,114.383822 146.161832,114.341399 146.399434,114.256553 C146.637699,114.171045 146.864681,113.994062 147.079716,113.72693 C147.295416,113.459799 147.465984,113.089925 147.590094,112.618633" id="Fill-37" fill="#C4A662"></path>
                    <path d="M147.590094,112.618633 L147.838315,112.618633 L147.685666,114.600576 L141.869746,114.600576 L141.869746,114.383822 L142.014431,114.383822 C142.363532,114.383822 142.589187,114.341399 142.690731,114.257879 C142.792276,114.173033 142.857318,114.06565 142.884529,113.93573 C142.912404,113.80581 142.926341,113.474382 142.926341,112.942107 L142.926341,109.82005 C142.926341,109.334839 142.911076,109.015342 142.881874,108.861559 C142.852672,108.708439 142.785639,108.601719 142.680112,108.540736 C142.574585,108.47909 142.352913,108.448599 142.014431,108.448599 L142.014431,108.23317 L147.040559,108.23317 L147.201835,109.82005 L146.962907,109.82005 C146.852071,109.375273 146.716678,109.060416 146.556065,108.874153 C146.395451,108.68789 146.204309,108.570565 145.9833,108.521513 C145.762291,108.473125 145.406553,108.448599 144.916085,108.448599 L143.941788,108.448599 L143.941788,111.120576 L144.690431,111.120576 C145.032895,111.120576 145.273151,111.094062 145.410535,111.04037 C145.547255,110.987342 145.637517,110.907136 145.679993,110.799753 C145.723797,110.691045 145.745035,110.480919 145.745035,110.167387 L145.9833,110.167387 L145.9833,112.346199 L145.745035,112.346199 C145.745035,111.992896 145.712514,111.755593 145.646145,111.634953 C145.581103,111.514313 145.484204,111.436096 145.35744,111.400302 C145.231338,111.364507 145.01763,111.345947 144.715651,111.345947 L143.941788,111.345947 L143.941788,112.853285 C143.941788,113.608279 143.995547,114.05173 144.101737,114.184965 C144.209255,114.318199 144.497297,114.383822 144.966526,114.383822 L145.489514,114.383822 C145.857862,114.383822 146.161832,114.341399 146.399434,114.256553 C146.637699,114.171045 146.864681,113.994062 147.079716,113.72693 C147.295416,113.459799 147.465984,113.089925 147.590094,112.618633 Z" id="Stroke-39" stroke="#FFFFFF" stroke-width="0.072"></path>
                    <path d="M83.6448443,13.577104 C83.7974932,13.7196183 83.9295676,13.9012411 84.0417312,14.1226354 C84.1532313,14.3446926 84.2275646,14.5912754 84.2653949,14.8637097 C84.3025616,15.136144 84.2806598,15.4138811 84.1976985,15.6989097 C84.1160646,15.9826126 83.9554515,16.2530583 83.718514,16.5056069 C83.4842313,16.7574926 83.1935348,16.9536983 82.8490795,17.0955497 C82.5032967,17.2374011 82.138267,17.2904297 81.7519991,17.2526469 C81.861508,17.4939269 81.9822997,17.6960983 82.1157015,17.8591611 L81.8157134,18.179984 L80.1319307,16.611664 L80.4319188,16.2901783 C80.7279247,16.4578811 81.0305676,16.5891269 81.3391836,16.6852411 C81.6477997,16.7813554 81.9663711,16.806544 82.2948979,16.7621326 C82.6240884,16.718384 82.9154485,16.560624 83.1689783,16.2875269 C83.3913146,16.050224 83.5008235,15.7970126 83.4994961,15.5278926 C83.4975051,15.2581097 83.3939693,15.0280983 83.1882253,14.8358697 C83.0720795,14.727824 82.9492967,14.6549097 82.8212045,14.6184526 C82.6931122,14.5813326 82.5550646,14.5727154 82.4077253,14.5926011 C82.260386,14.611824 82.0805259,14.6575611 81.8654902,14.7304754 C81.6511182,14.8027269 81.413517,14.8908869 81.1520229,14.9956183 C80.744517,15.1513897 80.3834693,15.2547954 80.0688801,15.3058354 C79.7542908,15.3562126 79.4861598,15.3661554 79.2638235,15.335664 C79.0414872,15.3045097 78.8529991,15.2508183 78.6976955,15.1745897 C78.5437193,15.0970354 78.4043443,15.001584 78.2808979,14.8875726 C78.0612164,14.681424 77.8972848,14.4222469 77.789767,14.1093783 C77.6815854,13.7958469 77.6630021,13.4650811 77.7313622,13.117744 C77.7997223,12.7704069 77.9696271,12.4522354 78.2384217,12.1638926 C78.4454932,11.9424983 78.6937134,11.7800983 78.9830824,11.6753669 C79.2731152,11.5712983 79.575758,11.5288754 79.8916747,11.549424 C79.8299515,11.4128754 79.7230973,11.2418583 79.5717759,11.0350469 L79.8784009,10.7075954 L81.2495854,11.985584 L80.9429604,12.3136983 C79.9786182,11.8490354 79.2266568,11.9060411 78.6870765,12.4827269 C78.4912878,12.6928526 78.3917342,12.9149097 78.3884158,13.1482354 C78.3844336,13.382224 78.4733682,13.5837326 78.6552193,13.7527611 C78.7972491,13.8859954 78.9585259,13.9615611 79.1377223,13.980784 C79.3169187,13.999344 79.5047432,13.9801211 79.6998682,13.920464 C79.8956568,13.8608069 80.1982997,13.7527611 80.6084604,13.5943383 C81.1062283,13.4060869 81.5097521,13.2715269 81.8190318,13.1913211 C82.1289753,13.113104 82.4429009,13.0932183 82.7608086,13.1356411 C83.0793801,13.178064 83.3740586,13.3245554 83.6448443,13.577104" id="Fill-41" fill="#C5A660"></path>
                    <path d="M88.8179798,11.989296 L86.4227208,13.7776846 L86.1745006,13.4455931 C86.3742714,13.2971131 86.510328,13.1645417 86.5820065,13.0485417 C86.6550125,12.9325417 86.6769143,12.8231703 86.6483756,12.7204274 C86.6211643,12.6176846 86.5514768,12.4930674 86.4419679,12.3459131 L84.1396256,9.27158171 C83.9810036,9.06013029 83.8276911,8.94280457 83.677697,8.91894171 C83.5283667,8.89574171 83.304703,8.99517029 83.0080333,9.21656457 L82.7591494,8.885136 L85.1537446,7.09674743 L85.4026286,7.42883886 C85.2028577,7.57731886 85.0674649,7.71055314 84.9957863,7.82787886 C84.9247714,7.94520457 84.902206,8.05523886 84.9294173,8.15533029 C84.9566286,8.25741029 85.0256524,8.38136457 85.1351613,8.527856 L87.4375036,11.6028503 C87.541703,11.7427131 87.6386018,11.840816 87.7282,11.8971589 C87.8177982,11.9535017 87.9279708,11.9674217 88.0593815,11.9362674 C88.1901286,11.9064389 88.3600333,11.8136389 88.5690958,11.6578674 L88.8179798,11.989296 Z" id="Fill-43" fill="#C5A660"></path>
                    <path d="M93.1728512,3.17873143 C92.9206488,3.30268571 92.7533988,3.41802286 92.6697738,3.52474286 C92.5868125,3.6308 92.5582738,3.74149714 92.5828304,3.85683429 C92.6073869,3.97217143 92.6770744,4.14517714 92.7912292,4.37717714 L94.9376042,8.72021714 L94.579875,8.8972 L89.0181488,6.34321143 L90.510125,9.3612 C90.6229524,9.58988571 90.7191875,9.74963429 90.797503,9.83978286 C90.8758185,9.92993143 90.9846637,9.97566857 91.1240387,9.97566857 C91.26275,9.97566857 91.4572113,9.91402286 91.7067589,9.79139429 L91.8906012,10.1632571 L89.9260774,11.1316914 L89.7428988,10.7598286 C89.9765179,10.6438286 90.1324851,10.5331314 90.2094732,10.4264114 C90.2877887,10.3183657 90.3136726,10.2076686 90.287125,10.0923314 C90.2599137,9.97633143 90.1908899,9.80332571 90.0773988,9.57464 L88.6955952,6.77804571 C88.5834315,6.55201143 88.4931696,6.38563429 88.4261369,6.27825143 C88.3584405,6.17086857 88.2821161,6.08536 88.1958363,6.02305143 C88.1095565,5.95875429 88.0033661,5.92693714 87.8772649,5.92296 C87.7511637,5.91964571 87.5958601,5.95278857 87.4093631,6.0204 L87.2255208,5.64787429 L88.7652827,4.88956571 L93.5942946,7.09157714 L92.3591667,4.59061714 C92.257622,4.38579429 92.1660327,4.23598857 92.0850625,4.14053714 C92.0034286,4.04442286 91.8945833,3.99272 91.7578631,3.98675429 C91.6204792,3.98078857 91.4353095,4.03580571 91.2010268,4.15114286 L91.0178482,3.77928 L92.9896726,2.80753143 L93.1728512,3.17873143 Z" id="Fill-45" fill="#C5A660"></path>
                    <path d="M102.583451,6.43899429 L102.185901,6.53444571 C102.066436,6.29714286 101.915115,6.09563429 101.731273,5.92992 C101.573314,6.21163429 101.376198,6.46948571 101.140588,6.70214857 C100.904314,6.93481143 100.551231,7.10848 100.080674,7.22116571 C99.5649869,7.34445714 99.0559363,7.32987429 98.5528589,7.17609143 C98.0484542,7.02230857 97.6104185,6.74324571 97.236097,6.34089143 C96.8617756,5.93787429 96.6042637,5.44404571 96.4635613,4.86006857 C96.363344,4.44512 96.3394512,4.03216 96.391219,3.62118857 C96.4423232,3.21088 96.5657696,2.8304 96.7595673,2.48107429 C96.9540286,2.13108571 97.2141952,1.83081143 97.5394036,1.58025143 C97.8646119,1.32836571 98.2442429,1.15072 98.6782964,1.04598857 C99.3937548,0.874971429 100.043508,0.9744 100.628219,1.34758857 C100.660076,1.2064 100.676668,1.00953143 100.677996,0.75632 L101.057627,0.664845714 L101.652957,2.83437714 L101.246779,2.93181714 C101.084174,2.57851429 100.871793,2.28022857 100.611627,2.03762286 C100.350133,1.79369143 100.068728,1.62797714 99.7687399,1.53782857 C99.4687518,1.44768 99.1747369,1.43707429 98.8873589,1.50601143 C98.5661327,1.58356571 98.2993292,1.74464 98.0869482,1.98857143 C97.8745673,2.23184 97.7411655,2.55862857 97.6860792,2.96761143 C97.6309929,3.37659429 97.6701506,3.85915429 97.8048798,4.41661714 C97.9356268,4.96082286 98.1048679,5.39764571 98.3132667,5.72907429 C98.5210018,6.06050286 98.7367012,6.29714286 98.9603649,6.43833143 C99.1833649,6.57885714 99.3930911,6.66105143 99.5888798,6.68358857 C99.7859958,6.70546286 99.9618738,6.69817143 100.120496,6.65972571 C100.466279,6.57620571 100.754984,6.40585143 100.986612,6.14601143 C101.216912,5.88617143 101.386154,5.58921143 101.493008,5.25248 C101.599862,4.91641143 101.647648,4.59691429 101.637029,4.29398857 L102.042543,4.19588571 L102.583451,6.43899429 Z" id="Fill-47" fill="#C5A660"></path>
                    <path d="M109.601381,4.08498971 L109.619964,6.09477257 L104.372827,6.26711543 L104.359553,5.85349257 C104.720601,5.84089829 104.952893,5.77925257 105.05311,5.66789257 C105.153991,5.55586971 105.200449,5.36828114 105.191157,5.104464 L105.064393,1.26652114 C105.059083,1.09351543 105.037845,0.957629714 105.001342,0.861515429 C104.964839,0.764738286 104.883869,0.691161143 104.759095,0.639458286 C104.634321,0.587755429 104.443178,0.566544 104.185666,0.575161143 L104.171065,0.160212571 L109.057818,-0.000198857143 L109.188565,1.582704 L108.789024,1.59596114 C108.688143,1.24729829 108.575979,0.999389714 108.45386,0.851572571 C108.331077,0.704418286 108.196348,0.614932571 108.049009,0.585104 C107.901669,0.555938286 107.681324,0.545332571 107.3893,0.555275429 L106.285583,0.591732571 L106.357262,2.74866971 L106.956574,2.72944686 C107.162982,2.72215543 107.314967,2.69895543 107.415184,2.65719543 C107.515401,2.61609829 107.583762,2.54252114 107.620928,2.436464 C107.658095,2.33040686 107.679997,2.16469257 107.687297,1.93865829 L108.104759,1.92473829 L108.171128,3.95573257 L107.771586,3.96898971 C107.752339,3.74428114 107.717827,3.57922971 107.668714,3.47383543 C107.618274,3.369104 107.542613,3.30016686 107.441732,3.267024 C107.340851,3.234544 107.187538,3.22194971 106.981794,3.22857829 L106.37319,3.248464 L106.420976,4.68553829 C106.429604,4.92482971 106.440223,5.10048686 106.455488,5.211184 C106.471416,5.322544 106.505265,5.41335543 106.55836,5.48560686 C106.611455,5.55719543 106.695744,5.60757257 106.81189,5.63740114 C106.926708,5.66656686 107.089976,5.67783543 107.301693,5.670544 L107.774904,5.65529829 C107.974675,5.64800686 108.163827,5.61618971 108.343687,5.55719543 C108.52222,5.49820114 108.696107,5.35767543 108.862693,5.13429257 C109.029279,4.91157257 109.138788,4.56489829 109.193211,4.097584 L109.601381,4.08498971 Z" id="Fill-49" fill="#C5A660"></path>
                    <path d="M118.691684,7.67429486 L115.717023,6.903392 L115.841133,6.42149486 L116.068779,6.48048914 C116.271204,6.53351771 116.42319,6.54677486 116.524734,6.52092343 C116.625615,6.49639771 116.697957,6.44204343 116.742425,6.35918629 C116.786228,6.27566629 116.83335,6.137792 116.883127,5.94423771 L117.896582,2.04796343 C117.947687,1.85109486 117.968925,1.70128914 117.959633,1.599872 C117.949678,1.49712914 117.895255,1.41294629 117.797029,1.349312 C117.699466,1.28368914 117.530889,1.22071771 117.293288,1.159072 L117.123383,1.11466057 L117.243511,0.654637714 C117.810966,0.719597714 118.213826,0.747437714 118.454082,0.738820571 C118.693011,0.729540571 118.921984,0.681814857 119.139675,0.595643429 L119.594303,0.712969143 L118.128874,6.346592 C118.068478,6.58058057 118.064496,6.75358629 118.118255,6.86494629 C118.17135,6.977632 118.312053,7.06314057 118.541026,7.12213486 L118.817121,7.19372343 L118.691684,7.67429486 Z" id="Fill-52" fill="#C5A660"></path>
                    <path d="M128.09485,4.23114971 L123.821347,8.902304 C123.693919,9.04084114 123.575782,9.15684114 123.4676,9.25096686 C123.358755,9.34575543 123.243273,9.41071543 123.121154,9.44849829 C122.998371,9.486944 122.869615,9.47368686 122.733559,9.41071543 C122.592193,9.34442971 122.493303,9.23505829 122.436225,9.08127543 C122.379148,8.93080686 122.38844,8.77370971 122.463437,8.614624 C122.495294,8.54634971 122.547725,8.47409829 122.621395,8.39985829 C122.695065,8.32628114 122.772053,8.25866971 122.851696,8.19768686 C122.932002,8.13604114 122.991734,8.090304 123.030228,8.06378971 L126.849103,4.88671543 L124.942984,3.993184 C124.74985,3.90303543 124.611803,3.84669257 124.526187,3.82415543 C124.441234,3.80161829 124.3596,3.81023543 124.280621,3.84868114 C124.201642,3.88778971 124.099434,3.97396114 123.975324,4.10586971 L123.863824,4.225184 L123.407868,4.01108114 L124.950285,2.33405257 L125.380356,2.53556114 C125.303368,2.62836114 125.25691,2.69133257 125.242309,2.721824 C125.224389,2.76026971 125.223062,2.79341257 125.234344,2.82125257 C125.252928,2.87560686 125.365091,2.95117257 125.570172,3.04728686 L128.09485,4.23114971 Z" id="Fill-54" fill="#C5A660"></path>
                    <path d="M132.373928,11.2586949 C132.081904,11.6603863 131.81311,11.9805463 131.565553,12.2211634 C131.319324,12.4617806 131.081059,12.6447291 130.852086,12.7700091 C130.623113,12.8966149 130.389494,12.9874263 130.150565,13.044432 C129.515413,13.1955634 128.961232,13.1007749 128.492003,12.7580777 C128.290904,12.6122491 128.11569,12.4167063 127.968351,12.1727749 C127.821012,11.9288434 127.732077,11.6371863 127.700884,11.2958149 C127.669026,10.9551063 127.727431,10.5646834 127.875434,10.1238834 C128.022774,9.68440914 128.282276,9.20980343 128.650625,8.70205486 C128.983797,8.24534629 129.287104,7.88077486 129.560544,7.60767771 C129.834649,7.33590629 130.060967,7.14765486 130.2395,7.04292343 C130.418032,6.93885486 130.613821,6.84671771 130.828193,6.76783771 C131.519095,6.52390629 132.136991,6.60079771 132.681881,6.99784914 C133.241372,7.40418057 133.504193,7.968272 133.471672,8.69078629 C133.466363,9.007632 133.394684,9.360272 133.255309,9.74936914 C133.115934,10.1384663 132.822583,10.6422377 132.373928,11.2586949 L132.373928,11.2586949 Z M131.327288,10.4195177 L131.728821,9.86735771 C132.028809,9.45506057 132.25911,9.10639771 132.419059,8.82136914 C132.578345,8.53634057 132.667279,8.26788343 132.684535,8.01599771 C132.701128,7.764112 132.602238,7.55928914 132.387202,7.40285486 C132.158893,7.23714057 131.923946,7.20863771 131.681699,7.31800914 C131.439452,7.42804343 131.184595,7.63949486 130.9158,7.95170057 C130.647669,8.26390629 130.290604,8.72658057 129.84394,9.33972343 C129.411878,9.93430629 129.087997,10.4075863 128.872297,10.7608891 C128.657262,11.1135291 128.531824,11.4257349 128.496649,11.6968434 C128.4628,11.967952 128.558372,12.1866949 128.787345,12.3524091 C128.955922,12.4757006 129.133791,12.5187863 129.320952,12.4816663 C129.508113,12.4452091 129.695274,12.3457806 129.883098,12.1840434 C130.070922,12.0223063 130.250119,11.8367063 130.420024,11.6279063 C130.590592,11.4197691 130.814256,11.1247977 131.089687,10.7456434 L131.327288,10.4195177 Z" id="Fill-56" fill="#C5A660"></path>
                    <path d="M135.367371,17.7502537 L134.261663,18.4608366 L133.978267,18.1519451 C134.045964,18.1128366 134.09574,18.078368 134.128925,18.0478766 C134.233124,17.9524251 134.229142,17.8430537 134.116315,17.7204251 L131.888306,15.2976823 L132.247362,14.9689051 C132.857294,15.0053623 133.499083,15.0007223 134.174056,14.9569737 C134.849029,14.913888 135.490154,14.8051794 136.097431,14.6315109 C136.704708,14.4571794 137.193848,14.2006537 137.564851,13.860608 C137.778559,13.6644023 137.923907,13.461568 138.002223,13.252768 C138.079874,13.043968 138.098458,12.849088 138.0593,12.6661394 C138.020142,12.4831909 137.939172,12.324768 137.815062,12.1895451 C137.698252,12.0622766 137.560205,11.9747794 137.401583,11.9263909 C137.242297,11.8786651 137.083675,11.8726994 136.925053,11.9098194 C136.766431,11.9462766 136.630374,12.0178651 136.51622,12.1225966 C136.380827,12.2465509 136.253398,12.4566766 136.131943,12.7529737 C136.122651,12.7741851 136.11336,12.7894309 136.104068,12.7987109 C136.083493,12.816608 136.004514,12.7953966 135.866467,12.7324251 L135.544577,12.5879223 C135.434404,12.5401966 135.372017,12.5090423 135.358743,12.4937966 C135.322904,12.454688 135.350115,12.3466423 135.440377,12.1683337 C135.529976,11.9920137 135.65674,11.828288 135.820008,11.6784823 C136.046327,11.471008 136.30052,11.3404251 136.583252,11.285408 C136.866648,11.2317166 137.164645,11.2688366 137.478571,11.3987566 C137.791833,11.5286766 138.097794,11.7547109 138.395127,12.0775223 C138.75883,12.4745737 138.966565,12.8596937 139.018996,13.234208 C139.070101,13.6087223 139.030943,13.9288823 138.902187,14.1933623 C138.772767,14.4585051 138.620782,14.6719451 138.444904,14.8323566 C138.089166,15.1591451 137.639848,15.3659566 137.098276,15.452128 C136.556705,15.5389623 135.906952,15.572768 135.149681,15.5555337 C135.111187,15.554208 134.963184,15.5469166 134.706336,15.5316709 C134.448824,15.517088 134.1568,15.4998537 133.830264,15.4786423 C133.504392,15.4574309 133.309267,15.4454994 133.244889,15.4408594 L135.367371,17.7502537 Z" id="Fill-58" fill="#C5A660"></path>
                    <path d="M96.9136098,28.775424 C99.6433687,31.3605669 100.989333,32.6862811 102.799881,35.9800183 L102.813818,36.0058697 C103.712455,35.7930926 104.454461,35.7712183 105.371681,35.6552183 C106.718973,35.4835383 107.497482,35.4457554 108.855393,35.4842011 C110.211312,35.4457554 110.989821,35.4835383 112.337113,35.6552183 C113.258979,35.7718811 113.779976,35.865344 114.683922,36.0801097 L114.835244,36.115904 L114.910241,35.9800183 C116.721452,32.6862811 118.067416,31.3605669 120.795848,28.775424 C124.006119,25.7329097 126.214881,24.2998126 130.300559,22.6022354 L130.425997,22.5498697 L130.425997,21.796864 L130.238172,21.7809554 C128.221217,21.6106011 123.92714,21.2891154 120.609351,23.1802469 C119.879955,23.5958583 119.390151,23.9206583 118.857872,24.3621211 C119.272678,23.3578926 119.513598,22.553184 119.791021,21.3182811 C120.323964,18.947904 120.416881,17.514144 120.194544,15.0960411 L120.170651,14.8454811 L119.930396,14.920384 C118.841943,15.2571154 118.233339,15.5341897 117.265015,16.136064 C115.387434,17.3026926 114.357387,18.3572983 113.352559,20.1920869 C113.009431,18.9790583 112.724044,18.1723611 112.193092,16.8950354 C111.205521,14.5180297 110.490726,13.212864 109.023306,11.097024 L108.855393,10.8550811 L108.687479,11.097024 C107.218068,13.212864 106.504601,14.5180297 105.517029,16.8950354 C104.986077,18.1723611 104.699363,18.9790583 104.357562,20.1920869 C103.352071,18.3572983 102.322024,17.3026926 100.444443,16.136064 C99.4767824,15.5341897 98.8681783,15.2571154 97.7790622,14.920384 L97.5494253,14.8481326 L97.5175682,15.0860983 C97.1764312,17.5114926 97.6151307,19.7956983 98.2562557,22.1243154 C98.5721723,23.2703954 98.6624342,23.5812754 99.0314461,24.2500983 C98.422842,23.8437669 97.8832616,23.550784 97.086833,23.1736183 C93.6495801,21.5476297 89.5041693,21.6086126 87.4706217,21.7809554 L87.283461,21.796864 L87.283461,22.5498697 L87.4088985,22.6022354 C91.4945771,24.2998126 93.7026753,25.7329097 96.9136098,28.775424 M121.794038,24.0923383 C122.907711,23.5686811 123.796393,23.2432183 124.748788,23.049664 C122.851961,24.1301211 120.889428,25.151584 118.954771,26.9074926 C117.910785,27.856704 117.581595,28.7681326 116.830297,29.6099611 L116.955071,29.3620526 C117.496643,28.2796069 117.784021,27.6392869 118.220729,26.5429211 C119.427318,25.3822583 120.252949,24.8181669 121.794038,24.0923383 M113.02005,31.4401097 C114.137705,28.0542354 114.443003,25.9118811 114.300309,22.3775269 C114.846526,20.929184 115.350268,20.1364069 116.438056,18.9949669 C117.134268,18.2638354 117.649955,17.8276754 118.382669,17.388864 C118.315637,18.1770011 118.082018,19.337664 117.856363,20.1894354 C116.559512,25.0461897 115.240095,28.4771383 112.591306,32.6557897 C112.732009,32.2912183 112.864083,31.9114011 113.02005,31.4401097 M108.860038,14.2648183 C111.906378,19.5676754 112.439985,24.9228983 110.973893,30.7268754 C110.859074,29.0823269 110.330776,27.4357897 109.454041,25.1787611 L109.327276,24.8519726 C108.765794,23.7204754 108.382181,24.8519726 108.382181,24.8519726 L108.25608,25.1787611 C107.379345,27.4351269 106.850384,29.0810011 106.735565,30.7248869 C105.272791,24.9228983 105.813035,19.5676754 108.860038,14.2648183 M101.272065,18.9949669 C102.35919,20.1364069 102.862268,20.929184 103.409812,22.3775269 C103.267119,25.9118811 103.572416,28.0542354 104.688744,31.4401097 C104.845375,31.9114011 104.978776,32.2905554 105.118151,32.6551269 C102.47069,28.4771383 101.149282,25.0461897 99.8544223,20.1894354 C99.6254491,19.337664 99.3938211,18.1770011 99.3287795,17.388864 C100.059503,17.8276754 100.57519,18.2638354 101.272065,18.9949669 M95.9154193,24.0923383 C97.4565086,24.8181669 98.2828033,25.3822583 99.4893926,26.5429211 C99.9254372,27.6392869 100.212815,28.2796069 100.754387,29.3620526 L100.880488,29.6099611 C100.129854,28.7681326 98.759333,27.1302126 97.7133568,26.1796754 C95.7800265,24.4237669 94.856833,24.1301211 92.9626604,23.049664 C93.9130652,23.2432183 94.8024104,23.5686811 95.9154193,24.0923383" id="Fill-60" fill="#C5A660"></path>
                    <path d="M102.874214,36.1161029 L102.813818,36.0054057 C102.809172,36.0067314 102.804526,36.0067314 102.799881,36.0080571 L102.874214,36.1161029 Z" id="Fill-62" fill="#FFFFFF"></path>
                    <path d="M96.207244,35.9835314 C96.5862113,36.3865486 96.94925,36.8074629 97.2976875,37.2436229 L97.4602917,37.44248 C98.7564792,37.0441029 99.8303304,36.6450629 101.225408,36.3825714 C97.2379554,31.82344 90.7550268,28.1538629 81.9213065,28.2281029 C80.7658214,28.3613371 78.4926815,28.5065029 77.3511339,30.04632 C76.9084524,30.6415657 76.6151012,31.0333143 76.553378,31.7730629 C76.4199762,33.3572914 77.7135089,34.8659543 79.3050387,34.7864114 C81.9213065,34.6525143 82.462878,31.8996686 81.2981012,30.4446971 C81.5005268,30.1974514 81.6465387,30.0734971 81.9213065,29.9137486 C82.4661964,29.5969029 82.8856488,29.6479429 83.5168185,29.6479429 C87.1989732,29.6479429 92.4235446,31.9520343 96.207244,35.9835314" id="Fill-64" fill="#C5A660"></path>
                    <path d="M141.231475,31.772864 C141.169088,31.0337783 140.875737,30.6420297 140.432392,30.0461211 C139.290844,28.506304 137.01704,28.3618011 135.862219,28.2285669 C127.03049,28.1543269 120.54557,31.8232411 116.558118,36.3823726 C117.952532,36.6455269 119.02771,37.043904 120.325225,37.4422811 L120.485838,37.243424 C120.834276,36.807264 121.198642,36.3863497 121.576945,35.9833326 C125.361972,31.9518354 130.585216,29.647744 134.266043,29.647744 C134.897877,29.647744 135.316665,29.596704 135.862219,29.9135497 C136.138314,30.0732983 136.283663,30.1972526 136.485424,30.4451611 C135.321311,31.8994697 135.862219,34.6523154 138.479814,34.7862126 C140.070017,34.8664183 141.364213,33.3577554 141.231475,31.772864" id="Fill-66" fill="#C5A660"></path>
                    <path d="M109.137262,37.6621509 L109.137262,37.6601623 C109.051646,37.6601623 108.970676,37.6608251 108.891696,37.6621509 C108.812717,37.6608251 108.731747,37.6601623 108.646131,37.6601623 L108.646131,37.6621509 C98.7737351,37.5136709 88.4208274,42.742288 88.3405208,51.989808 C88.3936161,57.1362309 92.7115863,60.2377394 97.247247,59.9162537 C103.300768,59.3919337 106.132735,53.5621051 105.703327,48.2473166 C105.725893,47.3789737 105.580545,46.7452823 105.455107,45.7370766 C105.340952,44.8309509 105.1445,43.8870423 104.846503,42.9312023 C103.567571,43.0293051 101.989315,43.1963451 100.795336,43.4309966 C102.681545,46.6458537 104.126399,53.1928937 100.874979,56.3997966 C99.1646488,58.5103337 95.8282768,58.9484823 94.2115268,58.444048 C91.309872,57.539248 89.5198988,55.358448 89.8099315,51.8419909 C90.5910952,45.1610537 97.9023095,40.9936709 108.646131,40.8644137 L108.646131,40.8756823 C108.722455,40.8756823 108.805417,40.8717051 108.891696,40.8610994 C108.979304,40.8717051 109.060937,40.8756823 109.137262,40.8756823 L109.137262,40.8644137 C119.88042,40.9936709 127.192961,45.1603909 127.974789,51.8419909 C128.263494,55.358448 126.473521,57.539248 123.571866,58.444048 C121.955116,58.9484823 118.619408,58.5103337 116.909077,56.3997966 C113.657658,53.1928937 115.101848,46.6458537 116.989384,43.4309966 C115.794077,43.1963451 114.217149,43.0293051 112.937554,42.9312023 C112.64022,43.8870423 112.44244,44.8309509 112.329613,45.7370766 C112.204176,46.7452823 112.058164,47.3789737 112.080065,48.2473166 C111.651321,53.5621051 114.483289,59.3919337 120.537473,59.9162537 C125.07247,60.2377394 129.39044,57.1362309 129.444199,51.989808 C129.363893,42.7416251 119.010985,37.5136709 109.137262,37.6621509" id="Fill-68" fill="#C5A660"></path>
                    <path d="M28.3740952,92.8033143 L28.8692083,92.8033143 L28.8692083,79.4885029 L28.3740952,79.4885029 L28.3740952,92.8033143 Z M40.0331458,97.6832686 L23.7096786,97.6832686 L23.7096786,98.17776 L40.5289226,98.17776 L40.5289226,93.2997943 L40.0331458,93.2997943 L40.0331458,97.6832686 Z M13.1789018,84.1470629 L4.66375298,84.1470629 L4.66375298,85.80288 L5.16152083,85.80288 L5.16152083,84.6415543 L13.6746786,84.6415543 C13.8717946,84.6415543 14.0450179,84.6587886 14.1897024,84.6886171 C14.169128,84.5487543 14.1286429,84.4141943 14.0436905,84.3386286 C13.9049792,84.2173257 13.5890625,84.1470629 13.1789018,84.1470629 L13.1789018,84.1470629 Z M83.328994,84.1470629 L70.5907827,84.1470629 L70.5907827,85.55696 L71.0872232,85.55696 L71.0872232,84.6415543 L83.8254345,84.6415543 L83.8254345,79.4885029 L83.328994,79.4885029 L83.328994,84.1470629 Z M19.7892589,85.2520457 C19.7892589,83.5405486 19.2085298,82.1333029 18.0623363,81.0647771 C18.0331339,81.0389257 18.0012768,81.0163886 17.9727381,80.9898743 C18.8494732,81.9987429 19.2934821,83.2621486 19.2934821,84.7568914 C19.2934821,86.0176457 18.8919494,87.1458286 18.1233958,88.0784686 C19.2941458,89.1542857 19.9073958,90.6026286 19.9073958,92.3287086 C19.9073958,94.1893486 19.2496786,95.5906286 17.9528274,96.4914514 C16.7993333,97.2928457 15.1407708,97.6832686 12.8842232,97.6832686 L0,97.6832686 L0,98.17776 L13.3813274,98.17776 C15.6372113,98.17776 17.2957738,97.7886629 18.4492679,96.9859429 C19.7454554,96.0844571 20.4011815,94.6845029 20.4011815,92.8238629 C20.4011815,91.09712 19.79125,89.6487771 18.6178452,88.5742857 C19.3870625,87.6416457 19.7892589,86.5121371 19.7892589,85.2520457 L19.7892589,85.2520457 Z M5.16152083,91.4510857 L13.6255655,91.4510857 C14.1147054,91.4510857 14.4531875,91.5047771 14.6881339,91.5916114 C14.6011905,91.25488 14.2859375,90.9559314 13.1297887,90.9559314 L4.66375298,90.9559314 L4.66375298,92.8033143 L5.16152083,92.8033143 L5.16152083,91.4510857 Z M46.849247,91.91376 C46.8611935,91.9243657 46.875131,91.9343086 46.8864137,91.9435886 C46.180247,91.1302629 45.8298185,90.1353143 45.8298185,88.9149943 C45.8298185,87.5256457 46.338869,86.4040914 47.3841815,85.48736 C48.4560417,84.5461029 49.8862946,84.0701714 51.6337917,84.0701714 C53.3487679,84.0701714 54.757119,84.53616 55.8176964,85.4542171 C55.6743393,85.2904914 55.5223542,85.1314057 55.3497946,84.9796114 C54.2845714,84.0482971 52.8675923,83.5750171 51.1360238,83.5750171 C49.3905179,83.5750171 47.9609286,84.0516114 46.8884048,84.9922057 C45.8430923,85.9102629 45.3347054,87.0304914 45.3347054,88.4205029 C45.3347054,89.8821029 45.8298185,91.0255314 46.849247,91.91376 L46.849247,91.91376 Z M165.189905,84.5746057 L171.127943,84.5746057 C172.271482,84.5746057 173.213923,84.8762057 173.940664,85.4681371 C173.882259,85.3985371 173.826509,85.3282743 173.763458,85.2639771 C173.003533,84.4784914 171.949592,84.0794514 170.632167,84.0794514 L164.694792,84.0794514 L164.694792,92.7370286 L165.189905,92.7370286 L165.189905,84.5746057 Z M79.9474911,91.2058286 L79.9474911,86.0521143 L79.4517143,86.0521143 L79.4517143,90.7106743 L70.5907827,90.7106743 L70.5907827,92.8033143 L71.0872232,92.8033143 L71.0872232,91.2058286 L79.9474911,91.2058286 Z M190.413461,89.2066514 L191.151485,89.2066514 L192.620896,86.1873371 L192.254539,85.4290286 L190.413461,89.2066514 Z M128.791128,91.2058286 L128.791128,86.0521143 L128.295351,86.0521143 L128.295351,90.7106743 L119.435083,90.7106743 L119.435083,92.8033143 L119.930196,92.8033143 L119.930196,91.2058286 L128.791128,91.2058286 Z M132.173958,84.1470629 L119.435083,84.1470629 L119.435083,85.55696 L119.930196,85.55696 L119.930196,84.6415543 L132.669071,84.6415543 L132.669071,79.4885029 L132.173958,79.4885029 L132.173958,84.1470629 Z M210.470851,92.8033143 L210.965301,92.8033143 L210.965301,79.4885029 L210.470851,79.4885029 L210.470851,92.8033143 Z M180.681768,87.2147657 C180.38178,85.2268571 179.473188,83.5034286 178.046253,82.1664457 C179.189792,83.4238857 179.921842,84.9696686 180.185991,86.7202743 C180.541729,89.0714286 180.073827,91.42656 178.834717,93.5324571 C177.527247,95.7490514 175.665595,97.0429486 173.140917,97.4857371 C172.165292,97.6574171 171.111351,97.7329829 169.722247,97.7329829 C169.141518,97.7329829 168.559461,97.7210514 167.995988,97.7084571 C167.453089,97.6965257 166.894262,97.6832686 166.362646,97.6832686 L160.031039,97.6832686 L160.031039,98.17776 L166.858423,98.17776 C167.389375,98.17776 167.948202,98.1923429 168.490438,98.2022857 C169.054574,98.21488 169.637958,98.2294629 170.218688,98.2294629 C171.606464,98.2294629 172.661732,98.1538971 173.637357,97.9815543 C176.160708,97.5367771 178.023024,96.2435429 179.329167,94.0256229 C180.570268,91.9203886 181.037506,89.5652571 180.681768,87.2147657 L180.681768,87.2147657 Z M59.6724107,81.9549943 C61.3316369,83.7314514 62.1738601,85.9029714 62.1738601,88.43376 C62.1738601,91.5114057 60.9705893,94.0528 58.6005506,95.9909943 C56.7515089,97.4996571 54.4531488,98.1744457 51.1486339,98.1744457 C47.844119,98.1744457 45.5397857,97.5016457 43.6768065,95.9929829 C43.4730536,95.8285943 43.2805833,95.6569143 43.0927589,95.48192 C43.4219494,95.8338971 43.7803423,96.1699657 44.173247,96.4881371 C46.0355625,97.9968 48.3392321,98.6682743 51.6450744,98.6682743 C54.9495893,98.6682743 57.2472857,97.9968 59.0956637,96.4854857 C61.4650387,94.5479543 62.6676458,92.00656 62.6676458,88.9289143 C62.6676458,86.1575086 61.6588363,83.8162971 59.6724107,81.9549943 L59.6724107,81.9549943 Z M196.645515,94.3610286 L187.842324,94.3610286 L186.105446,97.6832686 L181.145687,97.6832686 L180.899458,98.17776 L186.602551,98.17776 L188.338765,94.8548571 L196.90369,94.8548571 L196.645515,94.3610286 Z M195.004872,79.4885029 L204.084158,97.6832686 L198.618667,97.6832686 L198.876842,98.17776 L204.846074,98.17776 L195.52056,79.4885029 L195.004872,79.4885029 Z M222.129238,93.2997943 L222.129238,97.6832686 L205.806435,97.6832686 L205.806435,98.17776 L222.625015,98.17776 L222.625015,93.2997943 L222.129238,93.2997943 Z M140.713664,86.20192 L140.713664,97.6832686 L136.051238,97.6832686 L136.051238,98.17776 L141.211432,98.17776 L141.211432,86.8661029 L140.713664,86.20192 Z M155.367949,97.6832686 L149.438539,97.6832686 L149.808878,98.17776 L155.86439,98.17776 L155.86439,79.4885029 L155.367949,79.4885029 L155.367949,97.6832686 Z M91.8706905,86.5512457 L91.8706905,97.6832686 L87.2069375,97.6832686 L87.2069375,98.17776 L92.367131,98.17776 L92.367131,87.3082286 L91.8706905,86.5512457 Z M83.8937946,97.6832686 L65.9270298,97.6832686 L65.9270298,98.17776 L84.3902351,98.17776 L84.3902351,93.2997943 L83.8937946,93.2997943 L83.8937946,97.6832686 Z M104.894289,86.7056914 L98.4777292,96.3602057 L98.8878899,96.9839543 L104.900926,87.9352914 L104.894289,86.7056914 Z M132.738759,97.6832686 L114.77133,97.6832686 L114.77133,98.17776 L133.233872,98.17776 L133.233872,93.2997943 L132.738759,93.2997943 L132.738759,97.6832686 Z M110.108905,97.6832686 L105.447143,97.6832686 L105.449798,98.17776 L110.604682,98.17776 L110.604682,79.4885029 L110.108905,79.4885029 L110.108905,97.6832686 Z" id="Fill-70" fill="#3C352C"></path>
                    <path d="M0.813684524,96.3767109 L0.813684524,80.3010994 L13.0322262,80.3010994 C14.5746429,80.3010994 15.8004792,80.7127337 16.6738958,81.5273851 C17.5433304,82.3360709 17.9840208,83.4244823 17.9840208,84.757488 C17.9840208,86.1183337 17.4251935,87.1881851 16.2756815,88.0280251 L16.0228155,88.209648 L16.2955923,88.3640937 C17.8446458,89.2410537 18.5985982,90.538928 18.5985982,92.3293051 C18.5985982,95.127888 16.8365,96.3767109 12.8842232,96.3767109 L0.813684524,96.3767109 Z M3.35561905,94.1097394 L12.8842232,94.1097394 C13.8545387,94.1097394 14.623756,93.9228137 15.1699732,93.5509509 C15.7400833,93.1631794 16.0307798,92.6335566 16.0307798,91.9766651 C16.0307798,90.9154309 15.5277024,89.6493737 13.1297887,89.6493737 L3.35561905,89.6493737 L3.35561905,94.1097394 Z M3.35561905,87.109968 L13.0806756,87.109968 C13.815381,87.109968 14.4087202,86.9130994 14.8474196,86.5233394 C15.2907649,86.130928 15.515756,85.5933509 15.515756,84.9344709 C15.515756,83.9792937 15.1102411,82.8405051 13.1789018,82.8405051 L3.35561905,82.8405051 L3.35561905,87.109968 Z" id="Fill-72" fill="#362E26"></path>
                    <polygon id="Fill-73" fill="#362E26" points="24.5233631 96.3767109 24.5233631 80.3010994 27.0659613 80.3010994 27.0659613 94.1097394 38.7243482 94.1097394 38.7243482 96.3767109"></polygon>
                    <path d="M51.1487003,96.8666286 C48.1647479,96.8666286 46.1152717,96.28464 44.5018402,94.9788114 C42.4497092,93.3203429 41.4103699,91.1176686 41.4103699,88.4344229 C41.4103699,85.7863086 42.4583372,83.6041829 44.525733,81.9450514 C46.3449086,80.4735086 48.5749086,79.7284571 51.1487003,79.7284571 C53.7078908,79.7284571 55.9279354,80.4735086 57.747111,81.9443886 C59.8151705,83.62208 60.8644652,85.8055314 60.8644652,88.4344229 C60.8644652,91.0997714 59.8231348,93.3024457 57.7716676,94.9794743 C56.1728372,96.28464 54.1306616,96.8666286 51.1487003,96.8666286 M51.1360902,82.2672 C49.0647122,82.2672 47.3430991,82.8551543 46.0256735,84.0098514 C44.6982926,85.1731657 44.0259741,86.65664 44.0259741,88.4205029 C44.0259741,90.2566171 44.6863461,91.7632914 45.9891705,92.8994286 C47.2813759,94.0282743 49.013608,94.5996571 51.1360902,94.5996571 C53.2439711,94.5996571 54.9642568,94.0282743 56.2491616,92.8994286 C57.543358,91.7632914 58.1990842,90.2566171 58.1990842,88.4205029 C58.1990842,86.6394057 57.5307479,85.1506286 56.2126586,83.9972571 C54.9005426,82.8498514 53.1941943,82.2672 51.1360902,82.2672" id="Fill-74" fill="#362E26"></path>
                    <polygon id="Fill-75" fill="#362E26" points="66.7393205 96.3767109 66.7393205 80.3010994 82.0214574 80.3010994 82.0214574 82.8405051 69.2819187 82.8405051 69.2819187 86.8647109 78.143514 86.8647109 78.143514 89.4041166 69.2819187 89.4041166 69.2819187 94.1097394 82.586258 94.1097394 82.586258 96.3767109"></polygon>
                    <polygon id="Fill-76" fill="#362E26" points="106.255916 96.3767109 106.178928 82.4076594 98.3991482 94.1157051 90.8397137 82.5965737 90.5622911 83.0075451 90.5622911 96.3767109 88.0196929 96.3767109 88.0196929 80.3010994 92.1312554 80.3010994 98.3958298 89.9423566 104.678987 80.3010994 108.799178 80.3010994 108.799178 96.3767109"></polygon>
                    <polygon id="Fill-77" fill="#362E26" points="115.584152 96.3767109 115.584152 80.3010994 130.865625 80.3010994 130.865625 82.8405051 118.12675 82.8405051 118.12675 86.8647109 126.987018 86.8647109 126.987018 89.4041166 118.12675 89.4041166 118.12675 94.1097394 131.429099 94.1097394 131.429099 96.3767109"></polygon>
                    <polygon id="Fill-78" fill="#362E26" points="149.968827 96.3767109 139.406857 82.2737623 139.406857 96.3767109 136.862932 96.3767109 136.862932 80.3010994 140.94861 80.3010994 151.51589 94.6937166 151.51589 80.3010994 154.060479 80.3010994 154.060479 96.3767109"></polygon>
                    <path d="M169.722579,96.4282811 C169.155787,96.4282811 168.577713,96.4136983 168.02154,96.4017669 C167.475323,96.3904983 166.909195,96.3765783 166.362978,96.3765783 L160.843728,96.3765783 L160.843728,80.3016297 C160.995713,80.2989783 161.26849,80.2989783 161.752984,80.2989783 L162.881921,80.2989783 L170.410162,80.3009669 C172.471585,80.3009669 174.438763,80.9154354 175.951314,82.0316869 C177.573374,83.2268183 178.590147,84.9164411 178.89279,86.9142926 C179.202734,88.9658354 178.791909,91.0246697 177.705448,92.8694011 C176.589784,94.763184 175.067278,95.8204411 172.914266,96.1989326 C172.016957,96.3573554 171.032704,96.4282811 169.722579,96.4282811 L169.722579,96.4282811 Z M163.385662,94.0433211 L171.098409,94.0433211 C172.591049,94.0433211 173.834141,93.5156869 174.793174,92.4743383 C175.749552,91.436304 176.234046,90.1019726 176.234046,88.5044869 C176.234046,86.7976297 175.718359,85.4009897 174.703576,84.3536754 C173.686802,83.3063611 172.318272,82.7747497 170.632499,82.7747497 L163.385662,82.7747497 L163.385662,94.0433211 Z" id="Fill-79" fill="#362E26"></path>
                    <path d="M199.173313,96.3767109 L197.437099,93.053808 L187.049679,93.053808 L185.314128,96.3767109 L182.518,96.3767109 L190.540691,80.3010994 L193.948741,80.3010994 L201.969441,96.3767109 L199.173313,96.3767109 Z M188.322637,90.5144023 L196.16414,90.5144023 L192.258322,82.4321851 L188.322637,90.5144023 Z" id="Fill-80" fill="#362E26"></path>
                    <polygon id="Fill-81" fill="#362E26" points="206.620385 96.3767109 206.620385 80.3010994 209.161655 80.3010994 209.161655 94.1097394 220.82137 94.1097394 220.82137 96.3767109"></polygon>
                    <path d="M194.025132,83.4051269 L194.128668,83.4051269 L194.025132,83.4051269 Z" id="Fill-82" fill="#4C3F30"></path>
                </g>
            </g>
        </g>
    </g>
</svg>