<?xml version="1.0" encoding="UTF-8"?>
<svg width="20px" height="17px" viewBox="0 0 20 17" version="1.1" xmlns="http://www.w3.org/2000/svg" xmlns:xlink="http://www.w3.org/1999/xlink">
    <!-- Generator: sketchtool 57.1 (101010) - https://sketch.com -->
    <title>33BCF902-F7C8-4328-913B-C434F2A408B1</title>
    <desc>Created with sketchtool.</desc>
    <g id="Page-1" stroke="none" stroke-width="1" fill="none" fill-rule="evenodd">
        <g id="Home" transform="translate(-690.000000, -8672.000000)" fill="#C4A662" fill-rule="nonzero">
            <g id="social" transform="translate(648.000000, 8672.000000)">
                <path d="M61.3888889,2.5944 C60.6979996,2.91208 59.9553996,3.12768 59.1763477,3.22448 C59.9723539,2.72904 60.5827101,1.94584 60.8700861,1.01216 C60.1257907,1.47064 59.3009621,1.8024 58.4235751,1.9828 C57.7208177,1.20576 56.719664,0.72 55.611698,0.72 C53.4839285,0.72 51.7596722,2.50992 51.7596722,4.71872 C51.7596722,5.032 51.7935809,5.33736 51.8597028,5.62952 C48.657876,5.46232 45.8197197,3.8704 43.9191383,1.45128 C43.587681,2.04176 43.3977924,2.72904 43.3977924,3.46208 C43.3977924,4.84896 44.0776614,6.07304 45.1101806,6.79024 C44.4786315,6.76912 43.8852297,6.5896 43.3655792,6.2904 C43.3647315,6.30712 43.3647315,6.32384 43.3647315,6.34056 C43.3647315,8.27832 44.6922562,9.89576 46.4555074,10.26184 C46.1325272,10.35336 45.791745,10.40176 45.4407902,10.40176 C45.1924092,10.40176 44.9516576,10.37712 44.7159923,10.33048 C45.2059726,11.91888 46.6284417,13.0752 48.3145506,13.10776 C46.9963508,14.18048 45.3348256,14.81936 43.5300363,14.81936 C43.2189242,14.81936 42.9128983,14.80088 42.6111111,14.76392 C44.3150221,15.89824 46.3402179,16.56 48.5163073,16.56 C55.6023731,16.56 59.4764395,10.466 59.4764395,5.18248 C59.4764395,5.00912 59.4730486,4.83664 59.4654192,4.66504 C60.2181918,4.10184 60.8709338,3.39784 61.3880412,2.59528" id="twitter-g"></path>
            </g>
        </g>
    </g>
</svg>